<?xml version="1.0" encoding="UTF-8" standalone="no"?>
<svg xmlns:dc="http://purl.org/dc/elements/1.1/" xmlns:cc="http://creativecommons.org/ns#" xmlns:rdf="http://www.w3.org/1999/02/22-rdf-syntax-ns#" xmlns:svg="http://www.w3.org/2000/svg" xmlns="http://www.w3.org/2000/svg" xmlns:sodipodi="http://sodipodi.sourceforge.net/DTD/sodipodi-0.dtd" xmlns:inkscape="http://www.inkscape.org/namespaces/inkscape" width="423.33334mm" height="313.26666mm" viewBox="0 0 423.33334 313.26666" version="1.1" id="svg8" sodipodi:docname="Digestive_system_showing_bile_duct.svg" inkscape:version="1.0.1 (3bc2e813f5, 2020-09-07)">
  <defs id="defs2"/>
  <sodipodi:namedview id="base" pagecolor="#ffffff" bordercolor="#666666" borderopacity="1.0" inkscape:pageopacity="0.0" inkscape:pageshadow="2" inkscape:zoom="1.979899" inkscape:cx="748.99804" inkscape:cy="39.68302" inkscape:document-units="mm" inkscape:current-layer="layer2" inkscape:document-rotation="0" showgrid="false" inkscape:window-width="1205" inkscape:window-height="728" inkscape:window-x="83" inkscape:window-y="0" inkscape:window-maximized="0" inkscape:object-nodes="false"/>
  <metadata id="metadata5">
    <rdf:RDF>
      <cc:Work rdf:about="">
        <dc:format>image/svg+xml</dc:format>
        <dc:type rdf:resource="http://purl.org/dc/dcmitype/StillImage"/>
      </cc:Work>
    </rdf:RDF>
  </metadata>
  <g inkscape:groupmode="layer" id="layer2" inkscape:label="Layer 2" style="display:inline" sodipodi:insensitive="true">
    <path style="opacity:0.998;fill:#99ff55;stroke:none;stroke-width:0.388001;stroke-linecap:round;stroke-linejoin:round;stop-color:#000000" d="m 109.84778,166.10801 -3.47451,-5.61266 0.93544,-12.42803 5.01131,-8.75308 5.94674,-5.01131 10.89124,-4.67721 11.49259,-4.81085 7.61718,-3.20724 4.81085,1.06908 3.20723,5.01131 0.93545,9.88897 -0.53454,2.53906 -4.54358,-0.40091 -8.68626,-0.86862 -3.20724,3.4745 -2.47224,9.42125 -2.47224,6.68174 -3.60814,3.60814 -7.684,4.14268 -6.54811,1.46998 -4.81084,-0.20045 z" id="path864"/>
    <path style="opacity:0.998;fill:#99ff55;fill-opacity:1;stroke:none;stroke-width:0.388001;stroke-linecap:round;stroke-linejoin:round;stop-color:#000000" d="m 147.22172,219.01358 -1.81901,-2.14974 -0.23623,-3.44904 1.13393,-2.66945 1.6064,-0.77958 2.43322,0.77958 0.59059,4.46484 -0.92132,2.66946 z" id="path866"/>
    <path style="opacity:0.677419;fill:#d4ff2a;stroke:none;stroke-width:0.388001;stroke-linecap:round;stroke-linejoin:round;stop-color:#000000" d="m 206.33207,231.18814 c 14.70232,1.02288 28.59176,0.29165 36.61593,-13.09621 16.93104,-1.33502 25.5146,-5.45254 30.73599,-10.69078 5.77344,-3.02905 5.78623,-6.05811 7.21627,-9.08716 4.22004,-3.75729 4.64127,-8.099 4.27633,-12.56167 3.30169,-5.40001 2.86726,-9.60427 -2.67271,-13.63075 -8.10462,-1.36571 -11.82017,2.90421 -17.58214,4.03538 -16.27294,3.19468 -31.81415,4.80395 -47.09708,5.8536 -14.76441,0.83454 -25.9135,7.5092 -36.08138,15.7689 -7.6573,5.33747 -14.56512,11.65504 -17.63979,22.98518 -3.88193,18.60748 -2.22573,22.44658 -2.13816,30.46872 2.08269,6.63184 4.38422,13.18305 13.09621,17.37252 6.7811,0.75892 12.98624,-1.07395 17.63979,-9.88897 0.21252,-9.17625 -2.27514,-18.35251 13.63074,-27.52876 z" id="path860" sodipodi:nodetypes="ccccccsccccccc"/>
    <path id="path848" style="opacity:0.998;fill:#338000;stroke:none;stroke-width:1.46646;stroke-linecap:round;stroke-linejoin:round;stop-color:#000000" d="m 527.5,250 c 4.94219,13.03606 11.62202,26.42053 12.14258,38.57227 6.54111,26.86363 7.73269,52.53836 5.71484,77.5 -25.47621,-6.66312 -50.95348,-4.58431 -76.42969,-5 C 453.53546,343.63242 438.65676,326.13139 412.14258,310 c -0.096,-16.60579 -6.23074,-35.79877 -10.71485,-54.28516 1.81822,18.7641 5.49947,39.0178 4.28711,55.35743 -14.20811,11.10757 -32.29054,14.46734 -48.92968,20.71289 18.85709,-3.24288 38.99708,-5.97248 51.42968,-11.78516 19.67373,9.72392 60.60522,40.49449 38.92774,53.21484 -17.50371,14.71756 -35.39355,24.78718 -53.57031,31.42774 L 340.71484,397.5 c 15.48632,5.46833 36.89586,6.32819 46.42774,16.42773 1.75986,14.86024 -6.18904,28.33347 -9.28516,42.5 6.73179,-13.79826 14.71302,-25.09724 19.64258,-42.5 16.47889,-8.22784 33.20615,-17.69553 50.35742,-29.28515 9.00325,-6.04823 19.32523,-7.47896 29.64258,-8.92774 65.86503,-14.97654 100.48198,28.6769 133.21484,60.35743 25.76712,24.92065 58.99328,47.4854 60.71289,80 l 2.14454,27.85546 c 2.16933,11.7461 -1.33936,15.7522 -9.64454,13.21485 -21.3434,-9.60979 -35.85502,-34.50912 -48.1914,-27.79297 -9.74858,1.3245 -13.14051,-6.59571 -18.23047,-13.16211 -0.26721,-41.57726 -5.468,-78.04681 -67.17578,-50.50781 l -61.11328,27.27539 c -40.78791,18.20288 -64.33121,37.28145 -67.68164,65.1543 -2.21352,18.41445 -12.34955,57.8554 12.12304,73.74023 35.69337,23.16805 100.0855,-21.19517 104.04492,-33.83984 l 15.65821,-50.00196 c 8.82588,-28.18586 34.68934,-15.28606 55.55664,-16.66797 0.91865,5.0044 3.81036,7.37774 7.57617,8.58594 6.26812,12.36926 13.14416,24.45149 45.96289,24.24414 10.20348,-3.55801 21.73889,8.53651 33.83985,27.27344 10.42816,47.13725 -0.52929,87.52272 -26.26368,123.24023 -29.16529,23.63248 -50.75625,50.01821 -72.73047,76.26563 -9.28202,-0.14514 -19.23648,-0.67388 -23.99218,1.76758 -9.37429,8.57166 -9.88994,28.75906 2.52539,38.63867 9.96227,-1.21383 20.43099,-5.97062 31.0625,-11.86914 24.18123,-9.36786 43.87467,-3.77949 62.02929,6.9414 l 56.25,23.39454 c 3.71887,5.78747 9.28794,11.40687 9.64454,17.5 l -2.85743,15 8.75,-13.03711 19.64258,10.89257 -16.07226,-14.82031 c -0.3845,-5.03199 -1.94595,-10.58753 -5.35743,-16.96484 19.09331,-2.79613 38.199,-5.23754 56.96485,-17.85742 12.93921,0.93547 23.34044,3.77425 30.89258,8.75 l 10.53711,16.42968 -2.67969,-17.67968 20.17969,-7.5 -24.10743,0.89257 c -7.47156,-3.73046 -13.71305,-8.01909 -24.64257,-10.17773 15.29261,-13.01049 28.30924,-27.13654 61.42773,-26.78516 56.46799,-4.97026 111.65017,-8.98709 124.77148,18.20313 l -2.01953,-14.14258 13.88867,-0.25195 c -13.42785,-6.21721 -24.2427,-13.622 -42.42578,-17.67774 42.12666,-3.63847 69.25856,-32.46831 100.25786,-54.80078 l -26.7696,11.11133 4.5449,-23.23437 -10.6054,21.71874 c -24.68656,24.03028 -55.39716,29.58567 -85.07424,36.0879 -21.30066,4.32412 -27.7809,3.17147 -10.18164,-19.92579 10.06242,-12.37492 17.35919,-19.23793 25.30273,-28.53515 l -15.6582,8.58594 -4.03906,-18.43555 -1.01172,18.93945 c -10.29326,15.56524 -19.43986,26.70306 -29.04209,36.36703 -14.54376,10.51975 -30.93283,17.65557 -74.17861,16.96696 -4.59294,-10.60705 21.42815,-33.12812 34.27929,-48.28321 l -28.53711,22.22461 -10.85937,-20.96093 c 2.43492,15.5391 1.64827,30.86359 -10.10156,45.45703 -14.92366,19.05611 -31.0707,35.42189 -51.01368,43.43554 -19.86444,6.51209 -39.91837,9.9787 -61.11328,-4.79687 -18.85402,-13.34997 -45.18871,-36.9348 -83.42578,-32.23242 13.2652,-20.59525 39.03727,-48.26218 58.72656,-68.85743 30.16124,-34.17947 40.54838,-79.51272 33.57032,-134.64257 -6.9326,-54.25841 -11.3159,-106.29407 -2.5,-154.64258 6.25734,-34.31679 38.1071,-48.96343 67.5,-63.92774 L 825,334.28516 l -56.78516,20 -6.07226,-32.5 -2.5,36.07226 c -79.99514,59.92379 -47.32814,2.90671 -49.50586,-30.45508 11.52839,-11.36445 26.47662,-29.39193 32.7207,-40.97461 -10.92484,11.24561 -19.9024,26.38706 -33.21484,32.85743 -18.28014,-3.96849 -27.27534,-14.90107 -40.71485,-22.5 10.29056,9.2197 16.94851,19.47762 31.42969,27.5 -4.88326,56.74687 -16.25381,79.65749 -17.5,108.21484 -1.91085,43.78851 -7.23663,55.58364 -31.42969,24.64258 -24.84037,-28.63401 -56.24892,-61.1268 -95.35546,-87.85742 1.89562,-26.18896 -1.26855,-51.53406 -5,-76.78516 8.98117,-7.26604 15.78312,-20.52276 23.57031,-31.07227 -9.73493,8.20544 -18.9517,20.81161 -29.28516,23.92969 C 543.78283,272.84208 534.28202,261.64744 527.5,250 Z m 35.98242,214.68164 c 1.6022,0.0273 3.22697,0.17161 4.875,0.45117 10.56412,2.7323 18.96679,12.60663 18.76367,23.72657 1.25099,10.92029 5.78413,22.60022 -0.20117,32.99804 -6.92999,8.4889 -18.63939,0.13056 -27.60742,0.81836 -9.15485,-0.81521 -20.87456,-4.64053 -27.66992,3.91602 -5.92041,8.8015 -9.58354,19.04947 -12.54688,29.20117 -3.20454,11.96893 -5.97309,24.04881 -9.04101,36.0332 -5.05928,13.11568 -19.00109,19.10212 -30.27735,25.85742 -16.30699,7.74581 -35.11162,14.42088 -53.26953,9.84961 -13.49934,-3.78569 -22.2427,-17.7169 -21.50781,-31.48047 0.0692,-2.48122 0.49796,-4.93214 0.82812,-7.38671 2.65886,-19.36128 7.37693,-39.46866 19.4961,-55.23829 10.16749,-13.31606 24.35349,-23.09531 40.01562,-28.85546 18.37985,-8.03539 37.53593,-14.23673 55.26172,-23.75196 13.91959,-5.70511 27.39292,-16.40238 42.88086,-16.13867 z m -5.44726,331.74609 c 3.84654,-6.2e-4 6.96492,6.31572 6.96484,14.10743 8e-5,7.79171 -3.1183,14.10804 -6.96484,14.10742 -3.84578,-0.002 -6.96297,-6.31726 -6.96289,-14.10742 -8e-5,-7.79017 3.11711,-14.10587 6.96289,-14.10743 z" transform="scale(0.26458333)" sodipodi:nodetypes="cccccccccccccccccccccccccssccccccccccccccccccccccccccccccccccccccccccccccccccccsccccccccccsccccccsccccccccccccccscscsc"/>
    <path style="opacity:0.387097;fill:#ff2a2a;stroke:none;stroke-width:0.388001;stroke-linecap:round;stroke-linejoin:round;stop-color:#000000" d="m 164.9053,-13.76438 c -0.71289,46.323309 -9.37032,103.063451 53.4539,112.119566 -4.11789,19.568084 -7.21968,38.932944 -8.81989,57.997484 -2.9667,16.12398 -9.65992,17.87424 -16.03618,20.84703 -6.51216,2.59505 -8.95609,0.37265 -16.10658,-6.67618 -9.62156,-9.48478 -28.71032,-10.79619 -39.2182,0.79624 -23.41936,25.83654 -14.26995,49.8367 -5.97165,69.9755 4.5622,11.07181 20.17669,35.68971 38.57853,39.87229 20.88448,3.18733 36.08452,-7.02435 49.9794,-20.3125 11.3974,-10.35889 24.94675,-16.0104 44.36673,-8.81989 15.14528,5.60282 30.61917,11.1435 45.43584,14.43256 35.0471,7.7799 28.77733,32.21143 26.1924,53.4539 l 24.58879,1.8709 c -1.31616,-23.21455 2.62984,-47.05555 -18.70885,-67.88647 -10.60372,-6.92138 -22.15868,-12.55249 -41.15951,-14.16529 -15.40539,-1.30762 -26.04018,-10.72936 -44.8342,-16.73481 -17.56336,-3.68604 -32.58064,0.0347 -44.60119,12.47321 -13.84886,12.76787 -25.72983,27.26126 -44.22321,5.29167 -11.73699,-13.9432 -12.76647,-22.10727 -13.98512,-32.12798 1.00468,-16.79386 6.68245,-23.14199 16.25297,-20.78869 9.95553,12.60161 19.54439,26.65837 32.76829,30.77231 17.49277,5.44198 38.52516,-4.94218 55.34378,-21.99438 17.97905,-18.22875 25.16916,-34.21972 26.97524,-54.17743 1.07508,-11.87997 -1.46529,-23.54522 -4.54358,-36.08139 C 275.85524,86.916063 270.24108,67.904745 254.17332,60.135642 237.80158,52.21956 226.9002,61.541701 221.29917,75.637275 181.19184,74.431765 182.03992,20.800833 187.62321,-12.828937 Z" id="path858" sodipodi:nodetypes="ccccssscccscccsccsccsssssccc"/>
    <path style="opacity:0.998;fill:#ffd42a;stroke:none;stroke-width:0.388001;stroke-linecap:round;stroke-linejoin:round;stop-color:#000000" d="m 115.39362,161.53102 c 0.54857,1.03653 1.87467,1.6407 3.04019,1.77066 1.9147,0.2135 4.46378,-0.12108 5.51243,-1.73725 0.90301,-1.39171 0.47591,-3.65505 -0.56795,-4.94449 -0.94615,-1.16875 -2.80098,-1.7274 -4.27631,-1.43657 -1.50271,0.29623 -3.37428,2.87314 -3.4745,3.00678 -0.10023,0.13363 -0.75605,2.35418 -0.23386,3.34087 z" id="path870" sodipodi:nodetypes="sssssss"/>
    <path style="opacity:0.998;fill:#ffd42a;stroke:none;stroke-width:0.388001;stroke-linecap:round;stroke-linejoin:round;stop-color:#000000" d="m 125.95076,155.55086 c -0.3279,1.29569 -0.79925,2.99107 0.0668,4.00905 0.57185,0.67217 1.73114,0.58453 2.60588,0.46772 1.44175,-0.19253 2.87535,-0.88221 3.94222,-1.87089 1.05366,-0.97643 1.89438,-2.32608 2.13816,-3.74177 0.19202,-1.11511 0.15441,-2.49876 -0.60136,-3.34087 -0.79083,-0.88117 -2.24408,-1.22112 -3.40768,-1.00226 -1.21714,0.22893 -2.1302,1.33472 -2.93997,2.27179 -0.802,0.92809 -1.50313,2.01812 -1.80405,3.20723 z" id="path872" sodipodi:nodetypes="sssssssss"/>
    <path style="opacity:0.998;fill:#ffd42a;stroke:none;stroke-width:0.388001;stroke-linecap:round;stroke-linejoin:round;stop-color:#000000" d="m 124.48078,146.39688 c -0.41763,1.08025 -0.69936,2.55133 0,3.47451 0.44707,0.59015 1.41195,0.74546 2.13816,0.60135 1.16689,-0.23157 2.34626,-1.10788 2.80633,-2.20497 0.38999,-0.92996 0.27304,-2.20159 -0.33409,-3.00678 -0.56526,-0.74966 -1.69,-1.27565 -2.60588,-1.06908 -0.96897,0.21855 -1.64634,1.27849 -2.00452,2.20497 z" id="path874" sodipodi:nodetypes="sssssss"/>
    <path style="opacity:0.998;fill:#ffd42a;stroke:none;stroke-width:0.388001;stroke-linecap:round;stroke-linejoin:round;stop-color:#000000" d="m 116.52951,152.47726 c 1.0939,-1.24661 2.99247,-2.23553 4.6104,-1.87088 0.70739,0.15943 1.43215,0.87947 1.46998,1.60362 0.0391,0.74734 -0.65738,1.48933 -1.33634,1.80406 -0.9315,0.43179 -2.04702,-0.21654 -3.0736,-0.20045 -0.69359,0.0109 -1.62127,0.72829 -2.07134,0.20045 -0.3435,-0.40285 0.0517,-1.13887 0.4009,-1.5368 z" id="path876" sodipodi:nodetypes="sssssss"/>
    <path style="opacity:0.998;fill:#ffd42a;stroke:none;stroke-width:0.388001;stroke-linecap:round;stroke-linejoin:round;stop-color:#000000" d="m 112.85456,152.87817 c -1.30394,0.10321 -2.38701,-1.45837 -2.87315,-2.6727 -0.41464,-1.03571 -0.37806,-2.38696 0.20045,-3.34087 0.60609,-0.9994 1.87169,-1.52529 3.00678,-1.80407 0.73668,-0.18093 1.73331,-0.40065 2.27179,0.13364 0.95073,0.94333 0.66114,2.72895 0.26727,4.00904 -0.45727,1.48617 -1.32306,3.55227 -2.87314,3.67496 z" id="path878" sodipodi:nodetypes="sssssss"/>
    <path style="opacity:0.998;fill:#ffd42a;stroke:none;stroke-width:0.388001;stroke-linecap:round;stroke-linejoin:round;stop-color:#000000" d="m 132.6325,146.12961 c -1.41602,-0.99952 -1.98164,-2.96842 -2.27179,-4.67721 -0.16141,-0.95056 -0.2703,-2.12193 0.33409,-2.87315 0.9007,-1.11953 2.66519,-1.67633 4.07586,-1.40317 0.86807,0.16809 1.62511,0.93861 2.00452,1.73726 0.63106,1.32838 0.50922,2.98805 0.13363,4.40994 -0.30631,1.15963 -0.79438,2.5447 -1.87088,3.0736 -0.72407,0.35575 -1.74634,0.19796 -2.40543,-0.26727 z" id="path880" sodipodi:nodetypes="ssssssss"/>
    <path style="opacity:0.998;fill:#ffd42a;stroke:none;stroke-width:0.388001;stroke-linecap:round;stroke-linejoin:round;stop-color:#000000" d="m 146.8646,136.04019 c -0.61764,-0.67958 -1.20902,-1.63147 -1.06908,-2.53906 0.17818,-1.1556 1.12309,-2.45449 2.2718,-2.6727 1.43901,-0.27335 3.07805,0.84264 3.8754,2.07134 0.68069,1.04893 1.07625,2.78827 0.26728,3.74177 -0.78142,0.92103 -2.42455,0.57501 -3.60814,0.33409 -0.64448,-0.13118 -1.2949,-0.44873 -1.73726,-0.93544 z" id="path882" sodipodi:nodetypes="sssssss"/>
    <path style="opacity:0.567742;fill:#aa4400;stroke:none;stroke-width:0.388001;stroke-linecap:round;stroke-linejoin:round;stop-color:#000000" d="m 79.913587,190.56317 c 12.531664,-6.00527 36.015743,-30.2119 47.306703,-55.05752 5.39351,-9.61878 14.72597,-9.88256 24.05426,-10.15624 34.44952,6.94412 57.88253,-5.39067 80.44813,-19.24341 16.83809,-15.269935 35.89076,-29.211118 38.21955,-53.186635 -0.15015,-5.302381 -1.5018,-9.439676 -7.48356,-9.087162 -58.05411,13.870422 -90.8219,6.247463 -120.80582,-3.741775 -12.92803,-5.837049 -24.38134,-2.23584 -35.54685,3.207234 -32.554118,19.572892 -35.967011,45.390331 -41.159505,70.826428 -1.357857,20.79655 -0.59354,42.80577 5.078121,67.61919 1.044433,4.64829 1.746949,9.55597 9.888971,8.81989 z" id="path862" sodipodi:nodetypes="ccccccccccc"/>
    <path style="opacity:0.697;mix-blend-mode:normal;fill:none;stroke:#ff0000;stroke-width:1.288;stroke-linecap:round;stroke-linejoin:round;stroke-miterlimit:4;stroke-dasharray:5.152, 5.152;stroke-dashoffset:0;stop-color:#000000" d="m 164.9053,-13.76438 c -0.71289,46.323309 -9.37032,103.063451 53.4539,112.119566 -4.11789,19.568084 -7.21968,38.932944 -8.81989,57.997484 -2.9667,16.12398 -9.65992,17.87424 -16.03618,20.84703 -6.51216,2.59505 -8.95609,0.37265 -16.10658,-6.67618 -9.62156,-9.48478 -28.71032,-10.79619 -39.2182,0.79624 -23.41936,25.83654 -14.26995,49.8367 -5.97165,69.9755 4.5622,11.07181 20.17669,35.68971 38.57853,39.87229 20.88448,3.18733 36.08452,-7.02435 49.9794,-20.3125 11.3974,-10.35889 24.94675,-16.0104 44.36673,-8.81989 15.14528,5.60282 30.61917,11.1435 45.43584,14.43256 35.0471,7.7799 28.77733,32.21143 26.1924,53.4539 l 24.58879,1.8709 c -1.31616,-23.21455 2.62984,-47.05555 -18.70885,-67.88647 -10.60372,-6.92138 -22.15868,-12.55249 -41.15951,-14.16529 -15.40539,-1.30762 -26.04018,-10.72936 -44.8342,-16.73481 -17.56336,-3.68604 -32.58064,0.0347 -44.60119,12.47321 -13.84886,12.76787 -25.72983,27.26126 -44.22321,5.29167 -11.73699,-13.9432 -12.76647,-22.10727 -13.98512,-32.12798 1.00468,-16.79386 6.68245,-23.14199 16.25297,-20.78869 9.95553,12.60161 19.54439,26.65837 32.76829,30.77231 17.49277,5.44198 38.52516,-4.94218 55.34378,-21.99438 17.97905,-18.22875 25.16916,-34.21972 26.97524,-54.17743 1.07508,-11.87997 -1.46529,-23.54522 -4.54358,-36.08139 C 275.85524,86.916063 270.24108,67.904745 254.17332,60.135642 237.80158,52.21956 226.9002,61.541701 221.29917,75.637275 181.19184,74.431765 182.03992,20.800833 187.62321,-12.828937 Z" id="path884" sodipodi:nodetypes="ccccssscccscccsccsccsssssccc"/>
  </g>
  <g inkscape:groupmode="layer" id="layer3" inkscape:label="Layer 3" sodipodi:insensitive="true">
    <switch style="font-size:12.7px;line-height:1.25;font-family:sans-serif;stroke-width:0.264583"><text xml:space="preserve" style="font-size:12.7px;line-height:1.25;font-family:sans-serif;stroke-width:0.264583" x="232.07738" y="17.953869" id="text893-zh" systemLanguage="zh"><tspan sodipodi:role="line" id="tspan891-zh" x="232.07738" y="17.953869" style="font-size:12.7px;stroke-width:0.264583">(食道)</tspan></text><text xml:space="preserve" style="font-size:12.7px;line-height:1.25;font-family:sans-serif;stroke-width:0.264583" x="232.07738" y="17.953869" id="text893"><tspan sodipodi:role="line" id="tspan891" x="232.07738" y="17.953869" style="font-size:12.7px;stroke-width:0.264583">(Esophagus)</tspan></text></switch>
    
    <switch style="font-size:12.7px;line-height:1.25;font-family:sans-serif;stroke-width:0.264583"><text xml:space="preserve" style="font-size:12.7px;line-height:1.25;font-family:sans-serif;stroke-width:0.264583" x="292.09732" y="71.405075" id="text922-zh" systemLanguage="zh"><tspan sodipodi:role="line" id="tspan920-zh" x="292.09732" y="71.405075" style="font-size:12.7px;stroke-width:0.264583">(胃)</tspan></text><text xml:space="preserve" style="font-size:12.7px;line-height:1.25;font-family:sans-serif;stroke-width:0.264583" x="292.09732" y="71.405075" id="text922"><tspan sodipodi:role="line" id="tspan920" x="292.09732" y="71.405075" style="font-size:12.7px;stroke-width:0.264583">(Stomach)</tspan></text></switch>
    <switch style="font-size:12.7px;line-height:1.25;font-family:sans-serif;stroke-width:0.264583"><text xml:space="preserve" style="font-size:12.7px;line-height:1.25;font-family:sans-serif;stroke-width:0.264583" x="223.43732" y="131.76387" id="text926-zh" systemLanguage="zh"><tspan sodipodi:role="line" id="tspan924-zh" x="223.43732" y="131.76387" style="font-size:12.7px;stroke-width:0.264583">總膽管</tspan><tspan sodipodi:role="line" x="223.43732" y="147.63887" style="font-size:12.7px;stroke-width:0.264583" id="tspan928-zh"> </tspan></text><text xml:space="preserve" style="font-size:12.7px;line-height:1.25;font-family:sans-serif;stroke-width:0.264583" x="223.43732" y="131.76387" id="text926"><tspan sodipodi:role="line" id="tspan924" x="223.43732" y="131.76387" style="font-size:12.7px;stroke-width:0.264583">Common</tspan><tspan sodipodi:role="line" x="223.43732" y="147.63887" style="font-size:12.7px;stroke-width:0.264583" id="tspan928">bile duct</tspan></text></switch>
    <switch style="font-size:12.7px;line-height:1.25;font-family:sans-serif;stroke-width:0.264583"><text xml:space="preserve" style="font-size:12.7px;line-height:1.25;font-family:sans-serif;stroke-width:0.264583" x="317.78345" y="169.18159" id="text932-zh" systemLanguage="zh"><tspan sodipodi:role="line" id="tspan930-zh" x="317.78345" y="169.18159" style="font-size:12.7px;stroke-width:0.264583">胰臟</tspan></text><text xml:space="preserve" style="font-size:12.7px;line-height:1.25;font-family:sans-serif;stroke-width:0.264583" x="317.78345" y="169.18159" id="text932"><tspan sodipodi:role="line" id="tspan930" x="317.78345" y="169.18159" style="font-size:12.7px;stroke-width:0.264583">Pancreas</tspan></text></switch>
    <switch style="font-size:12.7px;line-height:1.25;font-family:sans-serif;stroke-width:0.264583"><text xml:space="preserve" style="font-size:12.7px;line-height:1.25;font-family:sans-serif;stroke-width:0.264583" x="198.58127" y="297.47098" id="text936-zh" systemLanguage="zh"><tspan sodipodi:role="line" id="tspan934-zh" x="198.58127" y="297.47098" style="font-size:12.7px;stroke-width:0.264583">(小腸)</tspan></text><text xml:space="preserve" style="font-size:12.7px;line-height:1.25;font-family:sans-serif;stroke-width:0.264583" x="198.58127" y="297.47098" id="text936"><tspan sodipodi:role="line" id="tspan934" x="198.58127" y="297.47098" style="font-size:12.7px;stroke-width:0.264583">(Small intestine)</tspan></text></switch>
    <switch style="font-size:12.7px;line-height:1.25;font-family:sans-serif;stroke-width:0.264583"><text xml:space="preserve" style="font-size:12.7px;line-height:1.25;font-family:sans-serif;stroke-width:0.264583" x="16.630953" y="274.03275" id="text940-zh" systemLanguage="zh"><tspan sodipodi:role="line" id="tspan938-zh" x="16.630953" y="274.03275" style="font-size:12.7px;stroke-width:0.264583">                   胰管</tspan></text><text xml:space="preserve" style="font-size:12.7px;line-height:1.25;font-family:sans-serif;stroke-width:0.264583" x="16.630953" y="274.03275" id="text940"><tspan sodipodi:role="line" id="tspan938" x="16.630953" y="274.03275" style="font-size:12.7px;stroke-width:0.264583">Pancreatic duct</tspan></text></switch>
    <switch style="font-size:12.7px;line-height:1.25;font-family:sans-serif;stroke-width:0.264583"><text xml:space="preserve" style="font-size:12.7px;line-height:1.25;font-family:sans-serif;stroke-width:0.264583" x="24.568451" y="213.93451" id="text944-zh" systemLanguage="zh"><tspan sodipodi:role="line" id="tspan942-zh" x="24.568451" y="213.93451" style="font-size:12.7px;stroke-width:0.264583">        膽囊管</tspan></text><text xml:space="preserve" style="font-size:12.7px;line-height:1.25;font-family:sans-serif;stroke-width:0.264583" x="24.568451" y="213.93451" id="text944"><tspan sodipodi:role="line" id="tspan942" x="24.568451" y="213.93451" style="font-size:12.7px;stroke-width:0.264583">Cystic duct</tspan></text></switch>
    <switch style="font-size:12.7px;line-height:1.25;font-family:sans-serif;stroke-width:0.264583"><text xml:space="preserve" style="font-size:12.7px;line-height:1.25;font-family:sans-serif;stroke-width:0.264583" x="13.607142" y="119.81845" id="text948-zh" systemLanguage="zh"><tspan sodipodi:role="line" id="tspan946-zh" x="13.607142" y="119.81845" style="font-size:12.7px;stroke-width:0.264583">           膽囊</tspan></text><text xml:space="preserve" style="font-size:12.7px;line-height:1.25;font-family:sans-serif;stroke-width:0.264583" x="13.607142" y="119.81845" id="text948"><tspan sodipodi:role="line" id="tspan946" x="13.607142" y="119.81845" style="font-size:12.7px;stroke-width:0.264583">Gallbladder</tspan></text></switch>
    <switch style="font-size:12.7px;line-height:1.25;font-family:sans-serif;stroke-width:0.264583"><text xml:space="preserve" style="font-size:12.7px;line-height:1.25;font-family:sans-serif;stroke-width:0.264583" x="24.568451" y="33.639881" id="text952-zh" systemLanguage="zh"><tspan sodipodi:role="line" id="tspan950-zh" x="24.568451" y="33.639881" style="font-size:12.7px;stroke-width:0.264583">    肝</tspan></text><text xml:space="preserve" style="font-size:12.7px;line-height:1.25;font-family:sans-serif;stroke-width:0.264583" x="24.568451" y="33.639881" id="text952"><tspan sodipodi:role="line" id="tspan950" x="24.568451" y="33.639881" style="font-size:12.7px;stroke-width:0.264583">Liver</tspan></text></switch>
    <path style="opacity:1;fill:none;fill-opacity:1;stroke:#000000;stroke-width:1.088;stroke-linecap:round;stroke-linejoin:round;stroke-miterlimit:4;stroke-dasharray:none;stroke-dashoffset:0;stop-color:#000000" d="M 57.195677,32.072344 89.53529,61.471992" id="path968"/>
    <path style="opacity:1;fill:none;fill-opacity:1;stroke:#000000;stroke-width:1.088;stroke-linecap:round;stroke-linejoin:round;stroke-miterlimit:4;stroke-dasharray:none;stroke-dashoffset:0;stop-color:#000000" d="m 87.129865,116.93042 31.136895,19.77794" id="path970"/>
    <path style="opacity:1;fill:none;fill-opacity:1;stroke:#000000;stroke-width:1.088;stroke-linecap:round;stroke-linejoin:round;stroke-miterlimit:4;stroke-dasharray:none;stroke-dashoffset:0;stop-color:#000000" d="M 156.86012,141.36309 97.517856,208.64285" id="path972"/>
    <path style="opacity:1;fill:none;fill-opacity:1;stroke:#000000;stroke-width:1.088;stroke-linecap:round;stroke-linejoin:round;stroke-miterlimit:4;stroke-dasharray:none;stroke-dashoffset:0;stop-color:#000000" d="m 117.17262,269.875 53.67262,-54.42858" id="path974"/>
    <path style="opacity:1;fill:none;fill-opacity:1;stroke:#000000;stroke-width:1.088;stroke-linecap:round;stroke-linejoin:round;stroke-miterlimit:4;stroke-dasharray:none;stroke-dashoffset:0;stop-color:#000000" d="m 312.96427,165.93155 -34.39583,15.49702" id="path976"/>
    <path style="opacity:1;fill:none;fill-opacity:1;stroke:#000000;stroke-width:1.088;stroke-linecap:round;stroke-linejoin:round;stroke-miterlimit:4;stroke-dasharray:none;stroke-dashoffset:0;stop-color:#000000" d="m 212.80059,281.21427 40.44346,-41.19939" id="path978"/>
    <path style="opacity:1;fill:none;fill-opacity:1;stroke:#000000;stroke-width:1.088;stroke-linecap:round;stroke-linejoin:round;stroke-miterlimit:4;stroke-dasharray:none;stroke-dashoffset:0;stop-color:#000000" d="M 287.2619,69.925593 265.33927,82.398808" id="path980"/>
    <path style="opacity:1;fill:none;fill-opacity:1;stroke:#000000;stroke-width:1.088;stroke-linecap:round;stroke-linejoin:round;stroke-miterlimit:4;stroke-dasharray:none;stroke-dashoffset:0;stop-color:#000000" d="m 227.54166,12.095238 -48.75892,7.181548" id="path982"/>
    <path style="opacity:1;fill:none;fill-opacity:1;stroke:#000000;stroke-width:1.088;stroke-linecap:round;stroke-linejoin:round;stroke-miterlimit:4;stroke-dasharray:none;stroke-dashoffset:0;stop-color:#000000" d="m 219.60416,137.96131 -38.55357,13.60714" id="path984"/>
  </g>
</svg>
