<?xml version="1.0" encoding="utf-8"?>
<!-- Generator: Adobe Illustrator 16.0.3, SVG Export Plug-In . SVG Version: 6.00 Build 0)  -->
<svg version="1.1" xmlns="http://www.w3.org/2000/svg" width="1100px" height="950px">
<path fill="#DCDCD4" d="M406.922,265.015c17.509-29.221,29.502-89.695,33.941-145.664l57.273-6.364l55.154,7.778l62.933-15.557l133.646,21.213l26.162,7.071c-10.803,20.402-18.401,40.167-19.799,58.688l-6.363,36.063c0.29,10.785,2.083,20.07,4.242,28.989l-0.707,72.124l2.828,23.335l-70.004-49.497L554,260.065l-48.083,21.213l-52.326,76.367l-18.385-7.07L406.922,265.015z"/>
<g fill="#A7A69C">
	<path d="M514.949,124c-0.267,32.182,0.992,64.365,2,96.529c0,0-1.267-64.381-1-96.529H514.949z"/>
	<path d="M502.449,260.5h1c-0.721-25.843-1.105-53.71-0.5-87.5C502.949,173,501.729,234.65,502.449,260.5z"/>
	<path d="M448.449,347.406l1,0.188c7.92-38.494,16.586-77.004,22-115.531C471.449,232.063,456.372,308.9,448.449,347.406z"/>
	<path d="M425.48,308.344l0.938,0.313c4.576-14.575,9.131-29.106,15-44.969C441.418,263.688,430.057,293.768,425.48,308.344z"/>
	<path d="M638.48,120.875c-3.799,14.3-6.742,28.337-8.938,42.154c0,0,6.088-27.641,9.875-41.904L638.48,120.875z M624.449,249.531l1-0.063c-0.488-14.791-0.364-29.756,0.563-44.969C626.012,204.5,623.96,234.712,624.449,249.531z"/>
	<path d="M652.012,169c-1.892,12.989-3.059,25.634-3.656,38.438c-0.475,10.165-0.588,20.437-0.404,31.063c0,0,0.933-20.858,1.404-31c0.599-12.773,1.771-25.388,3.656-38.346c1.603-10.988,3.725-22.221,6.438-34.029C659.449,135.125,653.616,157.982,652.012,169z"/>
	<path d="M690.668,223c0.146,20.508,1.498,40.808,3.281,61.029l1-0.063c-1.781-20.209-3.135-40.5-3.281-60.969c-0.126-17.646,0.65-35.428,2.781-53.438C694.449,169.563,690.542,205.323,690.668,223z"/>
	<path d="M716.949,128.375c-10.174,44.383-7.87,87.111-6,130.154c0,0-0.762-38.682-0.602-58.04c0.199-23.691,2.021-47.53,7.602-71.864L716.949,128.375z"/>
	<path d="M735.98,134.875c-6.141,22.858-7.127,42.257-9.531,62.563c0,0,4.357-39.563,10.469-62.313L735.98,134.875z"/>
	<path d="M731.846,279.01c1.786,17.693,4.537,35.375,7.104,53.053l1-0.125c-4.526-31.173-9.617-62.332-9-93.438C730.949,238.5,730.482,265.515,731.846,279.01z"/>
	<path d="M587.48,128.375c-7.104,26.321-10.563,52.022-12.5,77.469c-0.652,8.568-1.14,17.103-1.531,25.625c0,0,1.879-16.976,2.531-25.531c1.937-25.406,5.354-51.066,12.438-77.313L587.48,128.375z"/>
	<path d="M532.449,129.438c-3.508,22.38-3.46,42.943-4.5,64.031c0,0,2.008-41.62,5.5-63.906L532.449,129.438z"/>
</g>
<g fill="none" stroke="#A7A69C">
	<path d="M509.449,122.5c-2.955,44.522,0.431,87.778,4,131"/>
	<path d="M477.949,120.5c-13.933,57.197-29.238,114.854-55,176"/>
	<path d="M499.449,120l-9.5,155.5"/>
	<path d="M484.949,120l-54.5,199.5"/>
	<path d="M493.449,120c-9.071,61.785-26.045,201.771-26.5,202"/>
	<path d="M489.949,120c-16.08,73.876-32.771,147.445-51.5,220"/>
	<path d="M725.949,131.5c-12.642,63.133-6.56,120.505-2.5,178.5"/>
	<path d="M706.449,126.5c-8.695,63.86-6.904,117.236-1,166.5"/>
	<path d="M686.449,124.5c-5.375,50.577-7.924,100.751-4,150"/>
	<path d="M670.949,119.5c-9.594,46.833-13.572,93.666-12.5,140.5"/>
	<path d="M651.449,119c-9.59,44.333-15.854,88.666-13.5,133"/>
	<path d="M628.449,120.5c-11.012,42.631-16.981,84.699-16,126"/>
	<path d="M602.949,124.5c-10.426,39.928-17.217,79.399-17,118"/>
	<path d="M576.449,126.5c-11.309,39.494-16.026,77.672-14,114.5"/>
	<path d="M546.949,134c-7.48,36.5-7.898,73-7.5,109.5"/>
	<path d="M618.449,116c-14.551,42.5-19.069,85-19,127.5"/>
	<path d="M677.949,121c-6.734,50.634-8.247,99.524-7,147.5"/>
	<path d="M562.449,129c-11.537,38.521-11.711,75.78-11.5,113"/>
	<path d="M459.955,124.3c-10.84,57.044-27.078,107.536-45.255,145.664"/>
	<path d="M445.813,125.007c-2.228,52.115-17.425,94.967-32.524,137.886"/>
</g>
<path fill-opacity="0.7" d="M646.199,256.5c4.341-0.456,4.974-2.304,4-4.75c3.416-1.059,6.322-2.793,7.75-6.5c0.553,2.994,2.716,3.308,5.25,3l0.25,16L646.199,256.5z"/>
<path fill="#C80000" stroke="#000" d="M724.168,231.781c-13.326-0.391-24.668,4.765-34.656,9.531c-11.415,5.449-21.082,10.189-30.875,8.969c-4.701-0.742-6.938,10.044-1.375,10.938c13.957,1.739,25.79-4.648,37-10c11.21-5.354,21.766-9.891,34.125-8.031c4.061,0.305,6.851-9.471,1.625-10.875C728.025,232.014,726.072,231.837,724.168,231.781z"/>
<path fill-opacity="0.15" d="M440.156,122.886l-2.121,24.749c1.141-4.153,4.223-7.012,11.271-7.229c3.884-0.116,9.212,9.494,11.6,18.277l8.948-36.506C460.396,124.182,451.398,128.023,440.156,122.886z"/>
<path fill="none" stroke="#000" d="M406.922,265.015c17.509-29.221,29.502-89.695,33.941-145.664l57.273-6.364l55.154,7.778l62.933-15.557l133.646,21.213l26.162,7.071c-10.803,20.402-18.401,40.167-19.799,58.688l-6.363,36.063c0.29,10.785,2.083,20.07,4.242,28.989l-0.707,72.124l2.828,23.335l-70.004-49.497L554,260.065l-48.083,21.213l-52.326,76.367l-18.385-7.07L406.922,265.015z"/>
<path fill="none" stroke="#000" d="M416.114,287.642c16.757-43.947,39.628-103.796,53.739-168.998l53.032,2.828c-1.632,50.006,1.353,94.243,9.899,131.521l-43.841,33.939L464.902,343.5l-13.437,14.143l-15.557-9.191L416.114,287.642z"/>
<path fill="#DCDCD4" d="M381.949,580l4,15l2,2l17-2l20,30l60,32l60-32l54-37l26-5l-54-66l-96-17l-48,17L381.949,580z"/>
<path fill="#A7A69C" d="M419.98,600.313l0.938,0.375c3.572-8.98,5.719-15.137,8-21.531C428.918,579.156,423.546,591.35,419.98,600.313z"/>
<path fill="#A7A69C" d="M424.449,530.438l-3,27.5l4-27.375L424.449,530.438z"/>
<path fill="#A7A69C" d="M551.449,522.469c-0.805,9.893,0.408,19.357,2.406,28.656c1.989,9.263,4.776,18.352,7.125,27.5c0,0-4.18-18.513-6.156-27.721c-1.986-9.242-3.168-18.613-2.375-28.375L551.449,522.469z"/>
<g fill="none" stroke="#A7A69C">
	<path d="M528.949,515.5c9.361,60.146,22.863,82.316,29.5,91"/>
	<path d="M544.449,520.5c-3.396,28.119,9.904,53.46,22,79"/>
	<path d="M558.449,525.5c0.533,23.325,8.084,45.483,16.5,67.5"/>
	<path d="M573.949,532.5c-0.176,18.801,5.074,36.518,11.5,54"/>
	<path d="M590.949,549c-2.234,10.666,0.613,21.332,5,32"/>
	<path d="M449.949,517c-7.375,29.666-13.396,59.332-24.5,89"/>
	<path d="M434.449,524c-4.366,23.5-7.297,47-18,70.5"/>
	<path d="M416.449,539c-0.916,16.332-1.15,32.666-8.5,49"/>
	<path d="M399.949,561.5c1.944,8,3.129,16-1.5,24"/>
	<path d="M388.449,577c3.358,1.902,4.473,4.93,2.5,9.5"/>
</g>
<path fill-opacity="0.15" d="M455.949,516l-32.825,6.423c0,0-25.1,56.754-19.366,49.062c2.587-3.472,18.217,13.132,20.305,9.052c2.082-4.067-5.357-33.142,5.201-44.3c9.604-10.146,24.342-17.3,21.191,6.474c-3.486,16.903-7.163,33.301-12.063,46.438c-3.313,8.894-11.188-11.706-15.942-6.647l10,37l12.5-39.5l10-51L455.949,516z"/>
<path fill-opacity="0.15" d="M514.449,512l6,29l13,42l14.5,31.5l22-49c-6.637-7.729-14.979,18.392-21.271,9.375c-7.748-11.104-14.663-23.179-19.336-36.193c-3.84-14.904,7.88-13.141,22.272-8.081c4.522,1.59,9.884,2.813,12.69,5.742c10.45,10.9-3.188,22.485,3.058,30.896c7.48,10.077,31.497,0.313,38.753,6.834l9.63-3.303l-36.354-39.969L523.449,512H514.449z"/>
<path fill="none" stroke="#000" d="M381.949,580l4,15"/>
<path fill="#C2C199" d="M757.949,196c0.375,8.25-0.833,25.845-7.5,33c-5.125,5.5-11.125,5.25-15-1s-7.241-19.024-0.5-24C742.191,198.655,757.615,188.654,757.949,196z"/>
<path fill="#DAD9BB" d="M408.336,762.818c83.688,35.03,154.164,29.836,239.709,4.949c8.623-2.508,3.407-10.532,4.104-19.865c0.719-9.594,4.688-21.827,0.849-21.146c-86.144,15.17-186.854,11.146-251.023-7.778C394.779,716.856,401.468,759.943,408.336,762.818z"/>
<path fill-opacity="0.15" d="M629.66,728.875l24.042,6.363l-2.828,14.144l3.535,12.729l-2.828,4.242l-24.63,6.795c7.086-14.536,1.279-22.04-12.349-25.278c-5.023-4.32-6.986-13.499,0.914-16.165L629.66,728.875z"/>
<path fill="#DAD9BB" d="M409.836,837.318c83.688,35.03,152.164,30.336,237.709,5.449c8.623-2.508,7.284-41.229,3.45-40.512c-86.378,16.108-181.851,11.634-245.023-11.278C398.922,788.42,402.968,834.443,409.836,837.318z"/>
<path fill="none" stroke="#000" stroke-width="2" d="M408.336,762.818c83.688,35.03,154.164,29.836,239.709,4.949c8.623-2.508,3.407-10.532,4.104-19.865c0.719-9.594,4.688-21.827,0.849-21.146c-86.144,15.17-186.854,11.146-251.023-7.778C394.779,716.856,401.468,759.943,408.336,762.818z"/>
<path fill="#DAD9BB" d="M374.449,619c4.832-49.363,39.057-32.401,47.5-17c40.603,74.06,82.013,47.259,120,15c45.82-38.912,98.518-57.707,148-86l25,107l-14-4c-21.732,41.728-3.524,92.188-48,112c-27.708-8.786-45.768-53.164-89-45c-47.842,9.03-93.885,19.077-150-1c-8.395-3.006-14.332,7.835-18,17c-12.368-20.642-13.188-43.435-16.753-62.259C377.05,643.416,373.197,631.791,374.449,619z"/>
<path fill="#DAD9BB" d="M411.336,915.818c83.688,35.03,150.164,32.836,235.709,7.949c8.623-2.508,7.77-47.301,3.95-46.512c-86.997,17.969-180.063,13.771-242.523-11.278C401.512,863.185,404.468,912.943,411.336,915.818z"/>
<path fill="#ECECEE" d="M437.449,39c-16.5-2.75-5.787-24.487,14-13c7.809,4.53,15.57,14.274,15.5,18c4.876,2.063,6.935-0.048,26-10c19.875-10.375,29.298-14.09,59.5,0.5c30.004,14.493,46.117,15.269,73,17.5c9.363-2.06,36.648-28.246,53.893-11.405C689.885,50.891,642.811,68.094,647.949,73c24.846,17.975,51.396,23.494,67,26.5c24.145,4.649,47.808-7.659,59.119-4.995c25.771,6.067,11.725,39.634-0.119,41.995c-18.7,3.728-25.354,0.945-40-2c-11.746-2.364-22.599-10.036-32.913-9.76c-25.493,0.702-22.345-4.992-41.087-6.24c-16.98-1.132-27.958,7.976-41-4c0,0-10.744,16.932-42.012,12.957c-11.052-1.404-20.563,6.44-25.988,6.043c-23.902-1.764-46.93-22.385-88.5-9.5c-11.253,3.485-14.422,3.609-25.5-3.5c-7.146-4.586-18.291-36.668-6-55.5C438.217,53.865,441.89,45.131,437.449,39z"/>
<path fill-opacity="0.15" d="M585.113,586.746l29.697-17.678l72.125-28.284l31.818,67.177l-26.163,41.012c0,0-17.687-83.006-40.305-63.641c-19.872,17.017-27.243,16.927-40.306,6.363C603.675,584.98,585.113,586.746,585.113,586.746z"/>
<path fill="none" stroke="#000" stroke-width="2" d="M374.449,619c4.832-49.363,39.057-32.401,47.5-17c40.603,74.06,82.013,47.259,120,15c45.82-38.912,98.518-57.707,148-86l25,107l-14-4c-21.732,41.728-3.524,92.188-48,112c-27.708-8.786-45.768-53.164-89-45c-47.842,9.03-93.885,19.077-150-1c-8.395-3.006-14.332,7.835-18,17c-12.368-20.642-13.188-43.435-16.753-62.259C377.05,643.416,373.197,631.791,374.449,619z"/>
<path fill="#DCDCD4" d="M652.995,755.037l-11.495-6.2c-6.317-4.933-12.636-4.98-18.953-3.279
	c-6.345-1.881-11.135-5.316-22.492-2.188c-6.908-2.236-13.938-3.987-22.158-0.979c-7.793-2.696-15.754-4.563-24.861-0.682
	c-8.905-2.224-17.442-2.97-25.021,0.118c-5.483-2.102-12.908-3.039-25.033-1.156c-8.666-3.832-17.334-3.973-26-2.489
	c-6.094-3.365-12.756-5.31-21.493-2.06c-5.986-4.646-13.251-5.451-21.904-2.099c-5.389-3.341-11.387-3.636-18.109-0.311
	c-3.385-3.372-8.243-3.802-15.621,0.813c-2.289-10.843-7.331-21.685-11.314-32.525c6.847,1.093,11.454-0.613,12.97-6.186
	c6.313,0.801,12.813,1.884,16.541-1.188c6.589,7.215,11.607,4.996,16.933,4.624c6.284,2.857,12.568,6.514,18.854,4.257
	c8.743,1.925,17.487,4.594,26.23,1.396c12.771,3.051,23.729,2.471,32.505-2.479c9.258,2.511,17.626,0.576,25.554-3.563
	c9.838,3.526,17.396,0.212,24.604-4.158c7.396,0.726,14.793,1.302,22.188-0.592c7.021,6.061,14.038,6.985,21.058,7.83
	c4.18,8.267,10.148,12.942,18.325,13.209c3.541,6.265,9.463,9.553,18.336,9.15c4.979,5.675,12.699,3.119,20.264,1.034
	C654.957,735.24,652.979,745.14,652.995,755.037z"/>
<path fill-opacity="0.15" d="M698.25,631.295c-13.824-44.752-38.751-61.75-71.418-59.396l69.297-37.477l25.455,70.004L698.25,631.295z"/>
<path fill="none" stroke="#000" d="M735.02,227.537c5.238,12.729,6.549,25.456,4.242,38.185"/>
<path fill="#DAD9BB" d="M395.949,277c-5.188,14.159-13.958,42.184-25,66c-13.346,28.783-7.795,41.286-3,60
	c24.204,94.438,8.174,123.18,2,137c-12.86,28.786-5.352,49.468,7.451,46.022c12.07-3.247,25.55-26.298,39.549-47.022
	c22.499-33.313,102.347-36.966,158-5c24.207,13.9,35.018,73.854,81,31c15.186-14.153,33.562,14.146,42.632,31.882
	c6.801,13.297-5.211,32.728-7.632,42.118c-1.407,4.003,0.367,8.233,3.626,11.521c5.941,5.998,16.829,8.858,22.374,1.479
	c38.166-50.812,26.272-98.952,31-132c9.154-64.027,59.46-112.82,40-165c-6.104-16.368-11-30-11-30
	c-9.642-49.806-36.18-96.032-37.982-55.023c-0.574,13.042,6.512,35.564,10.982,75.023c0,0-50.163-78.185-120-94
	c-102.558-23.229-116.344-0.585-139,25c-31.69,35.783-37.771,136.097-71,11c-4.795-18.056-6.242-17.724-8-28
	C410.854,252.593,401.028,263.131,395.949,277z"/>
<path fill="none" stroke="#A7A69C" d="M741.949,233.25l3.25,20.75"/>
<path fill="none" stroke="#000" stroke-width="2" d="M395.949,277c-5.188,14.159-13.958,42.184-25,66
	c-13.346,28.783-7.795,41.286-3,60c24.204,94.438,8.174,123.18,2,137c-12.86,28.786-5.352,49.468,7.451,46.022
	c12.07-3.247,25.55-26.298,39.549-47.022c22.499-33.313,102.347-36.966,158-5c24.207,13.9,35.018,73.854,81,31
	c15.186-14.153,33.562,14.146,42.632,31.882c6.801,13.297-5.211,32.728-7.632,42.118c-1.407,4.003,0.367,8.233,3.626,11.521
	c5.941,5.998,16.829,8.858,22.374,1.479c38.166-50.812,26.272-98.952,31-132c9.154-64.027,59.46-112.82,40-165
	c-6.104-16.368-11-30-11-30c-16.797-75.991-35.284-84.511-37.438-56.599c-1.274,16.539,8.65,43.251,10.438,76.599
	c0,0-50.163-78.185-120-94c-102.558-23.229-116.344-0.585-139,25c-31.69,35.783-37.771,136.097-71,11
	c-4.795-18.056-6.242-17.724-8-28C410.854,252.593,401.028,263.131,395.949,277z"/>
<path fill="#DCDCD4" d="M549.949,617.5c-11.49,5.631-10.478,9.106-13.285,12.743c-6.458,0.983-12.274,3.387-15.948,12.408
	c-11.685-2.581-13.632,3.82-16.112,8.89c-7.839-1.223-15.173-2.551-17.559,4.834c-8.562-5.176-14.471-2.985-20.098-1.868
	c-5.089-1.609-10.077-4.114-14.959-7.563c-3.707-6.322-7.315-12.521-13.82-12.637c-1.495-4.63-3.643-8.536-7.719-9.812
	c14.169-37.617,22.654-76.05,27.5-115c7.427,0.852,8.475-3.218,12.057-4.931c6.229,3.063,13.573,3.896,22.469,1.626
	c6.771,4.534,9.009,1.52,11.952-0.32c3.175,1.693,6.351,6.081,9.522,1.625C519.316,544.904,532.612,581.426,549.949,617.5z"/>
<path fill="none" stroke="#000" stroke-width="2" d="M757.949,196c0.375,8.25-0.833,25.845-7.5,33c-5.125,5.5-11.125,5.25-15-1s-7.241-19.024-0.5-24C742.191,198.655,757.615,188.654,757.949,196z"/>
<path fill="none" stroke="#000" d="M735.727,203.496c5.771-22.863,8.732-45.729,3.535-68.592"/>
<path fill="none" stroke="#000" stroke-width="2" d="M437.449,39c-16.5-2.75-5.787-24.487,14-13c7.809,4.53,15.57,14.274,15.5,18
	c4.876,2.063,6.935-0.048,26-10c19.875-10.375,29.298-14.09,59.5,0.5c30.004,14.493,46.117,15.269,73,17.5
	c9.363-2.06,36.648-28.246,53.893-11.405C689.885,50.891,642.811,68.094,647.949,73c24.846,17.975,51.396,23.494,67,26.5
	c24.145,4.649,47.808-7.659,59.119-4.995c25.771,6.067,11.725,39.634-0.119,41.995c-18.7,3.728-25.354,0.945-40-2
	c-11.746-2.364-22.599-10.036-32.913-9.76c-25.493,0.702-22.345-4.992-41.087-6.24c-16.98-1.132-27.958,7.976-41-4
	c0,0-10.744,16.932-42.012,12.957c-11.052-1.404-20.563,6.44-25.988,6.043c-23.902-1.764-46.93-22.385-88.5-9.5
	c-11.253,3.485-14.422,3.609-25.5-3.5c-7.146-4.586-18.291-36.668-6-55.5C438.217,53.865,441.89,45.131,437.449,39z"/>
<path fill="none" stroke="#000" stroke-width="2" d="M409.836,837.318c83.688,35.03,152.164,30.336,237.709,5.449c8.623-2.508,7.284-41.229,3.45-40.512c-86.378,16.108-181.851,11.634-245.023-11.278C398.922,788.42,402.968,834.443,409.836,837.318z"/>
<path fill-opacity="0.15" d="M623.297,806.656c22.627-6.362,26.163-3.536,26.163-3.536l4.949,3.536l-0.707,19.8l-3.535,15.558l-26.163,7.07C629.943,832.831,639.081,815.652,623.297,806.656z"/>
<path fill="#DCDCD4" d="M652.995,807.365c-10.3-2.787-17.778,0.066-25.501,2.435c-9.871-2.092-17.111,0.202-22.991,4.765
	c-7-2.211-14.225-3.521-22.543-0.456c-8.712-1.032-14.943,0.414-21.039,1.997c-8.204-2.604-16.966-2.973-26.502-0.245
	c-7.494-2.915-15.849-4.111-26.003-1.709c-9.863-2.704-18.155-3.05-25.354-1.757c-8.608-3.822-17.803-5.311-27.743-3.803
	c-4.651-2.044-6.784-5.098-17.613-4.669c-4.433-2.828-10.12-4.401-17.218-4.563c-4.125-2.781-9.69-4.602-17.808-4.721
	c2.693-12.492,2.463-24.984,1.414-37.479c6.716,6.994,11.867,6.162,17.317,6.827c6.097,3.438,12.19,7.42,18.288,5.712
	c8.231,5.928,12.971,4.86,18.734,5.854c9.854,4.162,19.286,6.656,27.811,5.504c10.4,4.354,20.804,3.366,31.205,2.532
	c9.09,3.719,19.178,2.446,29.593-0.459c10.422,1.187,17.702-0.771,25.595-2.112c8.251,0.286,14.021-1.911,19.656-4.241
	c9.717,2.846,16.542-1.539,23.691-5.111c7.759,2.59,14.383-0.498,20.823-4.492c5.17,0.169,10.415,0.11,16.895-3.646
	C651.219,778.888,649.87,793.87,652.995,807.365z"/>
<path fill-opacity="0.15" d="M620.469,881.612l29.698-4.95l3.535,6.364l-0.707,24.749l-2.121,15.556l-31.82,7.778C639.366,893.602,631.761,885.655,620.469,881.612z"/>
<path fill="none" stroke="#000" stroke-width="2" d="M411.336,915.818c83.688,35.03,150.164,32.836,235.709,7.949c8.623-2.508,7.77-47.301,3.95-46.512c-86.997,17.969-180.063,13.771-242.523-11.278C401.512,863.185,404.468,912.943,411.336,915.818z"/>
<path fill="#DCDCD4" d="M652.995,880.905c-5.489-2.827-10.979-2.148-16.468,3.021c-5.396-2.229-10.793-0.08-16.189,2.97
	c-7.484-3.604-11.954,0.329-16.89,3.098c-9.358-3.637-16.306-1.239-23.04,1.678c-7.162-2.249-14.324-3.354-21.486,1
	c-7.438-1.221-13.886-2.935-26.416-1.605c-8.313-0.977-15.989-0.677-22.97,1.013c-10.813-5.01-17.077-3.954-24.068-3.869
	c-8.186-4.076-13.39-2.189-19.021-1.156c-4.842-3.444-9.686-5.791-14.525-3.946c-8.139-4.38-14.807-4.353-21.665-4.893
	c-4.813-4.23-7.797-2.965-11.394-3.54c-3.484-3.864-7.917-5.83-14.063-4.37c1.778-12.964,1.441-25.928,1.414-38.894
	c5.188,5.478,8.823,6.564,11.347,5.378c3.167,3.146,6.333,4.432,9.5,4.921c9.335,4.112,18.339,7.234,26.347,7.374
	c8.043,2.988,15.199,4.21,21.913,4.541c9.669,6.112,17.038,3.729,24.127,3.396c8,4.243,16,3.862,24,1.464
	c8.014,2.674,16.709,2.622,26.057-0.038c8.7,1.663,17.4-0.232,26.1-3.891c9.959,1.069,19.401,0.081,28.027-4.178
	c8.98,0.765,16.667-2.354,24.346-5.495c6.93-1.131,12.797,1.413,22.188-7.106C650.319,852.939,650.967,867.612,652.995,880.905z"/>
<path fill-opacity="0.15" d="M552.586,269.257c-25.039-9.563-71.857,114.391-103.237,114.551c-24.583,0.126-43.841-94.752-43.841-94.752s11.588,53.342,17.053,71.396c8.635,28.517,15.907,59.04,32.445,59.419c27.521,0.647,39.28-31.456,54.835-72.815C527.063,301.261,532.532,281.916,552.586,269.257z"/>
<path fill-opacity="0.15" d="M552.586,269.257c-25.039-9.563-71.857,114.391-103.237,114.551c-24.583,0.126-43.841-94.752-43.841-94.752s11.588,53.342,17.053,71.396c8.635,28.517,12.371,42.575,28.909,42.955c27.521,0.647,32.816-14.992,48.371-56.354C517.063,301.261,532.532,281.916,552.586,269.257z"/>
<path fill-opacity="0.15" d="M732.215,321.571c13.662,39.128,7.838,71.055,0.807,108.194c-3.916,20.679-34.368,69.843-35.881,95.896
	c-2.938,50.715,29.151,44.707,29.227,69.628c0.044,14.981-2.028,31.431-9.416,56.712c38.166-50.812,26.273-98.952,31-132
	c9.155-64.027,59.46-112.82,40-165c-6.104-16.368-11-30-11-30c-10.651-28.438-13.408-52.514-19.511-62.817
	c-15.089-25.474-25.959,6.483-7.489,82.817C749.949,345,743.578,335.069,732.215,321.571z"/>
<path fill-opacity="0.15" d="M746.638,456.365c-13.95,85.822-17.586,169.574-7.646,152.925c18.479-30.96,5.587-65.708,8.959-89.289c9.154-64.026,59.46-112.819,40-165C781.846,398.03,750.861,383.516,746.638,456.365z"/>
<path fill-opacity="0.08" d="M617.449,511c0.365,13.047,17.75,53.345,72.5-31.5c18.54-28.731,18.971-59,21-88.5C685.779,437.993,616.334,471.211,617.449,511z"/>
<path fill="#FFF" fill-opacity="0.39" d="M622.449,544.5c-24.546-14.106-41.844-46.118-89.5-34C574.053,507.293,598.145,546.611,622.449,544.5z"/>
<path fill="#FFF" fill-opacity="0.3922" d="M368.949,566.5c17.101-2.438,33.464-59.746,84-56C399.423,513.481,381.822,601.942,368.949,566.5z"/>
<path fill="#FFF" fill-opacity="0.39" d="M408.949,277.5c23.99,58.196,25.802,80.739,39.42,79.933c21.598-1.281,20.47-63.262,65.08-91.933c-35.555,34.584-42.283,109.547-65.573,108.547C435.801,373.53,427.523,348.24,408.949,277.5z"/>
<path fill="#FFF" fill-opacity="0.39" d="M413.286,686.448c20.604,16.646,97.437,20.86,151.319,1.415c43.599-15.731,36.804-113.658,8.484-77.075c-46.357,59.894-121.643,70.142-156.978,9.192C398,588.74,394.328,671.135,413.286,686.448z"/>
<path fill-opacity="0.15" d="M640.449,681.5c16.807-19.156,38.019-36.66,45-59.5l6.5,23.5L640.449,681.5z"/>
<path fill="#DCDCD4" d="M715.928,652.509c-1.949-1.027-3.758-1.265-3.355-3.229c-2.496,2.066-4.267,1.419-6.072-0.099
	c-1.594-1.337-1.862-1.92-0.914-4.028c-2.586,1.539-4.205,0.563-5.421-1.666c-1.21-2.216-1.138-0.465,0.912-3.172
	c-1.838,1.102-2.631-0.939-4.004-1.004c-0.94-0.043-0.764-2.891-1.649-3.065c-22.313,18.615-45.835,40.865-66.469,54.447
	c2.473-0.32,4.463,0.003,5.522,1.563c3.207,2.613,3.64,5.229,3.583,7.846c1.631-0.555,3.196-1.717,4.89-0.616
	c3.376,2.195,4.385,4.203,5.546,6.305c2.429-0.045,3.584-1.348,7.883,0.763c3.105,1.521,3.713,3.099,3.744,5.169
	c2.265-0.395,4.699-1.187,5.602,1.6C679.686,693.05,691.211,672.78,715.928,652.509z"/>
<path fill-opacity="0.15" d="M554,34.851l23.335,10.254l40.658,6.01l9.899,0.354l6.718-4.596
	c-10.238,9.029-15.905,23.488-5.306,31.11c6.013,0.166,12.021,1.229,18.031-4.947l27.934,15.556l43.484,11.313
	c0,0,28.356-2.386,17.68,0c-15.084,3.369-40.146,9.093-62.935-5.304c-34.959-22.084-44.952-5.714-54.447,20.506
	c-2.271-1.433-6.896,4.452-15.456,6.875c-13.374,3.787-31.247,4.729-25.556-0.862c12.029-11.819,53.16-34.758,16.617-65.056
	C584.029,47.251,566.507,48.721,554,34.851z"/>
<path fill-opacity="0.15" d="M627.893,51.468l6.72-4.596c-10.238,9.029-15.905,23.488-5.306,31.11
	c6.013,0.166,12.021,1.229,18.031-4.947h0.178l5.126,3.356c-19.072,2.872-27.971,11.563-33.939,21.92
	c0.021-15.435,6.521-29.689-7.778-47.729l7.248,0.884L627.893,51.468L627.893,51.468z"/>
<path fill-opacity="0.15" d="M756.949,95c16.967,6.402,24.199,19.762,22.5,39.5l7-10.5l2-16.5l-6-10l-17.5-3.5L756.949,95z"/>
<path fill-opacity="0.15" d="M522.181,126.421c0.527,39.127,2.471,78.254,9.546,117.38c-6.477-68.776-7.186-106.229,14.494-100.272
	c7.043,1.305,16.373,5.24,26.164-4.379c5.938-5.833,22.254,0.919,35.08,1.257c8.479,0.226,12.617-6.016,21.297-7.447
	c26.674-4.406,50.375-2.474,74.438,1.24c8.998,1.391,16.915,3.948,23.526,7.41c24.425,11.745-1.402,61.26-1.301,69.38
	c0.062,4.63,7.006,21.827,9.149,36.639c2.039,14.071-0.692,25.745-1.499,31.466c-2.083,14.784-10.926,22.65-16.063,22.777
	c9.137,13.498,21.227,32.32,31.298,42.271c6.146,6.073-6.717-63.109-10.352-75.504c7.677,0.212-0.252-33.158-2.461-37.582
	c-7.48-14.979-1.229-29.271-0.612-29.048c4.778,1.722,8.202-49.942,7.203-48.009l-4.242-17.68l-28.284-11.313l-26.869-0.707
	l-16.972-5.656H644.51l-12.021,2.828l-13.438-7.071L607.74,124.3l-20.506,4.243l-15.559-0.707l-18.385,5.654L522.181,126.421z"/>
<path fill-opacity="0.15" d="M440.449,116.5c7.601,3.883,26.918-4.233,48.141-3.886c23.523,0.389,51.971,13.187,64.859,12.886c-22.942-2.665-33.522-18.409-65.5-20.5C459.67,103.151,469.574,115.375,440.449,116.5z"/>
<path fill="#FFF" fill-opacity="0.39" d="M463.949,100c15.189-8.484,30.976-8.68,47.5,1.5C495.616,99.061,479.783,98.44,463.949,100z"/>
<path fill-opacity="0.15" d="M446.449,24c5.692,7.5,11.867,15,8.5,22.5c4-3.377,8-1.896,12-1.5"/>
<path fill="none" stroke="#000" stroke-width="2" d="M454.949,46.5c4-3.377,8-1.896,12-1.5"/>
<path fill="#FFF" fill-opacity="0.39" d="M424.6,748.675c1.629-11.596,107.271,8.438,105.359,14.143C525.271,776.799,421.801,768.603,424.6,748.675z"/>
<path fill="#FFF" fill-opacity="0.39" d="M424.6,818.675c1.629-11.596,118.118,13.96,116.674,19.799C536.585,857.406,421.801,838.603,424.6,818.675z"/>
<path fill="#FFF" fill-opacity="0.39" d="M425.679,896.152c0.761-5.418,24.416-0.357,50.401,4.583c29.624,5.635,61.854,11.966,59.2,17.337C526.643,935.557,422.88,916.076,425.679,896.152z"/>
<path fill-opacity="0.15" d="M737.848,202.082c14.707-0.317,15.672,11.39,15.559,24.041l3.533-16.973v-14.849l-12.021,1.414L737.848,202.082z"/>
<path fill="none" stroke="#000" d="M695.422,636.243c-22.312,18.615-45.835,40.865-66.469,54.447"/>
<path fill="none" stroke="#000" d="M715.928,652.509c-24.717,20.271-36.242,40.541-50.205,60.811"/>
<path fill="none" stroke="#A7A69C" d="M697.199,640.5c-19.738,17.679-39.462,35.369-60.5,51.75"/>
<path fill="none" stroke="#A7A69C" d="M708.449,651.75c-17.396,18.75-33.258,37.5-46,56.25"/>
<path fill="none" stroke="#A7A69C" d="M700.699,653l-39.75,47"/>
<path fill="none" stroke="#A7A69C" d="M698.199,645.75l-31.5,28.25"/>
<path fill="none" stroke="#A7A69C" d="M686.449,662.25L653.699,699"/>
<path fill="none" stroke="#A7A69C" d="M658.449,680l-15,13.5"/>
<path fill="none" stroke="#000" d="M650.167,837.771c0.152,15.168,0.8,29.841,2.828,43.134"/>
<path fill="none" stroke="#000" d="M404.094,757.158c1.049,12.492,1.279,24.984-1.414,37.479"/>
<path fill="none" stroke="#000" d="M653.702,763.525c-2.483,15.363-3.832,30.349-0.707,43.841"/>
<path fill="none" stroke="#000" d="M388.537,702.006c3.983,10.843,9.025,21.685,11.314,32.525"/>
<path fill="none" stroke="#000" d="M652.995,755.037c-0.817-9.897,2.719-19.799,9.899-29.696"/>
<g fill="none" stroke="#A7A69C">
	<path d="M410.949,761.5c-0.327,11.672-0.854,23.145-2.5,33.5"/>
	<path d="M446.449,773.5l-1.5,32"/>
	<path d="M487.949,781.5l-2,30.5"/>
	<path d="M534.949,785.5l1,30"/>
	<path d="M581.949,780l3.5,33"/>
	<path d="M627.449,772c-1.771,12.856-0.563,25.474,3,37"/>
	<path d="M413.449,837c-0.197,12.771-0.97,24.394-2.5,34.5"/>
	<path d="M442.449,847.5l-2.5,31"/>
	<path d="M480.949,856.5l-2,29"/>
	<path d="M519.449,860l0.5,30.5"/>
	<path d="M553.449,859.5l1,32"/>
	<path d="M592.449,854.5l3.5,33"/>
	<path d="M629.949,845c-0.143,12.822,0.195,25.488,4,37"/>
	<path d="M643.449,767c-7.369,14.787-3.783,27.594-2,39"/>
	<path d="M617.949,849l5.5,36.5"/>
	<path d="M607.449,851.5l5,35"/>
	<path d="M571.678,856.863l3.184,33.588"/>
	<path d="M562.485,859.045l2.12,31.403"/>
	<path d="M541.271,860.752c-1.414,26.516,2.12,30.403,2.12,30.403"/>
	<path d="M532.787,861.106l-1.061,29.698"/>
	<path d="M510.514,861.106l-2.476,27.931"/>
	<path d="M500.613,857.923l-2.121,29.345"/>
	<path d="M469.854,852.974l-0.354,33.319"/>
	<path d="M422.479,840.243l-2.475,32.882"/>
	<path d="M419.65,763.878l-3.889,33.232"/>
	<path d="M427.428,767.767l-1.414,31.113"/>
	<path d="M437.682,770.24l-3.183,31.467"/>
	<path d="M455.359,775.545l-0.354,31.111"/>
	<path d="M479.754,781.907c0,0-3.889,26.87-2.475,27.933"/>
	<path d="M496.725,783.238l-0.354,28.37"/>
	<path d="M506.979,784.384l-1.414,28.991"/>
	<path d="M525.362,785.091l0.354,27.577"/>
	<path d="M555.768,783.677l-0.354,30.759"/>
	<path d="M574.859,780.493v32.526"/>
	<path d="M603.145,776.606l3.184,35.709"/>
	<path d="M402.68,697.057c5.748,12.662,8.972,24.693,10.96,36.416"/>
	<path d="M419.296,695.286c7.528,12.849,10.115,25.692,13.082,38.538"/>
	<path d="M462.783,705.896l3.89,29.345"/>
	<path d="M481.521,705.189l2.827,31.819"/>
	<path d="M503.089,706.603v33.587"/>
	<path d="M522.181,703.42l-2.829,36.416"/>
	<path d="M543.04,700.946l-4.95,38.186"/>
	<path d="M562.839,695.286l-4.949,44.901"/>
	<path d="M585.113,695.286l-8.84,45.964"/>
	<path d="M603.145,702.006l-8.483,39.598"/>
	<path d="M621.883,715.088l-7.777,28.638"/>
	<path d="M636.378,723.927c-4.165,6.953-5.598,13.905-6.01,20.857"/>
	<path d="M649.813,728.169c-5.089,7.188-6.566,14.378-6.011,21.564"/>
	<path d="M412.226,696.701c4.745,11.098,8.678,22.734,10.606,35.709"/>
	<path d="M392.78,702.213c7.063,8.512,9.16,19.511,11.667,29.846"/>
	<path d="M453.944,703.774l3.89,31.113"/>
	<path d="M593.952,699.885l-7.778,41.719"/>
</g>
<g fill="#A7A69C">
	<path d="M639.449,844.469c-0.689,11.245,1.063,21.252,3,31.125c0,0-2.683-19.957-2-31.063L639.449,844.469z"/>
	<path d="M599.449,858.563l3.5,30.5l1-0.125L599.449,858.563z"/>
	<path d="M581.73,856.094l-1,0.125l3.529,27.938L581.73,856.094z"/>
	<path d="M488.793,887.594l1,0.063l2.125-26.5L488.793,887.594z"/>
	<path d="M459.824,882.969l0.969,0.094l2.844-27.906L459.824,882.969z"/>
	<path d="M452.73,850.438L450.26,874.5l3.471-23.938L452.73,850.438z"/>
	<path d="M429.418,877l0.969,0.029l1.438-26.5L429.418,877z"/>
	<path d="M463.699,778l-1.063,24.75l2.063-24.721L463.699,778z"/>
	<path d="M470.418,808.75l1,0.029l0.719-22.969L470.418,808.75z"/>
	<path d="M514.949,788.656l1.063,24.375l1-0.03L514.949,788.656z"/>
	<path d="M543.949,790.438l1.406,23.688l1-0.063L543.949,790.438z"/>
	<path d="M564.824,789.375l2.469,24.75l1-0.096L564.824,789.375z"/>
	<path d="M593.105,786.5l0.344,25.469h1l-0.344-25.469H593.105z"/>
	<path d="M614.668,772.719c-0.214,10.021-0.246,20.054,1.406,30.125c0,0-0.619-20.115-0.406-30.125H614.668z"/>
	<path d="M444.543,703l-1,0.154c0.097,0.576,0.484,2.478,1.031,5.063s1.253,5.815,1.938,9c1.37,6.362,2.688,12.469,2.688,12.469s-0.351-6.293-1.72-12.656c-0.686-3.182-1.358-6.446-1.905-9.03C445.027,705.413,444.624,703.484,444.543,703z"/>
	<path d="M433.574,698.969l-0.969,0.25l4.594,18.813L433.574,698.969z"/>
	<path d="M473.23,710.875l2.125,26.188l1-0.094L473.23,710.875z"/>
	<path d="M492.637,706.594l-1,0.031l0.688,25.438L492.637,706.594z"/>
	<path d="M510.73,739.813l1,0.031l1.063-29.688L510.73,739.813z"/>
	<path d="M531.574,702.313l-3.875,32.156l4.875-32.063L531.574,702.313z"/>
	<path d="M547.137,740.125l1,0.125l4.594-33.938L547.137,740.125z"/>
	<path d="M573.293,695.563l-6,37.844l7-37.688L573.293,695.563z"/>
	<path d="M612.199,709.938l-6.719,26.25l7.688-26L612.199,709.938z"/>
</g>
<path fill="none" stroke="#000" d="M513.949,507.5c5.367,37.401,18.663,73.926,36,110 M430.449,624.5c14.169-37.619,22.654-76.052,27.5-115"/>
<path fill-opacity="0.15" d="M514.449,512l6,29l13,42l14.5,31.5l11.5-7.5c-20.145-23.457-37.169-57.402-40-92.5L514.449,512z"/>
<g fill="none" stroke="#A7A69C">
	<path d="M483.997,508.613l-1.769,144.957"/>
	<path d="M497.785,508.966c4.396,44.965,12.123,89.264,21.213,133.29"/>
	<path d="M469.146,506.49c-4.119,46.515-8.377,93.002-18.03,138.595"/>
	<path d="M505.21,507.906c7.687,41.025,16.539,81.884,30.759,121.978"/>
	<path d="M491.421,506.49c0.803,47.965,3.917,95.933,8.485,143.896"/>
	<path d="M475.158,507.198c-0.415,48.557-4.081,97.109-9.192,145.664"/>
</g>
<g fill="#A7A69C">
	<path d="M454.855,560.531c-3.318,24.143-8.014,48.232-16.938,72.345l0.938,0.375c5.049-13.639,8.748-27.273,11.61-40.905L454.855,560.531z"/>
	<path d="M477.074,604.406c0,0-1.006,9.985-1.146,14.552c-0.388,12.784-1.432,23.595-2.668,33.854l0.971,0.125C475.91,638.989,477.264,623.972,477.074,604.406z"/>
	<path d="M501.543,580.75c1.096,24.012,4.554,43.244,7.406,63.688l1-0.125c-2.008-14.391-4.33-28.149-5.91-43.372L501.543,580.75z"/>
	<path d="M516.73,587.5c2.387,20.808,6.768,33.657,10.969,47.125l0.969-0.281c-2.354-7.547-4.755-14.86-6.83-23.472L516.73,587.5z"/>
	<path d="M536.105,603.594c0,0,3.479,12.766,6.875,18.406l0.844-0.5C540.457,615.906,537.595,610.073,536.105,603.594z"/>
</g>
<path fill="none" stroke="#000" d="M405.508,831.114c0.945,14.146,0.203,27.604-0.707,39.894"/>
<path fill-opacity="0.15" d="M755.525,264.015l11.313,22.92l9.899,42.426l9.897,21.214C774.744,323.239,752.287,303.117,755.525,264.015z"/>
<path fill="#DCDCD4" d="M741.333,137.546c5.305-1.532,5.306-4.392,7.396-6.727c0.363,5.794,3.118,4.87,7.063,4.604c7.153-0.484,9.026-0.981,12.104-3.93l4.369,7.06l-15.129,10.759L741.333,137.546z"/>
<path fill="#DCDCD4" d="M737.848,199.607c3.107,0.181,5.705,1.037,6.013,4.95c0.348-2.002-0.077-3.853,3.89-6.718c2.007-1.449,4.242,1.061,4.242,1.061c-0.749-2.475,1.16-4.949,3.182-7.424l-7.777-1.415L737.848,199.607z"/>
<path fill="#DCDCD4" d="M749.162,233.548c0.988,1.653-12.699,1.688-10.961-0.354s3.17-4.495,2.122-10.253c0,0,1.854,7.425,3.889,7.425s4.243-7.425,4.243-7.425C747.573,229.271,748.173,231.895,749.162,233.548z"/>
<path fill-opacity="0.7" d="M665.449,247.75c-4.795-3.229-5.602-7.123-6.5-11c3.424-1.22,5.313-3.459,6.75-6C671.195,239.206,667.283,242.583,665.449,247.75z"/>
<path fill="#D7D77A" stroke="#000" d="M715.574,203.844c-16.094,14.058-32.442,25.73-51.281,29.781c-4.472,1.882-3.09,11.44,2.313,10.75c21.771-4.681,39.633-17.729,56.221-32.221c0.986-1.573-0.617-3.726-2.166-5.583C719.033,204.624,717.396,203.022,715.574,203.844z"/>
<path fill="none" stroke="#000" d="M715.039,204.653c-0.678,3.354,4.123,5.363,7.102,7.631"/>
<path fill="none" stroke="#000" d="M730.199,232.25c-2.512-0.281-4.68,9.076-1.5,11.25"/>
<path fill-opacity="0.15" d="M727.949,235.5c2.647-7.617,7.429,0.593,1.25,8C729.771,240.833,730.604,238.166,727.949,235.5z"/>
<path fill-opacity="0.15" d="M659.699,250.75c1.804,7.207,9.919,7.473,18.25,7.5l-12,3h-5.5l-6-2.75l-0.25-3l2-4.25L659.699,250.75z"/>
<path fill="none" stroke="#000" stroke-opacity="0.3137" d="M663.449,243c10.662-3.548,21.288-5.887,29.75-12"/>
<path fill="none" stroke="#000" stroke-opacity="0.3137" d="M682.699,234c-6.684,2.25-13.413,4.5-20.75,6.75"/>
<path fill="none" stroke="#A7A69C" d="M749.199,136.5l-6.25,65"/>
<path fill="none" stroke="#A7A69C" d="M764.199,142l-15,55.5"/>
<path fill="none" stroke="#A7A69C" d="M756.699,142.75l-10.25,56.75"/>
<path fill="none" stroke="#A7A69C" d="M746.449,236l2.5,17.25"/>
<path fill="#E7A69A" d="M707.807,624.275c-46.731,31.407-95.307,42.138-144.25,53.74c-24.039,5.698-27.977-6.134-25.455-18.385c8.317-40.412,18.225-80.945,41.014-127.279c2.248,6.27,5.18,12.025,14.85,12.728c4.422,3.771,6.998,7.543,14.85,11.314c6.836,6.729,13.672,7.839,20.508,7.07c5.546,2.688,11.006,5.636,18.385,2.829l6.984,0.706l8.569-12.021c6.833,3.53,11.995,3.719,16.972,3.535c1.278,6.409,0.628,13.462,12.729,16.264c-0.348,8.981,4.134,14.342,11.314,17.678c-1.713,5.656-2.871,11.313,2.828,16.973C705.175,614.375,702.455,619.323,707.807,624.275z"/>
<path fill="none" stroke="#000" stroke-width="2" d="M707.807,624.275c-46.731,31.407-95.307,42.138-144.25,53.74c-24.039,5.698-27.977-6.134-25.455-18.385c8.317-40.412,18.225-80.945,41.014-127.279"/>
<path d="M658.25,561.438c-26.295,32.916-52.557,65.716-86.031,87.469c0,0,23.85-15.089,34.188-25.006c19.188-18.408,36.317-39.82,53.406-61.213L658.25,561.438z"/>
<path d="M583.906,541.344c-16.533,37.026-29.31,75.965-36.406,116.781c0,0,3.559-13.547,5.072-20.331c7.426-33.311,18.529-65.335,32.24-96.044L583.906,541.344z"/>
<path fill="none" stroke="#000" d="M596.5,549c-28.411,43.5-29.05,88-51,130.5"/>
<path fill="none" stroke="#000" d="M609,558c-19.294,26.666-27.18,53.332-40.5,80"/>
<path fill="none" stroke="#000" d="M637.5,567c-16.311,27.867-38.367,52.454-64,75"/>
<path fill="none" stroke="#000" d="M621,563.5c-8.988,21.444-24.064,41.878-41,62"/>
<path d="M613.531,560.281c-8.319,17.985-16.631,31.229-24.969,45.47c0,0,17.559-26.984,25.904-45.03L613.531,560.281z"/>
<path d="M601.094,552.719c-13.645,21.048-20.343,40.967-26.063,60.656c0,0,13.306-39.162,26.875-60.096L601.094,552.719z"/>
<path d="M546.531,633.844c-2.044,6.326-2.87,14.09-3.594,21.469c-0.726,7.378-1.354,14.384-2.906,19.031l0.938,0.313c1.624-4.854,2.246-11.848,2.969-19.219L546.531,633.844z"/>
<path fill="none" stroke="#000" d="M552,679.5c52.804-29.021,97.653-21.271,154-69.5"/>
<path d="M677.063,557.781c-25.656,51.996-67.781,71.095-104.825,100.759l-14.394,13.837c39.908-37.892,90.703-54.599,120.094-114.156L677.063,557.781z"/>
<path d="M686.094,571.219c-24.592,35.286-57.163,58.521-82.453,75.016l-20.857,14.672c25.116-16.746,71.559-42.396,104.125-89.125L686.094,571.219z"/>
<path d="M701.625,592.688c-24.775,29.227-70.729,44.585-104.375,62.875c0,0,26.138-11.817,39.828-18.396c24.504-11.774,49.222-24.891,65.297-43.854L701.625,592.688z"/>
<path d="M693.063,582.25c-7.009,12.938-16.656,21.674-27.154,29.115l-22.125,15.539c18.316-11.954,38.082-21.868,50.154-44.154L693.063,582.25z"/>
<path fill="#E7A69A" d="M362.653,564.791l5.979,13.076c5.433,1.418,10.865,1.911,16.298-4.11c3.923-3.48,8.359-5.422,10.505-14.234c5.908-4.146,12.006-7.154,16.094-22.222c17.082,39.126,21.335,78.194,24.162,117.379c1.537,21.296-9.325,23.689-17.265,20.507c-21.843-8.764-50.793-33.722-51.02-62.339C358.659,600.94,359.183,582.744,362.653,564.791z"/>
<path fill="none" stroke="#000" stroke-width="2" d="M411.529,537.301c17.082,39.126,21.335,78.194,24.162,117.379	c1.537,21.296-9.325,23.689-17.265,20.507c-21.843-8.764-50.793-33.722-51.02-62.339c-8.75-11.908-8.227-30.102-4.756-48.056"/>
<path d="M366.781,610.875l-1.563,1.25c12.537,16.146,23.536,23.246,34.688,31.688C399.906,643.813,379.146,626.8,366.781,610.875z"/>
<path d="M403.438,554.281l-0.875,0.438c19.363,38.478,18.635,74.5,27.938,111.906c0,0-3.021-18.857-4.566-28.114C421.311,610.846,418.033,583.284,403.438,554.281z"/>
<path fill="none" stroke="#000" d="M390.5,571.5c18.864,30.295,24.494,60.59,34.311,90.885"/>
<path d="M374.406,577.688l-0.813,0.625c13.835,17.365,22.472,36.239,30.007,53.644l15.837,32.825C405.046,636.339,397.18,606.273,374.406,577.688z"/>
<path d="M371.875,628.188l-0.75,0.625c7.681,9.385,15.364,16.533,23.031,23.094c6.52,5.578,13.002,10.74,19.5,16.469c0,0-12.374-11.654-18.875-17.219C387.136,644.615,379.506,637.513,371.875,628.188z"/>
<path d="M359.938,584.281l-0.875,0.438c5.897,11.915,11.083,19.656,16,25.625c6.073,7.371,11.687,12.034,17.563,18.5c0,0-10.77-11.828-16.781-19.125C370.976,603.81,365.808,596.141,359.938,584.281z"/>
<path d="M362.469,568.844l-0.938,0.313c7.019,21.938,17.608,34.91,27.031,50.594C388.563,619.75,369.433,590.614,362.469,568.844z"/>
<path d="M396.938,560.25l-0.875,0.5c10.731,18.593,15.194,37.212,19.438,55.875C415.5,616.625,407.753,578.99,396.938,560.25z"/>
<path fill-opacity="0.08" d="M617.297,846.306c9.568,5.422,12.747,24.985,0.707,37.478c5.893,0.235,11.785,0.473,17.678,0.707c4.855-2.688,9.198-5.888,17.678-4.948l-2.119-41.014l-12.021,5.863C635.929,841.85,628.121,843.197,617.297,846.306z"/>
<path fill-opacity="0.08" d="M627.5,771l10.5-4h5.5l10.5-3.5l-3,21.5l1.5,21.5H641l-14,3C628.385,796.666,631.152,783.831,627.5,771z"/>
<path fill-opacity="0.08" d="M625,745c7.003-8.334,7.287-16.668,5-25l5,5l7.5-2l6.5,6.5l14-4.5l-10,18v12l-20-10H625z"/>
<path fill-opacity="0.16" d="M653,746l9.5-20.5l-11,3.5c6.178-6,10.938-12,10.5-18l4,2.5l21-29.5l-4,24.5l-8,19.5l-19,17L653,746z"/>
<path fill-opacity="0.08" d="M594,633.5c25.871-23.053,48.556-39.092,80.5-75.5c-5.692,0.284-9.804,0.045-11.5-1l-23,27.5L617,611L594,633.5z"/>
<path fill-opacity="0.08" d="M427.5,593.5c-0.13,35.841-1.083,69.853-13,79.5l6,4.5l10-3l6-9l-2-29L427.5,593.5z"/>
<g fill="none" stroke="#000" stroke-width="2" stroke-dasharray="6,2">
	<path d="M860.345,35.134H752.355L567.093,90.288"/>
	<path d="M249,134h137l163.697,43.86"/>
	<path d="M249,195h131l96.319,25.809"/>
	<path d="M250,340h195"/>
	<path d="M251,494h98l141.219,51.396"/>
	<path d="M254,561h178"/>
	<path d="M248,399h68l137.756,36.909"/>
	<path d="M254.397,719.429h46.823l178.634-47.865"/>
	<path d="M258.38,779.838l239.226,64.101"/>
	<path d="M858.93,192.94h-8.994l-101.462-27.187"/>
	<path d="M861.759,273.751H824.48l-74.177-0.125"/>
	<path d="M860.345,355.573h-65.563l-93.338-93.338"/>
	<path d="M705.344,249.732c-1.998,9.844-6.635,16.747-12.033,16.747c-7.221,0-13.08-12.354-13.08-27.577c0-15.223,5.859-27.577,13.08-27.577c1.979,0,3.854,0.928,5.533,2.586"/>
	<path d="M859,420h-40l-117.936,54.992"/>
	<path d="M668,534c33.53-42.448,51.035-93.369,59-178"/>
	<path d="M861.018,484.031L644.574,608.992"/>
	<path d="M861.104,549.178l-6.75,3.896l-140.938,81.371"/>
	<path d="M859,674H674"/>
</g>
<g stroke="#000" stroke-width="2">
  <circle cx="567" cy="91" r="3"/>
  <circle cx="551" cy="178" r="3"/>
  <circle cx="476" cy="221" r="3"/>
  <circle cx="446" cy="340" r="3"/>
  <circle cx="456" cy="437" r="3"/>
  <circle cx="489" cy="544.5" r="3"/>
  <circle cx="432" cy="560.5" r="3"/>
  <circle cx="480" cy="671" r="3"/>
  <circle cx="500" cy="845" r="3"/>
  <circle cx="749.5" cy="167" r="3"/>
  <circle cx="751" cy="274.5" r="3"/>
  <circle cx="645" cy="608" r="3"/>
  <circle cx="716" cy="634" r="3"/>
  <circle cx="676" cy="673.5" r="3"/>
</g>
<g id="text" font-family="'Arial'" font-size="22">
	<g id="text_left" text-anchor="end">
		<text transform="matrix(1 0 0 1 248 141.2)">thyrohyoid membrane</text>
		<text transform="matrix(1 0 0 1 248 201.1)">median thyrohyoid</text>
		<text transform="matrix(1 0 0 1 248 232.4)">ligament</text>
		<text transform="matrix(1 0 0 1 248 346.0)">laryngeal incisure</text>
		<text transform="matrix(1 0 0 1 248 403.9)">thyroid cartilage</text>
		<text transform="matrix(1 0 0 1 248 498.9)">median cricothyroid</text>
		<text transform="matrix(1 0 0 1 248 530.1)">ligament</text>
		<text transform="matrix(1 0 0 1 248 568.8)">conus elasticus</text>
		<text transform="matrix(1 0 0 1 248 723.7)">cricoid cartilage</text>
		<text transform="matrix(1 0 0 1 248 783.6)">trachea</text>
	</g>
	<g id="text_right">
		<text transform="matrix(1 0 0 1 865  41.3)">hyoid bone</text>
		<text transform="matrix(1 0 0 1 865 201.1)">lateral thyrohyoid </text>
		<text transform="matrix(1 0 0 1 865 232.4)">ligament</text>
		<text transform="matrix(1 0 0 1 865 281.1)">superior cornu </text>
		<text transform="matrix(1 0 0 1 865 302.1)" font-size="18">of thyroid cartilage</text>
		<text transform="matrix(1 0 0 1 865 361.0)">superior laryngeal</text>
		<text transform="matrix(1 0 0 1 865 392.3)">nerve and artery</text>
		<text transform="matrix(1 0 0 1 865 425.9)">oblique line</text>
		<text transform="matrix(1 0 0 1 865 490.9)">cricothyroid muscle</text>
		<text transform="matrix(1 0 0 1 865 550.8)">inferior cornu </text>
		<text transform="matrix(1 0 0 1 865 571.9)" font-size="18">of thyroid cartilage</text>
		<text transform="matrix(1 0 0 1 865 680.7)">cricothyroid joint</text>
	</g>
</g>
</svg>
