<?xml version="1.0" encoding="UTF-8" standalone="no"?>
<!-- Created with Inkscape (http://www.inkscape.org/) -->

<svg
   xmlns:dc="http://purl.org/dc/elements/1.1/"
   xmlns:cc="http://creativecommons.org/ns#"
   xmlns:rdf="http://www.w3.org/1999/02/22-rdf-syntax-ns#"
   xmlns:svg="http://www.w3.org/2000/svg"
   xmlns="http://www.w3.org/2000/svg"
   xmlns:xlink="http://www.w3.org/1999/xlink"
   xmlns:sodipodi="http://sodipodi.sourceforge.net/DTD/sodipodi-0.dtd"
   xmlns:inkscape="http://www.inkscape.org/namespaces/inkscape"
   id="svg3039"
   version="1.1"
   inkscape:version="0.48.1 r9760"
   width="454.33603"
   height="324.67569"
   sodipodi:docname="Patent_ductus_arteriosus.svg">
  <title
     id="title6646">Heart Cross Section with Patent Ductus Ateriosus</title>
  <metadata
     id="metadata3045">
    <rdf:RDF>
      <cc:Work
         rdf:about="">
        <dc:format>image/svg+xml</dc:format>
        <dc:type
           rdf:resource="http://purl.org/dc/dcmitype/StillImage" />
        <dc:title>Heart Cross Section with Patent Ductus Ateriosus</dc:title>
        <dc:date>2012-04-02</dc:date>
        <dc:creator>
          <cc:Agent>
            <dc:title>David Ludlow</dc:title>
          </cc:Agent>
        </dc:creator>
        <dc:rights>
          <cc:Agent>
            <dc:title>Creative Commons Attribution 3.0 Unported License</dc:title>
          </cc:Agent>
        </dc:rights>
        <dc:source>http://en.wikipedia.org/wiki/File:Patent_ductus_arteriosus.jpg</dc:source>
        <dc:description>Heart cross section with patent ductus ateriosus</dc:description>
      </cc:Work>
    </rdf:RDF>
  </metadata>
  <defs
     id="defs3043">
    <linearGradient
       id="linearGradient6308">
      <stop
         style="stop-color:#d93016;stop-opacity:1;"
         offset="0"
         id="stop6310" />
      <stop
         style="stop-color:#ffffff;stop-opacity:1;"
         offset="1"
         id="stop6312" />
    </linearGradient>
    <linearGradient
       id="linearGradient6300">
      <stop
         style="stop-color:#1200a6;stop-opacity:1;"
         offset="0"
         id="stop6302" />
      <stop
         style="stop-color:#ffffff;stop-opacity:1;"
         offset="1"
         id="stop6304" />
    </linearGradient>
    <linearGradient
       id="linearGradient6235">
      <stop
         style="stop-color:#d916ca;stop-opacity:1;"
         offset="0"
         id="stop6237" />
      <stop
         id="stop6249"
         offset="0.4216246"
         style="stop-color:#d916ca;stop-opacity:1" />
      <stop
         id="stop6243"
         offset="0.89479572"
         style="stop-color:#d916ca;stop-opacity:0.49803922;" />
      <stop
         style="stop-color:#d916ca;stop-opacity:0;"
         offset="1"
         id="stop6239" />
    </linearGradient>
    <marker
       inkscape:stockid="Arrow1Mstart"
       orient="auto"
       refY="0"
       refX="0"
       id="Arrow1Mstart"
       style="overflow:visible">
      <path
         id="path3992"
         d="M 0,0 5,-5 -12.5,0 5,5 0,0 z"
         style="fill-rule:evenodd;stroke:#000000;stroke-width:1pt;marker-start:none"
         transform="matrix(0.4,0,0,0.4,4,0)"
         inkscape:connector-curvature="0" />
    </marker>
    <marker
       inkscape:stockid="Arrow1Mend"
       orient="auto"
       refY="0"
       refX="0"
       id="Arrow1Mend"
       style="overflow:visible">
      <path
         id="path3995"
         d="M 0,0 5,-5 -12.5,0 5,5 0,0 z"
         style="fill-rule:evenodd;stroke:#000000;stroke-width:1pt;marker-start:none"
         transform="matrix(-0.4,0,0,-0.4,-4,0)"
         inkscape:connector-curvature="0" />
    </marker>
    <marker
       inkscape:stockid="Arrow1Lend"
       orient="auto"
       refY="0"
       refX="0"
       id="Arrow1Lend"
       style="overflow:visible">
      <path
         id="path3989"
         d="M 0,0 5,-5 -12.5,0 5,5 0,0 z"
         style="fill-rule:evenodd;stroke:#000000;stroke-width:1pt;marker-start:none"
         transform="matrix(-0.8,0,0,-0.8,-10,0)"
         inkscape:connector-curvature="0" />
    </marker>
    <linearGradient
       id="linearGradient3925">
      <stop
         style="stop-color:#000000;stop-opacity:1;"
         offset="0"
         id="stop3927" />
      <stop
         style="stop-color:#000000;stop-opacity:0;"
         offset="1"
         id="stop3929" />
    </linearGradient>
    <linearGradient
       id="linearGradient3917">
      <stop
         style="stop-color:#000000;stop-opacity:1;"
         offset="0"
         id="stop3919" />
      <stop
         style="stop-color:#000000;stop-opacity:0;"
         offset="1"
         id="stop3921" />
    </linearGradient>
    <linearGradient
       inkscape:collect="always"
       xlink:href="#linearGradient3917"
       id="linearGradient3923"
       x1="260.53723"
       y1="165.20737"
       x2="274.04483"
       y2="194.078"
       gradientUnits="userSpaceOnUse" />
    <linearGradient
       inkscape:collect="always"
       xlink:href="#linearGradient3925"
       id="linearGradient3931"
       x1="211.51221"
       y1="303.11078"
       x2="203.85873"
       y2="267.09766"
       gradientUnits="userSpaceOnUse"
       spreadMethod="pad" />
    <marker
       inkscape:stockid="Arrow1Mstart"
       orient="auto"
       refY="0"
       refX="0"
       id="Arrow1Mstart-9"
       style="overflow:visible">
      <path
         inkscape:connector-curvature="0"
         id="path3992-8"
         d="M 0,0 5,-5 -12.5,0 5,5 0,0 z"
         style="fill-rule:evenodd;stroke:#000000;stroke-width:1pt;marker-start:none"
         transform="matrix(0.4,0,0,0.4,4,0)" />
    </marker>
    <marker
       inkscape:stockid="Arrow1Mend"
       orient="auto"
       refY="0"
       refX="0"
       id="Arrow1Mend-5"
       style="overflow:visible">
      <path
         inkscape:connector-curvature="0"
         id="path3995-1"
         d="M 0,0 5,-5 -12.5,0 5,5 0,0 z"
         style="fill-rule:evenodd;stroke:#000000;stroke-width:1pt;marker-start:none"
         transform="matrix(-0.4,0,0,-0.4,-4,0)" />
    </marker>
    <marker
       inkscape:stockid="Arrow1Mend"
       orient="auto"
       refY="0"
       refX="0"
       id="Arrow1Mend-5-1"
       style="overflow:visible">
      <path
         inkscape:connector-curvature="0"
         id="path3995-1-4"
         d="M 0,0 5,-5 -12.5,0 5,5 0,0 z"
         style="fill-rule:evenodd;stroke:#000000;stroke-width:1pt;marker-start:none"
         transform="matrix(-0.4,0,0,-0.4,-4,0)" />
    </marker>
    <marker
       inkscape:stockid="Arrow1Mend"
       orient="auto"
       refY="0"
       refX="0"
       id="Arrow1Mend-5-7"
       style="overflow:visible">
      <path
         inkscape:connector-curvature="0"
         id="path3995-1-44"
         d="M 0,0 5,-5 -12.5,0 5,5 0,0 z"
         style="fill-rule:evenodd;stroke:#000000;stroke-width:1pt;marker-start:none"
         transform="matrix(-0.4,0,0,-0.4,-4,0)" />
    </marker>
    <marker
       inkscape:stockid="Arrow1Mend"
       orient="auto"
       refY="0"
       refX="0"
       id="Arrow1Mend-5-0"
       style="overflow:visible">
      <path
         inkscape:connector-curvature="0"
         id="path3995-1-7"
         d="M 0,0 5,-5 -12.5,0 5,5 0,0 z"
         style="fill-rule:evenodd;stroke:#000000;stroke-width:1pt;marker-start:none"
         transform="matrix(-0.4,0,0,-0.4,-4,0)" />
    </marker>
    <marker
       inkscape:stockid="Arrow1Mend"
       orient="auto"
       refY="0"
       refX="0"
       id="Arrow1Mend-5-77"
       style="overflow:visible">
      <path
         inkscape:connector-curvature="0"
         id="path3995-1-76"
         d="M 0,0 5,-5 -12.5,0 5,5 0,0 z"
         style="fill-rule:evenodd;stroke:#000000;stroke-width:1pt;marker-start:none"
         transform="matrix(-0.4,0,0,-0.4,-4,0)" />
    </marker>
    <marker
       inkscape:stockid="Arrow1Mend"
       orient="auto"
       refY="0"
       refX="0"
       id="Arrow1Mend-5-770"
       style="overflow:visible">
      <path
         inkscape:connector-curvature="0"
         id="path3995-1-0"
         d="M 0,0 5,-5 -12.5,0 5,5 0,0 z"
         style="fill-rule:evenodd;stroke:#000000;stroke-width:1pt;marker-start:none"
         transform="matrix(-0.4,0,0,-0.4,-4,0)" />
    </marker>
    <marker
       inkscape:stockid="Arrow1Mend"
       orient="auto"
       refY="0"
       refX="0"
       id="Arrow1Mend-5-9"
       style="overflow:visible">
      <path
         inkscape:connector-curvature="0"
         id="path3995-1-8"
         d="M 0,0 5,-5 -12.5,0 5,5 0,0 z"
         style="fill-rule:evenodd;stroke:#000000;stroke-width:1pt;marker-start:none"
         transform="matrix(-0.4,0,0,-0.4,-4,0)" />
    </marker>
    <marker
       inkscape:stockid="Arrow1Mend"
       orient="auto"
       refY="0"
       refX="0"
       id="Arrow1Mend-5-76"
       style="overflow:visible">
      <path
         inkscape:connector-curvature="0"
         id="path3995-1-87"
         d="M 0,0 5,-5 -12.5,0 5,5 0,0 z"
         style="fill-rule:evenodd;stroke:#000000;stroke-width:1pt;marker-start:none"
         transform="matrix(-0.4,0,0,-0.4,-4,0)" />
    </marker>
    <marker
       inkscape:stockid="Arrow1Mend"
       orient="auto"
       refY="0"
       refX="0"
       id="Arrow1Mend-5-4"
       style="overflow:visible">
      <path
         inkscape:connector-curvature="0"
         id="path3995-1-3"
         d="M 0,0 5,-5 -12.5,0 5,5 0,0 z"
         style="fill-rule:evenodd;stroke:#000000;stroke-width:1pt;marker-start:none"
         transform="matrix(-0.4,0,0,-0.4,-4,0)" />
    </marker>
    <marker
       inkscape:stockid="Arrow1Mend"
       orient="auto"
       refY="0"
       refX="0"
       id="Arrow1Mend-5-5"
       style="overflow:visible">
      <path
         inkscape:connector-curvature="0"
         id="path3995-1-06"
         d="M 0,0 5,-5 -12.5,0 5,5 0,0 z"
         style="fill-rule:evenodd;stroke:#000000;stroke-width:1pt;marker-start:none"
         transform="matrix(-0.4,0,0,-0.4,-4,0)" />
    </marker>
    <marker
       inkscape:stockid="Arrow1Mend"
       orient="auto"
       refY="0"
       refX="0"
       id="Arrow1Mend-5-8"
       style="overflow:visible">
      <path
         inkscape:connector-curvature="0"
         id="path3995-1-5"
         d="M 0,0 5,-5 -12.5,0 5,5 0,0 z"
         style="fill-rule:evenodd;stroke:#000000;stroke-width:1pt;marker-start:none"
         transform="matrix(-0.4,0,0,-0.4,-4,0)" />
    </marker>
    <marker
       inkscape:stockid="Arrow1Mend"
       orient="auto"
       refY="0"
       refX="0"
       id="Arrow1Mend-5-2"
       style="overflow:visible">
      <path
         inkscape:connector-curvature="0"
         id="path3995-1-9"
         d="M 0,0 5,-5 -12.5,0 5,5 0,0 z"
         style="fill-rule:evenodd;stroke:#000000;stroke-width:1pt;marker-start:none"
         transform="matrix(-0.4,0,0,-0.4,-4,0)" />
    </marker>
    <radialGradient
       inkscape:collect="always"
       xlink:href="#linearGradient6235"
       id="radialGradient6241"
       cx="240.83224"
       cy="132.65308"
       fx="240.83224"
       fy="132.65308"
       r="11.768949"
       gradientTransform="matrix(1.9506443,-0.40850862,0.5517904,2.6348206,-297.63692,-146.49527)"
       gradientUnits="userSpaceOnUse" />
    <marker
       inkscape:stockid="Arrow1Mend"
       orient="auto"
       refY="0"
       refX="0"
       id="Arrow1Mend-5-95"
       style="overflow:visible">
      <path
         inkscape:connector-curvature="0"
         id="path3995-1-77"
         d="M 0,0 5,-5 -12.5,0 5,5 0,0 z"
         style="fill-rule:evenodd;stroke:#000000;stroke-width:1pt;marker-start:none"
         transform="matrix(-0.4,0,0,-0.4,-4,0)" />
    </marker>
    <radialGradient
       inkscape:collect="always"
       xlink:href="#linearGradient6300"
       id="radialGradient6306"
       cx="233.39195"
       cy="225.76608"
       fx="233.39195"
       fy="225.76608"
       r="57.032945"
       gradientTransform="matrix(2.4199859,-0.21874467,0.37578092,4.1572873,-416.25185,-661.75513)"
       gradientUnits="userSpaceOnUse" />
    <radialGradient
       inkscape:collect="always"
       xlink:href="#linearGradient6308"
       id="radialGradient6314"
       cx="288.76642"
       cy="219.67851"
       fx="288.76642"
       fy="219.67851"
       r="35.734399"
       gradientTransform="matrix(4.7762944,0.41226376,-0.54633858,6.3296217,-970.44822,-1289.8513)"
       gradientUnits="userSpaceOnUse" />
  </defs>
  <sodipodi:namedview
     pagecolor="#ffffff"
     bordercolor="#666666"
     borderopacity="1"
     objecttolerance="10"
     gridtolerance="10"
     guidetolerance="10"
     inkscape:pageopacity="0"
     inkscape:pageshadow="2"
     inkscape:window-width="1680"
     inkscape:window-height="961"
     id="namedview3041"
     showgrid="false"
     inkscape:zoom="1.3903134"
     inkscape:cx="215.3453"
     inkscape:cy="222.74717"
     inkscape:window-x="0"
     inkscape:window-y="30"
     inkscape:window-maximized="1"
     inkscape:current-layer="svg3039"
     fit-margin-top="10"
     fit-margin-right="10"
     fit-margin-bottom="10"
     fit-margin-left="10"
     showguides="true"
     inkscape:guide-bbox="true" />
  <path
     style="fill:#d93016;fill-opacity:1;stroke:#000000;stroke-width:1px;stroke-linecap:butt;stroke-linejoin:miter;stroke-opacity:1"
     d="m 271.26384,149.68283 c 0,0 19.82705,-3.63207 32.0415,-26.06551 3.18689,-8.31992 1.52579,-19.07232 1.52579,-19.07232 l 6.86604,-0.76289 c 0,0 -1.06498,5.41267 0.50859,13.22347 3.22651,-5.79412 3.81447,-18.818024 3.81447,-18.818024 l 5.84884,-0.2543 -1.52578,6.357444 c 0,0 2.10333,-4.399874 6.86603,-5.594544 1.32968,2.746944 0.63747,2.248264 0.5086,7.628924 -11.69941,6.525 -12.99024,21.24753 -19.83522,27.46415 5.61561,-3.44669 9.40518,-9.21392 11.1891,-6.10315 1.91106,3.11077 3.0069,1.62186 5.59455,3.05158 -3.64264,4.60844 -12.58773,8.51897 -12.58773,8.51897 0,0 8.68822,-1.31053 13.47777,-0.5086 -0.2964,3.34491 -0.93337,3.73913 -2.67013,5.7217 -6.05982,-0.17896 -15.51215,-1.01719 -15.51215,-1.01719 0,0 10.41279,1.77637 13.73207,2.41582 -0.36803,2.29238 1.53496,0.66115 -1.90723,4.57737 -36.37374,-2.56838 -17.53066,5.64566 -17.53066,5.64566 z"
     id="path3881"
     inkscape:connector-curvature="0"
     sodipodi:nodetypes="ccccccccccccccccccccc">
    <title
       id="title3899">Left Pulmonary Veins</title>
  </path>
  <path
     style="fill:#1200a6;fill-opacity:1;stroke:#000000;stroke-width:1px;stroke-linecap:butt;stroke-linejoin:miter;stroke-opacity:1"
     d="m 169.39209,95.889846 c -8.39514,1.29919 -15.63901,4.218764 -21.97119,9.672344 -3.40775,-0.52241 -4.71171,-0.39102 -5.84884,-2.79727 1.7873,-2.5334 5.08595,-4.068764 5.08595,-4.068764 0,0 -2.49233,1.805754 -5.59454,1.907224 -1.83072,-1.678614 -1.06233,-7.039744 -0.5086,-8.518964 3.47816,-3.64075 20.3438,-4.32306 20.3438,-4.32306 0,0 -8.09733,-8.51758 -10.68049,-9.40901 -3.98179,-1.01858 -5.53718,0.28934 -10.17191,2.28867 -1.07456,-4.48526 -1.20994,-6.85791 -1.01719,-10.680495 3.24432,-0.516711 6.86604,0 6.86604,0 0,0 -5.67329,-1.69094 -6.86604,-4.577358 1.22308,-5.302245 4.56781,-7.966057 6.35744,-9.917607 11.96153,18.39226 22.25104,21.48815 22.25104,21.48815 0,0 2.81179,-11.612347 -9.28186,-37.381752 2.65562,-7.332827 0.81008,-7.118215 10.4262,-8.010375 0.71571,13.602806 3.81447,15.766453 3.81447,15.766453 0,0 0.61371,-4.154088 1.90723,-7.883226 1.80212,-0.423269 2.8079,0.706341 4.83165,3.305869 -3.57079,14.424368 -0.47773,23.698602 -0.47773,23.698602 0,0 -7.55487,19.622409 -9.46543,29.440569 z"
     id="path3867"
     inkscape:connector-curvature="0"
     sodipodi:nodetypes="ccccccccccccccccccccc" />
  <g
     id="g3889"
     transform="translate(4.5056381,-28.013344)">
    <title
       id="title3895">Right Pulmonary Veins</title>
    <path
       sodipodi:nodetypes="ccccccccccccccc"
       inkscape:connector-curvature="0"
       id="path3883"
       d="m 168.47218,175.15319 c -12.06166,3.77976 -9.19794,11.36898 -29.75282,28.35418 -1.33542,-0.41359 -1.26287,-4.66042 -0.5086,-5.84884 1.26287,-0.67983 2.41583,-0.89004 2.41583,-0.89004 0,0 -1.23205,0.75441 -2.92443,-0.25429 -0.49013,-0.92689 0.003,-1.49089 0.12715,-4.45021 4.25815,-0.0174 18.61139,-18.13721 19.3941,-18.99389 -1.0328,-1.61047 -0.70877,-0.69111 -1.21182,-2.36711 -5.01426,2.55324 -12.64559,9.93373 -18.43658,13.09632 -1.84937,-4.33919 -1.32979,-7.63334 -1.65293,-11.44339 8.19583,-4.44579 16.78364,-10.17191 16.78364,-10.17191 0,0 -8.0632,-3.95003 -17.80083,-4.32306 -0.58292,-3.9332 -0.57451,-5.25572 0.50859,-8.13752 15.70521,4.23854 29.49853,2.79727 29.49853,2.79727 0,0 6.84856,12.74959 3.56017,22.63249 z"
       style="fill:#d93016;fill-opacity:1;stroke:#000000;stroke-width:1px;stroke-linecap:butt;stroke-linejoin:miter;stroke-opacity:1" />
    <path
       sodipodi:nodetypes="cccccccccccccc"
       inkscape:connector-curvature="0"
       id="path3885"
       d="m 171.90519,197.53139 c 0,0 -0.21596,13.4265 -9.15471,48.31654 -3.3442,0.43271 -3.16931,0.45333 -6.86604,-1.01719 2.53357,-23.21297 6.86604,-35.98311 6.86604,-35.98311 0,0 -4.17621,16.57624 -15.00356,36.49171 -2.43553,0.84315 -3.96717,2.28731 -6.73888,0.38145 1.16989,-5.33889 4.1959,-11.82484 4.1959,-11.82484 0,0 -4.69644,5.89684 -8.01037,11.82483 -3.94967,-1.95524 -4.46363,-5.12689 -4.57736,-10.93479 6.7523,-4.02782 26.8284,-35.85597 26.8284,-35.85597 0,0 -10.76911,13.88607 -16.02075,15.76645 -2.58152,-0.53545 -4.07456,-2.83989 -4.9588,-6.73888 14.75507,-7.84061 28.09989,-31.15146 28.09989,-31.15146 z"
       style="fill:#d93016;fill-opacity:1;stroke:#000000;stroke-width:1px;stroke-linecap:butt;stroke-linejoin:miter;stroke-opacity:1" />
  </g>
  <path
     id="path3872"
     style="fill:#1200a6;fill-opacity:1;stroke:#000000;stroke-width:1px;stroke-linecap:butt;stroke-linejoin:miter;stroke-opacity:1"
     d="m 201.23064,153.92502 c -19.18441,-3.18668 -25.54374,17.84452 -27.87138,10.12563 -21.25338,-70.480274 8.13753,-104.516332 8.13753,-104.516332 0,0 7.01521,-22.728758 6.61173,-42.722001 6.46256,-5.243981 12.30905,-7.1126598 18.81803,-1.271488 0.66013,25.167792 -3.46477,29.544127 -5.84885,36.36456 4.73625,-10.217508 25.99814,-18.512745 38.14465,-18.309428 -0.0598,6.306459 0.001,6.538454 0.76289,13.986369 -67.89872,22.705772 -40.93119,103.42623 -38.7546,106.34269 z"
     inkscape:connector-curvature="0"
     sodipodi:nodetypes="csccccccc" />
  <path
     style="fill:#1200a6;fill-opacity:1;stroke:#000000;stroke-width:1px;stroke-linecap:butt;stroke-linejoin:miter;stroke-opacity:1"
     d="m 215.32179,280.99526 c 0,0 1.06772,-4.04637 7.12033,24.36947 -8.33264,5.39944 -12.82299,4.35418 -21.9375,1.0789 2.06845,-7.26094 1.62673,-5.43575 1.43852,-12.22746 -13.49757,-38.2647 -10.78893,-26.40824 -10.78893,-26.40824 z"
     id="path3887"
     inkscape:connector-curvature="0"
     sodipodi:nodetypes="cccccc">
    <title
       id="title3897">Inferior Vena Cava</title>
  </path>
  <path
     style="fill:url(#radialGradient6306);fill-opacity:1;stroke:none"
     d="m 290.4124,291.69875 c -43.59066,15.39741 -81.03915,-6.2623 -100.33709,-26.97233 -19.29795,-20.71004 -12.58709,-64.73361 -12.58709,-64.73361 l 3.95594,-16.1834 -4.6752,-17.62193 c 0,0 7.57359,-15.10039 29.48975,-10.78893 8.60981,1.79404 15.46414,14.74487 15.46414,14.74487 l 16.90267,-5.39447 c 0,0 14.68993,1.08803 19.06045,10.06968 -1.5634,20.66966 -4.07712,16.11704 -6.83299,37.76127 2.99823,20.92497 40.35398,52.57287 39.55942,79.11885 z"
     id="path3901"
     inkscape:connector-curvature="0"
     sodipodi:nodetypes="csccccccccc">
    <desc
       id="desc3903"
       style="fill:url(#radialGradient6306);fill-opacity:1">Right Atrium</desc>
  </path>
  <path
     style="fill:#d93016;fill-opacity:1;stroke:#000000;stroke-width:1px;stroke-linecap:butt;stroke-linejoin:miter;stroke-opacity:1"
     d="m 219.19576,176.60711 c 0,0 -26.72013,-20.25553 -25.52413,-56.99186 -4.40386,-39.407114 24.2751,-46.931874 24.2751,-46.931874 0,0 -0.2763,-6.304114 -0.26973,-9.170593 1.98455,-2.686664 6.78823,-2.97299 9.97977,-2.157787 0.85393,2.613359 2.04194,3.985327 2.78714,6.113729 3.35252,-1.378002 5.71379,-1.413832 8.18161,-0.539446 1.20911,-2.991649 1.36702,-6.271898 2.69723,-8.181609 4.02744,-0.29137 7.59344,2.23275 8.45133,4.585297 -1.12008,2.442455 -1.97797,5.034836 -1.97797,5.034836 0,0 2.63154,1.770294 2.07559,4.257843 -0.64585,2.17286 2.22389,-0.23919 -0.95174,-3.853257 1.49957,-1.186558 6.24859,0.944031 6.24859,0.944031 0,0 1.16837,-2.916785 1.79815,-4.405481 2.24813,-0.94925 5.49996,0.0973 7.01281,2.337601 -1.3642,2.959562 -1.72357,5.269056 -0.53944,7.282536 24.02071,15.14001 17.53253,51.617154 16.54303,63.924434 -2.51793,1.87798 -3.05686,9.71004 -3.05686,9.71004 l -26.97234,-2.3376 c 0,0 15.30629,-44.97319 -13.48617,-46.03279 -29.33191,2.26699 -7.17908,37.57942 -3.68622,39.73924 2.05434,13.12858 4.70651,16.48754 4.70651,16.48754 z"
     id="path3879"
     inkscape:connector-curvature="0"
     sodipodi:nodetypes="ccccccccccccccccccccccc" />
  <path
     style="fill:url(#radialGradient6314);fill-opacity:1;stroke:none"
     d="m 263.38062,150.06428 c 7.7997,-6.00318 26.53666,-0.92756 35.93574,5.81051 14.97336,16.44811 8.49105,25.56814 13.55225,39.86082 7.93826,11.95508 11.71837,23.96737 11.63071,42.49546 -0.98675,24.82162 -1.24853,30.59378 -15.34513,53.73128 -20.21032,-16.06229 -47.30661,-53.44371 -55.84763,-75.11784 -1.34839,-23.11265 2.58303,-30.65484 4.98811,-41.35047 2.40508,-10.69563 1.96145,-14.75138 5.08595,-25.42976 z"
     id="path3940"
     inkscape:connector-curvature="0"
     sodipodi:nodetypes="cccccccc" />
  <path
     style="fill:#d7bfbd;fill-opacity:1;stroke:#000000;stroke-width:1px;stroke-linecap:butt;stroke-linejoin:miter;stroke-opacity:1"
     d="m 260.2019,170.28094 c 0,0 18.21802,14.14145 28.09988,33.31298 6.19455,12.17835 5.59455,27.84559 5.59455,27.84559 0,0 -1.78007,-15.00355 -9.6633,-28.98992 -3.17872,-3.05157 -4.01576,-4.28332 -6.10315,-2.92443 -6.66475,6.44485 -15.00356,-4.19591 -15.00356,-4.19591 0,0 7.07966,2.83742 9.40901,0.2543 2.9651,-1.05734 2.14378,-4.0765 -1.52578,-9.15472 -4.051,-4.31532 -13.09633,-12.46058 -13.09633,-12.46058 z"
     id="path3911"
     inkscape:connector-curvature="0"
     sodipodi:nodetypes="cccccccccc" />
  <path
     sodipodi:type="arc"
     style="fill:url(#linearGradient3931);fill-opacity:1;fill-rule:nonzero;stroke:none"
     id="path3913"
     sodipodi:cx="205.70901"
     sodipodi:cy="274.57837"
     sodipodi:rx="16.543034"
     sodipodi:ry="8.4513321"
     d="m 222.25205,274.57837 a 16.543034,8.4513321 0 1 1 -33.08607,0 16.543034,8.4513321 0 1 1 33.08607,0 z"
     transform="matrix(0.80065758,0.11566073,-0.14179903,0.65306964,74.023109,40.368703)" />
  <path
     style="fill:#d7bfbd;fill-opacity:1;stroke:#000000;stroke-width:1px;stroke-linecap:butt;stroke-linejoin:miter;stroke-opacity:1"
     d="m 218.24279,280.01036 c -4.10717,-2.19235 -10.93358,-1.13834 -12.71488,-12.46058 5.46619,-17.80684 23.01394,-18.30943 23.01394,-18.30943 0,0 -7.05001,-3.9035 -16.14791,1.39864 -6.05254,3.38919 -7.17999,4.00381 -13.71076,14.21048 -2.141,3.34608 -6.76019,2.95461 -6.76019,2.95461 0,0 21.6537,17.57736 26.3198,12.20628 z"
     id="path3909"
     inkscape:connector-curvature="0"
     sodipodi:nodetypes="ccccscc" />
  <path
     style="fill:#b08585;fill-opacity:1;stroke:#000000;stroke-width:1px;stroke-linecap:butt;stroke-linejoin:miter;stroke-opacity:1"
     d="m 322.59939,203.4093 c 0,0 4.59716,-0.71818 9.71004,6.47336 3.49454,8.45024 5.76618,27.12165 5.39447,40.27869 0.16774,8.30202 0.0108,11.10438 -2.3376,20.85861 0.16902,11.55238 -7.2143,25.71387 -13.12654,34.52459 -6.372,5.76355 -5.87649,5.83787 -19.95953,8.63114 -21.83415,-1.41122 -48.76558,-9.12428 -66.71158,-14.74487 -17.946,-5.6206 -32.49528,-12.06464 -41.17776,-17.80174 -8.68249,-5.7371 -8.75897,-7.2372 -11.5082,-11.86783 -2.74924,-4.63063 -3.38699,-6.65426 -4.85502,-14.38525 -5.42397,-7.55118 -10.81407,-29.70043 -8.81096,-37.94109 2.0031,-8.24066 7.91188,-8.27151 7.91188,-8.27151 0,0 -3.38233,39.81227 17.08248,61.31711 20.4648,21.50483 108.60861,36.14293 108.60861,36.14293 0,0 10.76589,-3.51535 16.72285,-13.48617 5.95696,-9.97082 12.17097,-30.4507 12.58709,-45.85297 0.41611,-15.40228 -9.53023,-43.875 -9.53023,-43.875 z"
     id="path3933"
     inkscape:connector-curvature="0"
     sodipodi:nodetypes="ccccccccccccccccc" />
  <path
     id="path3907"
     style="fill:#d7bfbd;fill-opacity:1;stroke:#000000;stroke-width:1px;stroke-linecap:butt;stroke-linejoin:miter;stroke-opacity:1"
     d="m 260.96479,176.25693 c -5.55324,11.01602 -6.35744,24.92117 -6.35744,24.92117 0,0 -3.01687,10.99442 8.77327,30.64286 -7.8011,-16.45485 -8.45662,-16.58162 -6.13282,-17.28444 2.32381,-0.70282 1.85489,0.72305 4.98849,-1.27929 1.09921,-6.07109 -1.0172,-14.87641 -1.0172,-14.87641 0,0 5.51595,7.52583 3.56017,11.95199 -1.44718,5.8248 -1.22573,5.99696 -4.70451,11.44339 11.52479,11.54959 35.9486,49.75508 42.84915,59.8871 3.70457,3.09521 6.41846,3.59017 8.08689,0.3188 6.80672,-13.34622 9.72213,-18.13791 10.98543,-29.05443 0.50041,-12.06086 -0.0106,-25.02539 -2.41582,-33.313 -3.93104,-22.65542 -8.79206,-17.72503 -10.9348,-19.45376 -8.37303,0.94139 -7.75608,30.89716 -7.75608,30.89716 0,0 -7.23012,-11.77227 -1.14434,-27.337 1.50843,-6.91861 3.55762,-10.60209 5.7217,-14.87641 7.12289,-28.17829 -14.62881,-40.97736 -39.28898,-35.47451 -3.80777,-9.62787 -10.65959,-4.7699 0.76289,-9.15471 38.25087,-1.4604 48.71393,21.62748 46.79076,43.99348 9.06255,9.1482 11.47318,12.93561 15.385,23.39538 3.91182,10.45977 5.15221,27.98607 5.21311,38.65324 -1.27921,13.035 -4.95881,24.15827 -4.95881,24.15827 0,0 -2.46859,14.86717 -6.86603,21.48815 -4.39744,6.62098 -14.53864,12.84614 -19.45377,13.60493 -15.0453,-2.22715 -31.93377,-6.07078 -52.89169,-10.89568 -25.42966,-5.85437 -39.45842,-13.44149 -57.72778,-25.21459 -7.80308,-9.43267 -15.54528,-25.69378 -17.29223,-37.38175 -2.76414,-15.37529 -0.55203,-31.97313 4.7045,-51.62242 -1.6095,-12.4018 -3.26202,-7.57786 -4.32305,-18.43657 3.64347,-7.9343 11.4814,-15.2835 24.92116,-12.33344 1.61491,3.07721 1.20895,2.27444 2.33495,3.76951 -19.85355,-6.13385 -23.23777,7.39814 -25.09459,9.19967 5.00922,11.71915 4.6932,9.23287 5.59455,15.38501 -2.02307,14.41681 -13.07319,47.91954 8.39182,80.48519 19.88855,19.22669 55.92497,26.21836 59.88709,27.337 6.48592,1.59259 15.26861,1.52889 29.11708,3.68732 3.74552,-1.71807 4.49431,-1.32311 5.92698,-5.17132 2.60288,-6.9914 -10.11929,-26.36789 -12.79302,-31.70184 -3.82166,-3.16612 -16.25908,-22.20193 -19.58092,-28.48133 -2.48738,-4.79264 -6.7055,-10.05132 -12.41889,-18.59804 -3.51731,-5.26157 -2.33037,-12.68057 -2.33037,-12.68057 0,0 0.40038,10.40602 7.24748,8.13752 6.84711,-2.2685 5.9957,-22.28563 9.53617,-29.24422 -2.43552,-6.32285 -18.25159,-15.38873 -32.86797,-4.51379 -4.44447,9.60347 -5.9003,14.47057 -5.27668,27.27342 2.658,-0.0392 5.69875,2.38312 11.95199,-6.61173 0.53154,3.72003 -0.13066,5.65156 -1.39864,8.01037 -5.33673,2.10451 -6.22139,2.54818 -9.15471,8.90042 -1.66453,4.26861 1.60852,17.12656 6.86604,25.68405 2.60953,6.33183 3.05156,8.13753 3.05156,8.13753 0,0 -3.34563,-1.99179 -8.01037,-9.28186 -13.81946,-36.66144 -2.72732,-59.15831 -2.79727,-65.60879 20.1467,-11.79073 41.53634,-1.47985 42.34055,8.51897 z"
     inkscape:connector-curvature="0"
     sodipodi:nodetypes="cccscccccscccccccccsccscscccccccccccsccscsccccccccccc" />
  <path
     style="fill:#1200a6;fill-opacity:1;stroke:#000000;stroke-width:1px;stroke-linecap:butt;stroke-linejoin:miter;stroke-opacity:1"
     d="m 260.3832,173.20029 c -14.19542,-19.12952 -41.17776,-5.93392 -41.17776,-5.93392 0,0 12.00049,-24.05262 13.12653,-37.76127 -4.73714,-1.10348 -5.70192,-3.31079 -9.45355,-7.99695 -1.75558,-6.29548 -2.35929,-12.0456 2.68975,-17.7656 14.71919,6.94687 54.9516,4.28483 79.94874,-14.336324 3.05964,-4.77535 5.65684,-8.51187 4.49539,-13.30635 1.89542,-2.99632 3.83142,-3.62177 8.45133,-4.495393 -0.23511,8.117153 -2.51741,12.766903 -2.51741,12.766903 0,0 4.4209,-0.10635 8.63114,1.43853 -0.28515,3.88248 2.65895,7.52973 -0.89908,20.678794 -12.54881,8.83349 -48.20058,-3.34742 -63.29508,66.71158 z"
     id="path3877"
     inkscape:connector-curvature="0"
     sodipodi:nodetypes="cccccccccccc" />
  <path
     sodipodi:type="arc"
     style="fill:url(#linearGradient3923);fill-opacity:1;fill-rule:nonzero;stroke:none"
     id="path3915"
     sodipodi:cx="270.98206"
     sodipodi:cy="185.92931"
     sodipodi:rx="16.363216"
     sodipodi:ry="7.1926231"
     d="m 287.34527,185.92931 a 16.363216,7.1926231 0 1 1 -32.72643,0 16.363216,7.1926231 0 1 1 32.72643,0 z"
     transform="matrix(-0.81640284,-0.16628689,-0.20714004,0.65538794,540.28849,83.053026)" />
  <text
     xml:space="preserve"
     style="font-size:56px;font-style:normal;font-variant:normal;font-weight:normal;font-stretch:normal;text-align:end;line-height:125%;letter-spacing:0px;word-spacing:0px;text-anchor:end;fill:#000000;fill-opacity:1;stroke:none;font-family:Sans;-inkscape-font-specification:snap"
     x="110.47217"
     y="154.64163"
     id="text3977"
     sodipodi:linespacing="125%"><tspan
       sodipodi:role="line"
       id="tspan3979"
       x="110.47217"
       y="154.64163"
       style="font-size:9px;text-align:end;text-anchor:end">Right Pulmonary Veins</tspan></text>
  <path
     style="fill:none;stroke:#000000;stroke-width:1px;stroke-linecap:butt;stroke-linejoin:miter;stroke-opacity:1;marker-start:url(#Arrow1Mstart);marker-end:url(#Arrow1Mend)"
     d="m 133.18024,146.50411 -19.32663,6.10314 29.49853,37.12745"
     id="path3981"
     inkscape:connector-curvature="0"
     sodipodi:nodetypes="ccc" />
  <text
     xml:space="preserve"
     style="font-size:56px;font-style:normal;font-variant:normal;font-weight:normal;font-stretch:normal;text-align:end;line-height:125%;letter-spacing:0px;word-spacing:0px;text-anchor:end;fill:#000000;fill-opacity:1;stroke:none;font-family:Sans;-inkscape-font-specification:snap"
     x="108.43542"
     y="201.88092"
     id="text3977-4"
     sodipodi:linespacing="125%"><tspan
       sodipodi:role="line"
       id="tspan3979-1"
       x="108.43542"
       y="201.88092"
       style="font-size:9px;text-align:end;text-anchor:end">Right Atrium</tspan></text>
  <path
     style="fill:none;stroke:#000000;stroke-width:1px;stroke-linecap:butt;stroke-linejoin:miter;stroke-opacity:1;marker-mid:none;marker-end:url(#Arrow1Mend-5)"
     d="m 111.31064,198.88942 80.35805,0"
     id="path5042"
     inkscape:connector-curvature="0"
     sodipodi:nodetypes="cc" />
  <path
     style="fill:none;stroke:#000000;stroke-width:1px;stroke-linecap:butt;stroke-linejoin:miter;stroke-opacity:1;marker-mid:none;marker-end:url(#Arrow1Mend-5)"
     d="m 126.70209,255.85209 73.23772,0"
     id="path5042-9"
     inkscape:connector-curvature="0"
     sodipodi:nodetypes="cc" />
  <text
     xml:space="preserve"
     style="font-size:56px;font-style:normal;font-variant:normal;font-weight:normal;font-stretch:normal;text-align:end;line-height:125%;letter-spacing:0px;word-spacing:0px;text-anchor:end;fill:#000000;fill-opacity:1;stroke:none;font-family:Sans;-inkscape-font-specification:snap"
     x="124.34944"
     y="258.33499"
     id="text3977-4-4"
     sodipodi:linespacing="125%"><tspan
       sodipodi:role="line"
       id="tspan3979-1-2"
       x="124.34944"
       y="258.33499"
       style="font-size:9px;text-align:end;text-anchor:end">Tricuspid Valve</tspan></text>
  <path
     style="fill:none;stroke:#000000;stroke-width:1px;stroke-linecap:butt;stroke-linejoin:miter;stroke-opacity:1;marker-mid:none;marker-end:url(#Arrow1Mend-5)"
     d="m 159.25219,279.24747 80.35805,0"
     id="path5042-3"
     inkscape:connector-curvature="0"
     sodipodi:nodetypes="cc" />
  <text
     xml:space="preserve"
     style="font-size:56px;font-style:normal;font-variant:normal;font-weight:normal;font-stretch:normal;text-align:end;line-height:125%;letter-spacing:0px;word-spacing:0px;text-anchor:end;fill:#000000;fill-opacity:1;stroke:none;font-family:Sans;-inkscape-font-specification:snap"
     x="154.97958"
     y="281.2218"
     id="text3977-4-4-1"
     sodipodi:linespacing="125%"><tspan
       sodipodi:role="line"
       id="tspan3979-1-2-7"
       x="154.97958"
       y="281.2218"
       style="font-size:9px;text-align:end;text-anchor:end">Right Ventricle</tspan></text>
  <text
     xml:space="preserve"
     style="font-size:56px;font-style:normal;font-variant:normal;font-weight:normal;font-stretch:normal;text-align:end;line-height:125%;letter-spacing:0px;word-spacing:0px;text-anchor:end;fill:#000000;fill-opacity:1;stroke:none;font-family:Sans;-inkscape-font-specification:snap"
     x="147.31018"
     y="302.58279"
     id="text3977-4-4-5"
     sodipodi:linespacing="125%"><tspan
       sodipodi:role="line"
       id="tspan3979-1-2-2"
       x="147.31018"
       y="302.58279"
       style="font-size:9px;text-align:end;text-anchor:end">Inferior Vena Cava</tspan></text>
  <path
     style="fill:none;stroke:#000000;stroke-width:1px;stroke-linecap:butt;stroke-linejoin:miter;stroke-opacity:1;marker-mid:none;marker-end:url(#Arrow1Mend-5)"
     d="m 152.13186,300.09987 43.73919,0"
     id="path5042-3-2"
     inkscape:connector-curvature="0"
     sodipodi:nodetypes="cc" />
  <path
     style="fill:none;stroke:#000000;stroke-width:1px;stroke-linecap:butt;stroke-linejoin:miter;stroke-opacity:1;marker-mid:none;marker-end:url(#Arrow1Mend-5)"
     d="m 354.28558,257.37787 -43.73919,0"
     id="path5042-3-2-1"
     inkscape:connector-curvature="0"
     sodipodi:nodetypes="cc" />
  <path
     style="fill:none;stroke:#000000;stroke-width:1px;stroke-linecap:butt;stroke-linejoin:miter;stroke-opacity:1;marker-mid:none;marker-end:url(#Arrow1Mend-5)"
     d="m 344.62227,218.72464 -43.73919,0"
     id="path5042-3-2-1-7"
     inkscape:connector-curvature="0"
     sodipodi:nodetypes="cc" />
  <path
     style="fill:none;stroke:#000000;stroke-width:1px;stroke-linecap:butt;stroke-linejoin:miter;stroke-opacity:1;marker-mid:none;marker-end:url(#Arrow1Mend-5)"
     d="m 343.60508,195.32926 -63.06581,0"
     id="path5042-3-2-1-5"
     inkscape:connector-curvature="0"
     sodipodi:nodetypes="cc" />
  <path
     style="fill:none;stroke:#000000;stroke-width:1px;stroke-linecap:butt;stroke-linejoin:miter;stroke-opacity:1;marker-mid:none;marker-end:url(#Arrow1Mend-5)"
     d="m 340.04491,178.54561 -43.73919,0"
     id="path5042-3-2-1-9"
     inkscape:connector-curvature="0"
     sodipodi:nodetypes="cc" />
  <path
     style="fill:none;stroke:#000000;stroke-width:1px;stroke-linecap:butt;stroke-linejoin:miter;stroke-opacity:1;marker-mid:none;marker-end:url(#Arrow1Mend-5)"
     d="m 347.16524,144.46973 -16.27505,0"
     id="path5042-3-2-1-3"
     inkscape:connector-curvature="0"
     sodipodi:nodetypes="cc" />
  <path
     style="fill:none;stroke:#000000;stroke-width:1px;stroke-linecap:butt;stroke-linejoin:miter;stroke-opacity:1;marker-mid:none;marker-end:url(#Arrow1Mend-5)"
     d="m 353.26839,92.084406 -24.92117,0"
     id="path5042-3-2-1-59"
     inkscape:connector-curvature="0"
     sodipodi:nodetypes="cc" />
  <path
     style="fill:none;stroke:#000000;stroke-width:1px;stroke-linecap:butt;stroke-linejoin:miter;stroke-opacity:1;marker-end:url(#Arrow1Mend-5-8)"
     d="m 351.3676,57.499937 -58.48846,0 -23.39538,17.292239"
     id="path5840"
     inkscape:connector-curvature="0" />
  <text
     xml:space="preserve"
     style="font-size:56px;font-style:normal;font-variant:normal;font-weight:normal;font-stretch:normal;line-height:125%;letter-spacing:0px;word-spacing:0px;fill:#000000;fill-opacity:1;stroke:none;font-family:Sans;-inkscape-font-specification:snap"
     x="356.5817"
     y="261.75027"
     id="text3977-4-4-5-7"
     sodipodi:linespacing="125%"><tspan
       sodipodi:role="line"
       id="tspan3979-1-2-2-1"
       x="356.5817"
       y="261.75027"
       style="font-size:9px;text-align:start;text-anchor:start">Left Ventricle</tspan></text>
  <text
     xml:space="preserve"
     style="font-size:56px;font-style:normal;font-variant:normal;font-weight:normal;font-stretch:normal;text-align:end;line-height:125%;letter-spacing:0px;word-spacing:0px;text-anchor:end;fill:#000000;fill-opacity:1;stroke:none;font-family:Sans;-inkscape-font-specification:snap"
     x="113.7126"
     y="114.91113"
     id="text3977-4-3"
     sodipodi:linespacing="125%"><tspan
       sodipodi:role="line"
       id="tspan3979-1-6"
       x="113.7126"
       y="114.91113"
       style="font-size:9px;text-align:end;text-anchor:end">Superior Vena Cava</tspan></text>
  <path
     style="fill:none;stroke:#000000;stroke-width:1px;stroke-linecap:butt;stroke-linejoin:miter;stroke-opacity:1;marker-mid:none;marker-end:url(#Arrow1Mend-5)"
     d="m 116.0216,112.93683 45.26498,0"
     id="path5042-7"
     inkscape:connector-curvature="0"
     sodipodi:nodetypes="cc" />
  <text
     xml:space="preserve"
     style="font-size:56px;font-style:normal;font-variant:normal;font-weight:normal;font-stretch:normal;line-height:125%;letter-spacing:0px;word-spacing:0px;fill:#000000;fill-opacity:1;stroke:none;font-family:Sans;-inkscape-font-specification:snap"
     x="346.98486"
     y="222.07983"
     id="text3977-4-4-5-7-3"
     sodipodi:linespacing="125%"><tspan
       sodipodi:role="line"
       id="tspan3979-1-2-2-1-2"
       x="346.98486"
       y="222.07983"
       style="font-size:9px;text-align:start;text-anchor:start">Mitral Valve</tspan></text>
  <text
     xml:space="preserve"
     style="font-size:56px;font-style:normal;font-variant:normal;font-weight:normal;font-stretch:normal;line-height:125%;letter-spacing:0px;word-spacing:0px;fill:#000000;fill-opacity:1;stroke:none;font-family:Sans;-inkscape-font-specification:snap"
     x="345.65948"
     y="198.68448"
     id="text3977-4-4-5-7-3-2"
     sodipodi:linespacing="125%"><tspan
       sodipodi:role="line"
       id="tspan3979-1-2-2-1-2-8"
       x="345.65948"
       y="198.68448"
       style="font-size:9px;text-align:start;text-anchor:start">Aortic Valve</tspan></text>
  <text
     xml:space="preserve"
     style="font-size:56px;font-style:normal;font-variant:normal;font-weight:normal;font-stretch:normal;line-height:125%;letter-spacing:0px;word-spacing:0px;fill:#000000;fill-opacity:1;stroke:none;font-family:Sans;-inkscape-font-specification:snap"
     x="344.1337"
     y="181.90082"
     id="text3977-4-4-5-7-3-4"
     sodipodi:linespacing="125%"><tspan
       sodipodi:role="line"
       id="tspan3979-1-2-2-1-2-1"
       x="344.1337"
       y="181.90082"
       style="font-size:9px;text-align:start;text-anchor:start">Left Atrium</tspan></text>
  <text
     xml:space="preserve"
     style="font-size:56px;font-style:normal;font-variant:normal;font-weight:normal;font-stretch:normal;line-height:125%;letter-spacing:0px;word-spacing:0px;fill:#000000;fill-opacity:1;stroke:none;font-family:Sans;-inkscape-font-specification:snap"
     x="350.20956"
     y="147.31638"
     id="text3977-4-4-5-7-3-4-8"
     sodipodi:linespacing="125%"><tspan
       sodipodi:role="line"
       id="tspan3979-1-2-2-1-2-1-3"
       x="350.20956"
       y="147.31638"
       style="font-size:9px;text-align:start;text-anchor:start">Left Pulmonary Veins</tspan></text>
  <text
     xml:space="preserve"
     style="font-size:56px;font-style:normal;font-variant:normal;font-weight:normal;font-stretch:normal;line-height:125%;letter-spacing:0px;word-spacing:0px;fill:#000000;fill-opacity:1;stroke:none;font-family:Sans;-inkscape-font-specification:snap"
     x="356.31271"
     y="95.948235"
     id="text3977-4-4-5-7-3-4-5"
     sodipodi:linespacing="125%"><tspan
       sodipodi:role="line"
       id="tspan3979-1-2-2-1-2-1-2"
       x="356.31271"
       y="95.948235"
       style="font-size:9px;text-align:start;text-anchor:start">Pulmonary Artery</tspan></text>
  <text
     xml:space="preserve"
     style="font-size:56px;font-style:normal;font-variant:normal;font-weight:normal;font-stretch:normal;line-height:125%;letter-spacing:0px;word-spacing:0px;fill:#000000;fill-opacity:1;stroke:none;font-family:Sans;-inkscape-font-specification:snap"
     x="352.75253"
     y="60.855156"
     id="text3977-4-4-5-7-3-4-6"
     sodipodi:linespacing="125%"><tspan
       sodipodi:role="line"
       id="tspan3979-1-2-2-1-2-1-0"
       x="352.75253"
       y="60.855156"
       style="font-size:9px;text-align:start;text-anchor:start">Aorta</tspan></text>
  <path
     style="fill:url(#radialGradient6241);fill-opacity:1;stroke:none"
     d="m 230.62373,126.08861 c -3.97331,-5.50014 10.19561,-11.25727 10.87884,-14.65497 0.68323,-3.3977 1.36353,-10.53517 -0.44954,-13.665994 -1.81307,-3.13082 -24.2099,-9.656938 -23.01639,-14.565058 10.3641,-13.359452 31.52032,-17.807039 44.41445,-2.607323 1.56574,5.30986 -13.58913,12.599211 -15.64396,16.453121 -2.05483,3.853914 0.002,11.627774 1.43852,15.194424 1.43603,3.56665 23.25126,3.3198 22.83658,12.85681 -7.6073,14.93149 -23.26875,23.4817 -40.4585,0.98899 z"
     id="path6233"
     inkscape:connector-curvature="0"
     sodipodi:nodetypes="ccccccccc" />
  <path
     style="fill:none;stroke:#000000;stroke-width:1px;stroke-linecap:butt;stroke-linejoin:miter;stroke-opacity:1"
     d="m 240.87321,97.408026 c 2.64372,6.019144 1.44967,10.359254 0.35963,14.744874 m 7.01281,0.44954 c -2.13985,-4.07117 -2.22822,-9.72041 -1.25871,-16.183404"
     id="path6231"
     inkscape:connector-curvature="0"
     sodipodi:nodetypes="cccc" />
  <text
     xml:space="preserve"
     style="font-size:56px;font-style:normal;font-variant:normal;font-weight:normal;font-stretch:normal;text-align:center;line-height:125%;letter-spacing:0px;word-spacing:0px;text-anchor:middle;fill:#000000;fill-opacity:1;stroke:none;font-family:Sans;-inkscape-font-specification:snap"
     x="270.56717"
     y="16.561035"
     id="text3977-4-4-5-7-3-4-6-7"
     sodipodi:linespacing="125%"><tspan
       sodipodi:role="line"
       id="tspan3979-1-2-2-1-2-1-0-2"
       x="270.56717"
       y="16.561035"
       style="font-size:9px;text-align:center;text-anchor:middle">Patent</tspan><tspan
       sodipodi:role="line"
       x="270.56717"
       y="27.811035"
       style="font-size:9px;text-align:center;text-anchor:middle"
       id="tspan6272">Ductus</tspan><tspan
       sodipodi:role="line"
       x="270.56717"
       y="39.061035"
       style="font-size:9px;text-align:center;text-anchor:middle"
       id="tspan6274">Arteriosus</tspan></text>
  <path
     style="fill:none;stroke:#000000;stroke-width:1px;stroke-linecap:butt;stroke-linejoin:miter;stroke-opacity:1;marker-mid:none;marker-end:url(#Arrow1Mend-5)"
     d="M 270.52155,41.755098 244.53208,94.122866"
     id="path5042-3-2-1-59-0"
     inkscape:connector-curvature="0"
     sodipodi:nodetypes="cc" />
  <path
     sodipodi:type="arc"
     style="fill:none;stroke:#ffff09;stroke-opacity:1;stroke-width:2;stroke-miterlimit:4;stroke-dasharray:none"
     id="path6794"
     sodipodi:cx="250.21336"
     sodipodi:cy="107.81812"
     sodipodi:rx="29.040215"
     sodipodi:ry="30.928278"
     d="m 279.25358,107.81812 a 29.040215,30.928278 0 1 1 -58.08043,0 29.040215,30.928278 0 1 1 58.08043,0 z"
     transform="translate(-5.5742827,-1.9779712)" />
</svg>
