<?xml version="1.0" encoding="UTF-8" standalone="no"?>
<!-- Creator: CorelDRAW -->

<svg
   xmlns:dc="http://purl.org/dc/elements/1.1/"
   xmlns:cc="http://creativecommons.org/ns#"
   xmlns:rdf="http://www.w3.org/1999/02/22-rdf-syntax-ns#"
   xmlns:svg="http://www.w3.org/2000/svg"
   xmlns="http://www.w3.org/2000/svg"
   xmlns:sodipodi="http://sodipodi.sourceforge.net/DTD/sodipodi-0.dtd"
   xmlns:inkscape="http://www.inkscape.org/namespaces/inkscape"
   xml:space="preserve"
   width="1200"
   height="700"
   style="shape-rendering:geometricPrecision; text-rendering:geometricPrecision; image-rendering:optimizeQuality; fill-rule:evenodd"
   viewBox="0 0 852 768"
   id="svg2"
   sodipodi:version="0.32"
   inkscape:version="0.47 r22583"
   sodipodi:docname="Spinal_nerve.svg"
   inkscape:output_extension="org.inkscape.output.svg.inkscape"
   version="1.0"><metadata
   id="metadata68"><rdf:RDF><cc:Work
       rdf:about=""><dc:format>image/svg+xml</dc:format><dc:type
         rdf:resource="http://purl.org/dc/dcmitype/StillImage" /></cc:Work></rdf:RDF></metadata><sodipodi:namedview
   inkscape:cy="-169.81922"
   inkscape:cx="457.81122"
   inkscape:zoom="0.21707918"
   inkscape:window-height="722"
   inkscape:window-width="1024"
   inkscape:pageshadow="2"
   inkscape:pageopacity="0.0"
   guidetolerance="10.0"
   gridtolerance="10.0"
   objecttolerance="10.0"
   borderopacity="1.0"
   bordercolor="#666666"
   pagecolor="#ffffff"
   id="base"
   width="1200px"
   height="700px"
   inkscape:window-x="0"
   inkscape:window-y="0"
   inkscape:current-layer="svg2"
   showgrid="false"
   inkscape:window-maximized="1" />
 <defs
   id="defs4"><style
     type="text/css"
     id="style6">
   
    .str3 {stroke:#0000FF}
    .str1 {stroke:#0000FF}
    .str2 {stroke:#FF0000}
    .str0 {stroke:#000000;stroke-width:3}
    .fil1 {fill:none}
    .fil4 {fill:#000000}
    .fil7 {fill:#0000FF}
    .fil5 {fill:#0000FF}
    .fil3 {fill:#BDC9A7}
    .fil2 {fill:#EBEBEB}
    .fil0 {fill:#F5FFFF}
    .fil6 {fill:#FF0000}
    .fnt0 {font-weight:normal;font-size:35;font-family:Arial}
   
  </style></defs>
 
<path
   style="fill:#f5ffff;fill-rule:evenodd;stroke:#000000;stroke-width:3.2914288"
   sodipodi:nodetypes="cccccccccccccsccccccccscccc"
   id="path3249"
   d="M -37.977131,286.58862 C -35.782841,276.7143 -1.4004192,245.75929 -3.5947092,256.73072 C 39.448109,301.04598 98.417759,339.05687 123.56122,344.31454 C 155.52171,347.44854 178.5607,337.58134 185.14355,333.19284 C 310.3752,253.38374 419.72844,162.80693 540.41416,104.65836 C 617.21416,73.938356 696.20843,67.355496 778.49413,96.978356 C 771.91133,115.62979 766.42563,135.37836 760.93993,154.02979 C 686.33413,130.98979 620.50559,133.18408 560.16273,160.61265 C 454.83701,212.17836 368.16273,282.39549 278.19701,348.22409 C 266.12844,359.19549 277.09986,366.87549 290.26558,372.36119 C 406.56273,418.44119 533.8313,539.12699 655.61413,586.30409 C 688.52843,611.53839 721.44273,636.77269 755.45413,662.00699 C 670.97413,663.10409 574.42559,630.18979 462.51701,547.90409 C 360.48272,471.10409 268.30714,412.72109 199.53549,411.84149 C 186.8969,411.67979 176.43281,411.28944 166.38469,413.83214 C 167.53345,428.24764 180.22808,496.63724 184.96195,508.70724 L 163.33683,514.70894 C 152.91272,491.81344 150.75574,436.50914 141.91105,417.08824 L 106.90882,417.88144 C 109.10311,427.75574 124.37542,503.05264 124.09302,521.27934 L 102.53547,520.64754 C 96.533699,504.86784 86.163789,442.59714 80.162029,417.02514 L 49.374619,428.16143 C 44.782969,429.8223 10.649185,441.67467 -21.479599,462.11512 C -30.078636,454.38022 -44.233367,437.44007 -52.561492,426.27552 C -27.300211,410.15202 87.262139,381.11515 81.079199,376.46865 C 39.003459,348.62855 2.2179228,327.05769 -37.977131,286.58862 z "
   class="fil0 str0" /><circle
   style="fill:#f5ffff;fill-rule:evenodd;stroke:#000000;stroke-width:3"
   sodipodi:ry="66"
   sodipodi:rx="66"
   sodipodi:cy="166"
   sodipodi:cx="316"
   id="circle3251"
   r="66"
   cy="166"
   cx="316"
   class="fil0 str0"
   transform="matrix(1.0971429,0,0,1.0971429,89.488419,20.178346)" /><path
   style="fill:#f5ffff;fill-rule:evenodd"
   id="path3253"
   d="M 361.57987,215.46979 C 399.97987,188.04122 440.57416,159.51551 482.26559,137.57265 L 516.27702,181.45836 C 473.48844,207.78979 425.21416,237.41265 382.42558,269.22979 L 361.57987,215.46979 z "
   class="fil0" /><path
   style="fill:none;fill-rule:evenodd;stroke:#0000ff;stroke-width:2.74285714;stroke-miterlimit:4;stroke-dasharray:none"
   sodipodi:nodetypes="cssc"
   id="path3255"
   d="M -44.033257,238.87516 C -0.017805222,286.49292 55.516479,330.35336 98.464939,349.43224 C 133.43371,364.96632 182.78033,359.36817 213.1832,337.66009 C 412.69162,195.20827 613.92273,51.995496 762.03703,114.53265"
   class="fil1 str1" /><path
   style="fill:none;fill-rule:evenodd;stroke:#0000ff;stroke-width:2.74285714;stroke-miterlimit:4;stroke-dasharray:none"
   sodipodi:nodetypes="cscc"
   id="path3257"
   d="M -53.673875,441.92153 C 1.8805018,410.76936 42.763059,398.33418 90.206199,381.4628 C 142.4597,362.88078 176.93115,384.06874 225.53415,350.41839 C 437.28273,191.33265 650.12845,58.578356 763.13413,134.28122"
   class="fil1 str1" /><path
   style="fill:none;fill-rule:evenodd;stroke:#ff0000;stroke-width:2.74285714;stroke-miterlimit:4;stroke-dasharray:none"
   sodipodi:nodetypes="cssc"
   id="path3259"
   d="M 680.84843,601.66409 C 642.44845,655.42409 348.32061,393.69525 243.52816,379.35144 C 180.54702,370.73069 122.95265,383.52816 84.410289,364.86784 C 38.719349,342.74653 -13.071896,300.17652 -56.482363,247.27737"
   class="fil1 str2" /><path
   style="fill:none;fill-rule:evenodd;stroke:#ff0000;stroke-width:2.74285714;stroke-miterlimit:4;stroke-dasharray:none"
   sodipodi:nodetypes="cssc"
   id="path3261"
   d="M 697.30563,613.73269 C 652.32274,693.82409 345.45375,408.80455 235.00105,397.31319 C 192.62984,392.90494 128.34323,379.90773 86.659499,396.01414 C 21.171473,421.31843 -8.5354732,434.3823 -37.934739,456.42468"
   class="fil1 str2" /><path
   style="fill:#ebebeb;fill-rule:evenodd;stroke:#000000;stroke-width:3.2914288"
   id="path3263"
   d="M 1053.877,633.48119 C 1030.837,638.96699 1007.797,618.12119 985.85418,586.30409 C 934.28838,741.00129 609.53416,682.85269 611.72845,512.79549 C 620.50559,288.97839 663.29413,125.50408 779.59133,89.298356 C 940.87128,59.675496 994.63128,163.90408 983.65988,355.90409 C 975.97988,193.52694 1004.5056,114.53265 1059.3627,118.92122 C 1057.1685,291.17269 1056.0713,462.32699 1053.877,633.48119 z "
   class="fil2 str0" /><path
   style="fill:#bdc9a7;fill-rule:evenodd"
   id="path3265"
   d="M 1053.8447,377.36084 C 919.99319,398.20664 867.29805,298.64894 857.42385,160.40896 C 856.32665,120.91182 715.89235,114.32896 744.41805,165.89467 C 799.27525,239.40324 779.52665,309.62044 725.76665,376.54614 C 647.86955,484.06614 695.04665,616.82044 790.49805,597.07184 C 865.10385,593.78044 922.1552,564.15754 975.91518,485.16324 C 994.56658,465.41464 1031.0547,481.46444 1052.9976,491.33874 L 1053.8447,377.36084 z "
   class="fil3"
   sodipodi:nodetypes="cccccccc" /><text
   style="font-size:38.40000153px;font-style:normal;font-variant:normal;font-weight:normal;font-stretch:normal;text-align:start;line-height:125%;writing-mode:lr-tb;text-anchor:start;fill:#000000;fill-rule:evenodd;font-family:Arial"
   id="text3267"
   class="fil4 fnt0"
   y="166.57477"
   x="-96.32106"
   sodipodi:linespacing="125%"><tspan
     sodipodi:role="line"
     id="tspan3269"
     x="-96.32106"
     y="166.57477">dorsal</tspan><tspan
     sodipodi:role="line"
     id="tspan3271"
     x="-96.32106"
     y="214.57477">ramus</tspan></text>


<text
   x="567.84277"
   y="59.675461"
   class="fil5 fnt0"
   id="text2198"
   style="font-size:38.40000153px;font-weight:normal;fill:#0000ff;fill-rule:evenodd;font-family:Arial">dorsal root</text>


<text
   style="font-size:38.40000153px;font-style:normal;font-variant:normal;font-weight:normal;font-stretch:normal;text-align:start;line-height:125%;writing-mode:lr-tb;text-anchor:start;fill:#ff0000;fill-rule:evenodd;font-family:Arial"
   id="text3275"
   class="fil6 fnt0"
   y="703.69836"
   x="567.84277"
   sodipodi:linespacing="125%"><tspan
     sodipodi:role="line"
     id="tspan2204"
     x="567.84277"
     y="703.69836">ventral root</tspan></text>


<text
   style="font-size:38.40000153px;font-style:normal;font-variant:normal;font-weight:normal;font-stretch:normal;text-align:start;line-height:125%;writing-mode:lr-tb;text-anchor:start;fill:#000000;fill-rule:evenodd;font-family:Arial"
   id="text3277"
   class="fil4 fnt0"
   y="470.25323"
   x="-180.05016"
   sodipodi:linespacing="125%"><tspan
     sodipodi:role="line"
     id="tspan3279"
     x="-180.05016"
     y="470.25323">ventral</tspan><tspan
     sodipodi:role="line"
     id="tspan3281"
     x="-180.05016"
     y="518.25324">ramus</tspan></text>


<text
   style="font-size:38.40000153px;font-style:normal;font-variant:normal;font-weight:normal;font-stretch:normal;text-align:start;line-height:125%;writing-mode:lr-tb;text-anchor:start;fill:#000000;fill-rule:evenodd;font-family:Arial"
   id="text3283"
   class="fil4 fnt0"
   y="145.86253"
   x="175.09734"
   sodipodi:linespacing="125%"><tspan
     sodipodi:role="line"
     id="tspan3285"
     x="175.09734"
     y="145.86253">spinal</tspan><tspan
     sodipodi:role="line"
     id="tspan3287"
     x="175.09734"
     y="193.86254">nerve</tspan></text>


<path
   style="fill:none;fill-rule:evenodd;stroke:#000000;stroke-width:3.2914288"
   id="path3289"
   d="M 188.56557,326.85948 L 191.78444,199.81483"
   class="fil1 str0"
   sodipodi:nodetypes="cc" /><text
   x="201.5694"
   y="560.53839"
   class="fil4 fnt0"
   id="text3291"
   style="font-size:38.40000153px;font-weight:normal;fill:#000000;fill-rule:evenodd;font-family:Arial">gray ramus</text>


<text
   style="font-size:38.40000153px;font-weight:normal;fill:#000000;fill-rule:evenodd;font-family:Arial"
   id="text3293"
   class="fil4 fnt0"
   y="613.25208"
   x="-32.514389">white ramus</text>


<path
   style="fill:none;fill-rule:evenodd;stroke:#0000ff;stroke-width:2.19428571;stroke-miterlimit:4;stroke-dasharray:none"
   id="path3295"
   d="M 430.69987,191.33265 C 435.08844,184.74979 431.79701,170.48693 426.3113,163.90408"
   class="fil1 str3" /><circle
   style="fill:#0000ff;fill-rule:evenodd"
   sodipodi:ry="4"
   sodipodi:rx="4"
   sodipodi:cy="132"
   sodipodi:cx="308"
   id="circle3297"
   r="4"
   cy="132"
   cx="308"
   class="fil7"
   transform="matrix(1.0971429,0,0,1.0971429,89.488419,20.178346)" /><path
   style="fill:none;fill-rule:evenodd;stroke:#0000ff;stroke-width:2.19428571;stroke-miterlimit:4;stroke-dasharray:none"
   id="path3299"
   d="M 437.28273,205.59551 C 432.89416,211.08122 435.08844,226.44122 440.57416,233.02408"
   class="fil1 str3" /><circle
   style="fill:#0000ff;fill-rule:evenodd"
   sodipodi:ry="4"
   sodipodi:rx="4"
   sodipodi:cy="193"
   sodipodi:cx="320"
   id="circle3301"
   r="4"
   cy="193"
   cx="320"
   class="fil7"
   transform="matrix(1.0971429,0,0,1.0971429,89.488419,20.178346)" /><text
   style="font-size:38.40000153px;font-weight:normal;fill:#000000;fill-rule:evenodd;font-family:Arial"
   id="text3303"
   class="fil4 fnt0"
   y="426.12122"
   x="815.79706">grey</text>


<text
   style="font-size:38.40000153px;font-weight:normal;fill:#000000;fill-rule:evenodd;font-family:Arial"
   id="text3305"
   class="fil4 fnt0"
   y="470.00696"
   x="815.79706">matter</text>


<text
   style="font-size:38.40000153px;font-weight:normal;fill:#000000;fill-rule:evenodd;font-family:Arial"
   id="text3307"
   class="fil4 fnt0"
   y="261.70718"
   x="656.27167">white</text>


<text
   style="font-size:38.40000153px;font-weight:normal;fill:#000000;fill-rule:evenodd;font-family:Arial"
   id="text3309"
   class="fil4 fnt0"
   y="305.59283"
   x="656.27167">matter</text>


<path
   style="opacity:1;color:#000000;fill:none;fill-opacity:0.75;fill-rule:evenodd;stroke:#000000;stroke-width:3.2914288;stroke-linecap:butt;stroke-linejoin:miter;marker:none;marker-start:none;marker-mid:none;marker-end:none;stroke-miterlimit:4;stroke-dasharray:none;stroke-dashoffset:0;stroke-opacity:1;visibility:visible;display:inline;overflow:visible"
   d="M 172.57924,475.92044 L 265.498,527.74054"
   id="path3311"
   sodipodi:nodetypes="cc" /><path
   style="opacity:1;color:#000000;fill:none;fill-opacity:0.75;fill-rule:evenodd;stroke:#000000;stroke-width:3.2914288;stroke-linecap:butt;stroke-linejoin:miter;marker:none;marker-start:none;marker-mid:none;marker-end:none;stroke-miterlimit:4;stroke-dasharray:none;stroke-dashoffset:0;stroke-opacity:1;visibility:visible;display:inline;overflow:visible"
   d="M 97.529469,477.70734 L 72.512889,586.70824"
   id="path3313"
   sodipodi:nodetypes="cc" /></svg>