<?xml version="1.0" encoding="utf-8"?>
<!-- Generator: Adobe Illustrator 19.0.0, SVG Export Plug-In . SVG Version: 6.00 Build 0)  -->
<!DOCTYPE svg PUBLIC "-//W3C//DTD SVG 1.1//EN" "http://www.w3.org/Graphics/SVG/1.1/DTD/svg11.dtd">
<svg version="1.1" xmlns="http://www.w3.org/2000/svg" xmlns:xlink="http://www.w3.org/1999/xlink" x="0px" y="0px" width="2000px"
	 height="1064.226px" viewBox="0 0 2000 1064.226" enable-background="new 0 0 2000 1064.226" xml:space="preserve">
<g id="Synapse">
	<path id="Dendrite_3_" fill="#FFF7F0" d="M329.756,1064.226c39.491-29.382,76.297-66.601,104.588-106.887
		c24.506-34.896,45.329-74.381,80.807-98.037c33.701-22.472,76.422-27.384,116.779-23.914c40.357,3.471,79.62,14.577,119.513,21.594
		c70.644,12.426,143.323,11.944,214.236,1.155c43.248-6.58,87.466-16.953,130.169-7.459
		c62.154,13.819,107.701,66.683,141.271,120.787c20.304,32.723,30.155,57.709,51.635,92.761"/>
	<g id="Density">
		<g id="XMLID_4_">
			<path id="XMLID_86_" fill="#CCCCCC" d="M553.942,846.755c0,0-0.154,0.071-0.454,0.207c-0.293,0.134-0.788,0.353-1.189,0.566
				c-0.892,0.443-2.369,1.246-4.04,2.429c-1.69,1.189-3.641,2.824-5.635,4.992c-1.992,2.165-4.009,4.879-5.8,8.114
				c-1.792,3.229-3.354,6.985-4.417,11.115c-1.049,4.198-1.754,8.876-2.249,13.813c-0.493,4.939-0.782,10.148-1.136,15.523
				c-0.182,2.69-0.38,5.418-0.644,8.174c-0.144,1.38-0.275,2.762-0.459,4.153l-0.13,1.042l-0.148,1.07l-0.298,2.016
				c-0.902,5.639-2.157,11.059-3.769,16.36c-1.608,5.28-3.527,10.369-5.698,15.145c-4.31,9.574-9.556,17.901-14.644,24.547
				c-5.089,6.658-9.969,11.677-13.534,15.006c-1.776,1.674-3.224,2.932-4.22,3.779c-0.998,0.844-1.531,1.294-1.531,1.294
				c-1.278,1.08-3.191,0.92-4.271-0.359c-1.065-1.26-0.924-3.135,0.303-4.223l0.059-0.053c0,0,0.495-0.438,1.424-1.26
				c0.926-0.824,2.272-2.049,3.919-3.674c3.308-3.231,7.824-8.095,12.496-14.503c4.672-6.397,9.449-14.382,13.303-23.49
				c1.943-4.544,3.637-9.37,5.033-14.355c1.394-4.967,2.467-10.187,3.168-15.297l0.252-2.022l0.109-0.951l0.099-0.981
				c0.143-1.304,0.237-2.626,0.345-3.94c0.192-2.637,0.325-5.291,0.444-7.941c0.23-5.306,0.401-10.618,0.801-15.83
				c0.405-5.208,1.036-10.313,2.143-15.207c1.155-4.945,2.907-9.452,4.977-13.395c2.069-3.947,4.458-7.331,6.885-10.095
				c2.428-2.766,4.875-4.921,7.036-6.517c2.18-1.61,3.969-2.646,5.34-3.367c0.723-0.387,1.12-0.567,1.421-0.715
				c0.296-0.143,0.449-0.217,0.449-0.217c2.486-1.203,5.476-0.164,6.68,2.321c1.203,2.486,0.164,5.476-2.321,6.68
				C554.018,846.719,553.968,846.742,553.942,846.755z"/>
		</g>
		<g id="XMLID_95_">
			<path id="XMLID_84_" fill="#CCCCCC" d="M682.288,847.995c0,0-0.8-0.083-2.299-0.238c-0.18-0.016-0.401-0.048-0.579-0.054
				c-0.162,0-0.332,0.001-0.51,0.001c-0.357-0.004-0.746-0.009-1.167-0.015c-0.4-0.032-0.926,0.026-1.46,0.059
				c-0.538,0.049-1.109,0.046-1.715,0.135c-2.424,0.27-5.389,0.938-8.724,2.156c-3.331,1.225-7.028,3.016-10.852,5.448
				c-3.797,2.438-7.83,5.456-11.65,9.004c-0.489,0.464-1.053,0.959-1.489,1.408c-0.45,0.452-0.903,0.907-1.359,1.365
				c-0.901,0.965-1.855,1.946-2.737,2.999c-1.813,2.068-3.55,4.302-5.218,6.66c-3.359,4.701-6.401,9.933-9.23,15.43
				c-2.811,5.507-5.394,11.299-7.902,17.19c-2.511,5.885-4.96,11.853-7.555,17.703c-2.583,5.841-5.336,11.597-8.341,16.947
				c-3.003,5.388-6.231,10.423-9.51,15c-3.283,4.586-6.632,8.739-9.876,12.432c-6.476,7.405-12.574,12.907-16.934,16.611
				c-2.206,1.827-3.95,3.246-5.177,4.167c-1.214,0.936-1.862,1.435-1.862,1.435c-1.141,0.879-2.778,0.667-3.657-0.473
				c-0.866-1.123-0.673-2.729,0.423-3.617l0.06-0.048c0,0,0.615-0.497,1.767-1.429c1.164-0.916,2.818-2.328,4.906-4.139
				c4.125-3.674,9.884-9.118,15.95-16.391c3.039-3.627,6.166-7.695,9.215-12.171c3.055-4.483,6.016-9.348,8.766-14.561
				c2.782-5.233,5.285-10.794,7.69-16.59c2.408-5.784,4.705-11.774,7.104-17.78c2.392-6.001,4.909-12.029,7.721-17.87
				c2.829-5.827,5.932-11.476,9.465-16.676c1.754-2.605,3.604-5.103,5.562-7.448c0.957-1.193,1.977-2.3,2.987-3.429
				c0.532-0.559,1.062-1.115,1.588-1.667c0.533-0.564,1.008-0.996,1.51-1.495c4.192-4.072,8.484-7.447,12.734-10.321
				c4.254-2.846,8.503-5.051,12.491-6.624c3.991-1.568,7.715-2.51,10.876-2.94c0.784-0.129,1.549-0.161,2.257-0.237
				c0.715-0.06,1.359-0.139,2.053-0.126c0.672-0.002,1.294-0.003,1.863-0.005c0.285,0.002,0.557,0.004,0.815,0.006
				c0.242,0.007,0.417,0.03,0.612,0.043c1.503,0.12,2.304,0.184,2.304,0.184c2.753,0.22,4.806,2.63,4.586,5.383
				c-0.22,2.753-2.63,4.806-5.383,4.586C682.376,848.003,682.318,847.998,682.288,847.995z"/>
		</g>
		<g id="XMLID_96_">
			<path id="XMLID_81_" fill="#CCCCCC" d="M775.594,865.556c0,0-2.293,1.244-6.306,3.421c-0.991,0.55-2.141,1.134-3.295,1.815
				c-1.137,0.69-2.367,1.435-3.681,2.232c-1.316,0.796-2.717,1.643-4.193,2.537c-1.461,0.938-2.975,1.987-4.569,3.048
				c-1.58,1.083-3.273,2.147-4.941,3.366c-1.661,1.231-3.377,2.504-5.142,3.813c-0.878,0.661-1.79,1.303-2.674,2.003
				c-0.874,0.713-1.759,1.435-2.653,2.164c-1.781,1.469-3.638,2.927-5.461,4.489c-3.564,3.214-7.342,6.443-10.877,10.047
				c-3.681,3.459-7.081,7.302-10.603,11.037c-3.302,3.925-6.735,7.754-9.751,11.814c-3.181,3.937-5.959,8.07-8.754,11.999
				c-1.347,1.998-2.586,4.019-3.847,5.967c-0.625,0.978-1.243,1.945-1.854,2.901c-0.597,0.964-1.133,1.948-1.691,2.902
				c-1.104,1.916-2.177,3.78-3.216,5.584c-1.026,1.811-1.894,3.626-2.795,5.333c-0.877,1.72-1.75,3.354-2.524,4.934
				c-0.732,1.601-1.426,3.119-2.079,4.547c-0.653,1.428-1.265,2.764-1.83,4c-0.551,1.242-0.982,2.414-1.411,3.456
				c-1.679,4.187-2.638,6.58-2.638,6.58l-0.046,0.114c-0.523,1.304-2.004,1.938-3.308,1.414c-1.28-0.513-1.912-1.952-1.441-3.238
				c0,0,0.91-2.478,2.501-6.814c0.408-1.08,0.817-2.295,1.343-3.584c0.542-1.283,1.127-2.67,1.753-4.153
				c0.626-1.483,1.293-3.062,1.996-4.725c0.745-1.644,1.589-3.346,2.438-5.137c0.872-1.779,1.712-3.67,2.709-5.56
				c1.012-1.883,2.058-3.83,3.133-5.832c0.545-0.997,1.068-2.025,1.652-3.034c0.598-1.001,1.204-2.014,1.817-3.038
				c1.237-2.041,2.453-4.158,3.778-6.255c2.752-4.126,5.495-8.469,8.651-12.623c2.991-4.278,6.408-8.332,9.706-12.486
				c3.517-3.965,6.924-8.041,10.624-11.734c3.553-3.837,7.362-7.299,10.965-10.74c1.842-1.675,3.723-3.246,5.528-4.826
				c0.907-0.785,1.805-1.561,2.692-2.328c0.897-0.754,1.823-1.451,2.716-2.164c1.796-1.415,3.543-2.791,5.233-4.122
				c1.7-1.319,3.427-2.481,5.04-3.657c1.631-1.156,3.168-2.288,4.678-3.32c1.546-0.999,3.013-1.947,4.391-2.838
				c1.38-0.89,2.672-1.723,3.867-2.493c1.194-0.75,2.283-1.343,3.271-1.929c3.947-2.294,6.202-3.605,6.202-3.605
				c2.388-1.388,5.448-0.577,6.836,1.811c1.388,2.388,0.577,5.448-1.811,6.836C775.687,865.505,775.63,865.536,775.594,865.556z"/>
		</g>
		<g id="XMLID_97_">
			<path id="XMLID_78_" fill="#CCCCCC" d="M894.127,870.261c0,0-0.66,0.19-1.899,0.547c-0.619,0.179-1.383,0.399-2.281,0.658
				c-0.956,0.239-1.811,0.598-2.809,0.98c-0.501,0.19-1.028,0.39-1.581,0.599c-0.555,0.217-1.133,0.394-1.746,0.71
				c-1.225,0.574-2.549,1.195-3.965,1.859c-1.372,0.769-2.831,1.587-4.37,2.45c-1.479,0.98-3.063,1.964-4.668,3.076
				c-3.158,2.31-6.539,4.912-9.843,8.044c-3.366,3.05-6.682,6.574-9.998,10.339c-3.313,3.773-6.527,7.893-9.724,12.147
				c-3.157,4.292-6.26,8.754-9.292,13.286c-3.028,4.566-5.958,9.139-8.848,13.712c-2.89,4.571-5.73,9.089-8.542,13.445
				c-2.825,4.349-5.585,8.548-8.35,12.452c-2.725,3.925-5.471,7.539-8.05,10.84c-1.334,1.62-2.612,3.173-3.827,4.65
				c-1.268,1.437-2.471,2.799-3.601,4.08c-1.179,1.24-2.282,2.401-3.302,3.474c-1.027,1.066-2.034,1.989-2.91,2.851
				c-1.738,1.739-3.244,2.967-4.22,3.853c-0.989,0.872-1.517,1.337-1.517,1.337c-1.12,0.988-2.829,0.88-3.817-0.24
				c-0.971-1.101-0.883-2.771,0.183-3.765l0.1-0.093c0,0,0.491-0.457,1.413-1.315c0.909-0.872,2.31-2.07,3.93-3.781
				c0.816-0.848,1.753-1.749,2.71-2.797c0.951-1.054,1.979-2.193,3.077-3.411c1.055-1.259,2.177-2.6,3.36-4.013
				c1.136-1.456,2.33-2.986,3.576-4.583c2.414-3.263,4.985-6.833,7.549-10.741c2.598-3.878,5.205-8.08,7.884-12.448
				c2.667-4.377,5.379-8.952,8.154-13.605c2.774-4.652,5.654-9.417,8.583-14.094c2.962-4.687,6.018-9.338,9.16-13.85
				c3.189-4.485,6.42-8.856,9.805-12.923c3.39-4.06,6.818-7.897,10.366-11.291c3.472-3.463,7.103-6.429,10.536-9.07
				c1.749-1.283,3.492-2.437,5.122-3.569c1.714-1.021,3.34-1.989,4.868-2.899c1.598-0.802,3.093-1.552,4.476-2.246
				c1.389-0.688,2.826-1.193,4.044-1.709c1.239-0.502,2.369-0.969,3.225-1.204c0.891-0.282,1.648-0.522,2.263-0.717
				c1.229-0.389,1.884-0.597,1.884-0.597c2.633-0.834,5.443,0.624,6.277,3.257c0.834,2.633-0.624,5.443-3.257,6.277
				C894.219,870.234,894.161,870.251,894.127,870.261z"/>
		</g>
		<g id="XMLID_115_">
			<path id="XMLID_75_" fill="#CCCCCC" d="M1024.209,844.413c0,0,0.678,0.174,1.95,0.499c0.644,0.171,1.402,0.346,2.361,0.617
				c0.994,0.309,2.137,0.664,3.417,1.062c1.284,0.396,2.584,0.932,4.063,1.465c1.467,0.538,2.995,1.253,4.656,1.947
				c3.248,1.535,6.889,3.324,10.615,5.653c3.74,2.3,7.67,4.971,11.564,8.101c3.899,3.122,7.809,6.637,11.605,10.499
				c0.95,0.964,1.907,1.937,2.825,2.959c0.929,1.012,1.877,2.018,2.775,3.08l1.369,1.581l0.343,0.397l0.213,0.248l0.161,0.198
				l0.645,0.794l1.295,1.594l1.318,1.717c3.491,4.575,6.621,9.349,9.557,14.238c5.873,9.761,10.948,19.761,16.144,28.763
				c0.658,1.124,1.31,2.238,1.956,3.342c0.657,1.08,1.308,2.15,1.952,3.208c0.667,1.047,1.326,2.083,1.978,3.107
				c0.673,1.007,1.338,2.002,1.994,2.983c2.668,3.889,5.363,7.429,8.038,10.518c2.672,3.092,5.313,5.735,7.763,7.943
				c0.621,0.542,1.222,1.067,1.802,1.574c0.591,0.493,1.179,0.942,1.734,1.389c1.098,0.912,2.187,1.631,3.139,2.33
				c1.948,1.326,3.516,2.317,4.626,2.914c1.098,0.621,1.684,0.953,1.684,0.953l0.121,0.068c1.15,0.65,1.554,2.109,0.904,3.259
				c-0.638,1.128-2.057,1.537-3.196,0.939c0,0-0.644-0.339-1.85-0.974c-1.22-0.613-2.944-1.63-5.085-3
				c-1.047-0.719-2.245-1.467-3.45-2.407c-0.61-0.461-1.256-0.928-1.905-1.438c-0.636-0.524-1.296-1.067-1.977-1.628
				c-2.688-2.283-5.58-5.016-8.496-8.2c-2.92-3.18-5.853-6.811-8.747-10.777c-0.711-0.999-1.432-2.012-2.161-3.038
				c-0.705-1.04-1.419-2.092-2.14-3.156c-0.701-1.081-1.41-2.173-2.126-3.276c-0.689-1.102-1.385-2.216-2.086-3.338
				c-5.567-9.034-10.934-18.878-16.891-28.149c-2.964-4.631-6.128-9.143-9.448-13.242l-1.238-1.523l-1.341-1.556l-0.668-0.775
				l-0.167-0.193c-0.023-0.027,0.052,0.062,0,0.003l-0.042-0.046l-0.084-0.091l-0.335-0.365l-1.336-1.454
				c-0.875-0.979-1.798-1.899-2.699-2.827c-0.892-0.938-1.819-1.825-2.738-2.704c-3.67-3.522-7.417-6.697-11.116-9.486
				c-3.695-2.798-7.381-5.143-10.854-7.143c-3.463-2.03-6.799-3.539-9.755-4.839c-1.507-0.572-2.893-1.18-4.213-1.618
				c-1.314-0.426-2.539-0.893-3.608-1.184c-1.068-0.302-2.022-0.571-2.852-0.806c-0.878-0.223-1.704-0.391-2.334-0.538
				c-1.281-0.288-1.964-0.442-1.964-0.442c-2.694-0.606-4.388-3.281-3.782-5.975c0.606-2.695,3.281-4.388,5.975-3.782
				C1024.106,844.387,1024.169,844.403,1024.209,844.413z"/>
		</g>
		<g id="XMLID_116_">
			<path id="XMLID_72_" fill="#CCCCCC" d="M916.918,859.204c0,0,3.052,0.95,8.392,2.612c1.339,0.432,2.806,0.839,4.43,1.413
				c1.627,0.589,3.386,1.226,5.266,1.906c1.878,0.681,3.876,1.406,5.983,2.171c2.07,0.823,4.214,1.739,6.467,2.667
				c2.24,0.957,4.614,1.857,6.993,2.967c2.376,1.113,4.833,2.264,7.358,3.447c1.256,0.603,2.554,1.165,3.823,1.825
				c1.267,0.662,2.55,1.333,3.847,2.011c2.584,1.372,5.261,2.704,7.911,4.187c5.253,3.055,10.739,6.105,16.058,9.623
				c5.44,3.324,10.666,7.152,15.985,10.826c5.136,3.932,10.368,7.732,15.203,11.871c4.975,3.965,9.557,8.234,14.077,12.257
				c2.217,2.059,4.319,4.168,6.418,6.185c1.044,1.014,2.077,2.017,3.097,3.008c1.011,1,1.957,2.041,2.919,3.039
				c1.909,2.009,3.766,3.964,5.562,5.854c1.788,1.897,3.399,3.838,5.008,5.643c1.588,1.823,3.132,3.55,4.559,5.229
				c1.384,1.715,2.697,3.341,3.93,4.869c1.233,1.528,2.386,2.958,3.453,4.28c1.057,1.33,1.955,2.609,2.804,3.733
				c3.357,4.527,5.275,7.114,5.275,7.114c0.768,1.036,0.551,2.499-0.485,3.267c-1.019,0.755-2.45,0.558-3.228-0.434l-0.062-0.079
				c0,0-1.955-2.497-5.377-6.868c-0.865-1.084-1.779-2.319-2.854-3.6c-1.083-1.273-2.255-2.65-3.508-4.122
				c-1.251-1.471-2.583-3.036-3.987-4.686c-1.446-1.613-3.009-3.271-4.615-5.022c-1.627-1.732-3.256-3.596-5.061-5.413
				c-1.812-1.81-3.685-3.681-5.61-5.605c-0.969-0.955-1.922-1.952-2.94-2.907c-1.027-0.946-2.066-1.904-3.116-2.872
				c-2.11-1.925-4.223-3.938-6.448-5.899c-4.536-3.827-9.125-7.89-14.098-11.642c-4.832-3.927-10.049-7.507-15.16-11.216
				c-5.292-3.452-10.481-7.054-15.87-10.154c-5.269-3.295-10.691-6.121-15.872-8.961c-2.614-1.375-5.251-2.599-7.794-3.867
				c-1.276-0.626-2.537-1.245-3.784-1.856c-1.248-0.609-2.522-1.12-3.756-1.673c-2.478-1.083-4.888-2.137-7.22-3.157
				c-2.332-1.016-4.656-1.825-6.847-2.695c-2.202-0.84-4.306-1.676-6.316-2.416c-2.019-0.673-3.935-1.312-5.735-1.912
				c-1.798-0.601-3.481-1.164-5.037-1.684c-1.566-0.511-3.096-0.894-4.429-1.287c-5.382-1.522-8.457-2.392-8.457-2.392
				c-2.658-0.751-4.203-3.514-3.452-6.172c0.751-2.658,3.514-4.203,6.172-3.452C916.826,859.177,916.884,859.194,916.918,859.204z"
				/>
		</g>
		<g id="XMLID_132_">
			<path id="XMLID_69_" fill="#CCCCCC" d="M791.447,859.023c0,0,0.707,0.436,2.033,1.254c1.33,0.835,3.263,1.977,5.755,3.583
				c2.489,1.614,5.545,3.545,8.915,5.87c1.702,1.147,3.51,2.371,5.377,3.718c1.871,1.341,3.868,2.707,5.881,4.232
				c4.067,2.992,8.417,6.309,12.912,9.946c2.251,1.815,4.556,3.687,6.856,5.668c2.332,1.943,4.658,3.993,7.012,6.09
				c2.383,2.064,4.694,4.287,7.089,6.474c2.351,2.235,4.722,4.505,7.073,6.832c2.326,2.353,4.704,4.69,6.989,7.137
				c1.151,1.215,2.304,2.432,3.458,3.65l3.393,3.723c2.282,2.465,4.438,5.044,6.653,7.549c2.134,2.571,4.309,5.112,6.371,7.673
				c4.074,5.129,8.083,10.176,11.962,15.061c3.87,4.832,7.687,9.388,11.494,13.498c1.91,2.074,3.782,3.969,5.708,5.834
				c1.849,1.788,3.762,3.48,5.599,5.046c3.716,3.103,7.32,5.679,10.645,7.725c3.324,2.05,6.368,3.562,8.928,4.656
				c2.557,1.107,4.63,1.801,6.049,2.248c1.427,0.417,2.189,0.64,2.189,0.64l0.123,0.036c1.435,0.42,2.258,1.923,1.839,3.358
				c-0.414,1.415-1.884,2.234-3.301,1.855c0,0-0.839-0.225-2.411-0.648c-1.562-0.455-3.845-1.165-6.652-2.309
				c-2.81-1.131-6.144-2.7-9.763-4.826c-3.621-2.121-7.528-4.791-11.535-7.994c-1.992-1.625-4.009-3.331-6.065-5.235
				c-1.974-1.831-4.053-3.846-6.058-5.932c-4.048-4.186-8.071-8.787-12.096-13.597c-3.976-4.79-8.084-9.74-12.258-14.769
				c-2.096-2.491-4.265-4.915-6.412-7.393c-2.223-2.407-4.386-4.885-6.672-7.249l-3.398-3.571c-1.155-1.167-2.308-2.334-3.46-3.497
				c-2.285-2.345-4.661-4.58-6.984-6.831c-2.347-2.225-4.713-4.394-7.056-6.528c-2.387-2.086-4.689-4.209-7.06-6.174
				c-2.343-1.998-4.656-3.95-6.973-5.798c-2.286-1.885-4.575-3.663-6.809-5.386c-4.461-3.454-8.771-6.596-12.797-9.425
				c-1.993-1.444-3.969-2.732-5.818-3.999c-1.846-1.273-3.633-2.427-5.314-3.507c-3.347-2.204-6.303-3.981-8.725-5.481
				c-2.428-1.494-4.456-2.635-5.782-3.429c-1.343-0.789-2.06-1.209-2.06-1.209c-2.381-1.398-3.179-4.462-1.78-6.844
				c1.398-2.382,4.462-3.179,6.844-1.78C791.379,858.982,791.424,859.009,791.447,859.023z"/>
		</g>
		<g id="XMLID_133_">
			<path id="XMLID_63_" fill="#CCCCCC" d="M700.323,844.009c0,0,1.525,2.644,4.193,7.271c1.33,2.295,2.976,5.08,4.88,8.255
				c1.911,3.171,4.079,6.741,6.516,10.582c2.421,3.854,5.116,7.975,8.034,12.286c2.912,4.315,6.099,8.777,9.479,13.327
				c3.377,4.554,7.022,9.134,10.841,13.688c1.883,2.269,3.92,4.567,5.843,6.738c2.072,2.221,4.141,4.547,6.238,6.622
				c4.135,4.289,8.605,8.424,13.029,12.381c4.464,3.938,8.981,7.688,13.445,11.214c2.225,1.771,4.461,3.459,6.632,5.13
				c2.207,1.63,4.337,3.26,6.464,4.784c4.23,3.076,8.273,5.933,12.042,8.527c3.758,2.607,7.241,4.952,10.33,7.029
				c3.1,2.066,5.802,3.867,8.027,5.351c4.466,2.953,7.018,4.641,7.018,4.641c1.131,0.745,1.444,2.267,0.699,3.398
				c-0.733,1.113-2.223,1.43-3.348,0.731c0,0-2.598-1.622-7.145-4.462c-2.27-1.43-5.027-3.165-8.19-5.156
				c-3.156-2.005-6.718-4.27-10.573-6.799c-3.863-2.513-8.02-5.292-12.381-8.292c-2.19-1.485-4.395-3.083-6.675-4.677
				c-2.25-1.64-4.564-3.294-6.875-5.038c-4.636-3.47-9.348-7.179-14.027-11.095c-4.662-3.958-9.299-8.023-13.782-12.434
				c-2.308-2.179-4.366-4.379-6.512-6.562c-2.185-2.336-4.234-4.534-6.263-6.849c-4.046-4.578-7.912-9.186-11.494-13.762
				c-3.586-4.572-6.968-9.057-10.057-13.387c-3.094-4.325-5.953-8.459-8.519-12.317c-2.584-3.848-4.88-7.416-6.903-10.584
				c-2.017-3.173-3.753-5.944-5.171-8.248c-2.804-4.584-4.407-7.203-4.407-7.203c-1.441-2.356-0.7-5.434,1.656-6.875
				c2.356-1.441,5.434-0.7,6.875,1.656c0.019,0.03,0.037,0.061,0.055,0.091L700.323,844.009z"/>
		</g>
		<g id="XMLID_135_">
			<path id="XMLID_43_" fill="#CCCCCC" d="M884.367,989.229c0,0,0.586-0.462,1.686-1.329c0.55-0.433,1.228-0.968,2.026-1.597
				c0.865-0.612,1.858-1.316,2.971-2.104c1.111-0.819,2.362-1.57,3.716-2.455c1.346-0.896,2.85-1.753,4.441-2.706
				c3.194-1.878,6.853-3.859,10.845-5.941c3.994-2.092,8.311-4.278,12.779-6.693c4.466-2.411,9.09-5.036,13.539-8.122
				c4.469-3.076,8.715-6.589,12.537-10.691c3.78-4.056,7.033-8.757,9.898-13.747c2.875-4.979,5.303-10.276,7.52-15.603
				c2.217-5.33,4.207-10.707,6.141-15.959c3.847-10.503,7.599-20.482,11.803-28.779c2.084-4.152,4.255-7.878,6.369-11.09
				c2.168-3.184,4.214-5.886,6.072-7.989c0.884-1.085,1.788-1.965,2.528-2.768c0.737-0.807,1.419-1.444,1.971-1.961
				c1.101-1.039,1.688-1.593,1.688-1.593c2.008-1.895,5.173-1.803,7.068,0.205s1.803,5.173-0.205,7.068
				c-0.022,0.021-0.044,0.042-0.067,0.062l-0.227,0.204c0,0-0.51,0.459-1.466,1.321c-0.481,0.427-1.078,0.952-1.725,1.632
				c-0.65,0.676-1.448,1.4-2.235,2.328c-1.652,1.773-3.5,4.097-5.503,6.879c-1.957,2.824-4.016,6.152-6.047,9.961
				c-2.036,3.805-4.049,8.083-6.042,12.72c-1.997,4.636-3.978,9.63-6.046,14.84c-2.068,5.209-4.23,10.639-6.666,16.111
				c-2.438,5.468-5.131,10.995-8.364,16.29c-3.211,5.287-6.921,10.391-11.278,14.839c-4.307,4.403-9.128,8.184-13.964,11.333
				c-4.841,3.18-9.722,5.785-14.346,8.136c-4.625,2.353-9.024,4.444-13.018,6.412c-4.004,1.964-7.617,3.806-10.744,5.542
				c-1.553,0.879-3.032,1.672-4.329,2.493c-1.303,0.806-2.553,1.516-3.563,2.228c-1.039,0.695-1.967,1.315-2.775,1.854
				c-0.812,0.608-1.503,1.126-2.064,1.545c-1.121,0.839-1.718,1.287-1.718,1.287c-1.16,0.871-2.807,0.637-3.678-0.523
				C883.035,991.727,883.254,990.11,884.367,989.229z"/>
		</g>
		<path id="XMLID_148_" fill="none" stroke="#CCCCCC" stroke-width="5" stroke-linecap="round" stroke-miterlimit="10" d="
			M1115.804,892.78c-56.428,7.055-109.386,38.485-142.609,84.639"/>
		<path id="XMLID_149_" fill="none" stroke="#CCCCCC" stroke-width="5" stroke-linecap="round" stroke-miterlimit="10" d="
			M910.249,913.142c-18.528,8.061-30.917,25.929-39.409,44.264c-8.491,18.335-14.136,38.032-24.439,55.413
			c-10.304,17.381-26.743,32.799-46.835,34.939"/>
		<path id="XMLID_150_" fill="none" stroke="#CCCCCC" stroke-width="5" stroke-linecap="round" stroke-miterlimit="10" d="
			M610.238,982.583c11.75-18.764,33.533-29.097,55.238-33.461c21.705-4.364,44.073-3.734,66.101-5.951s44.727-7.78,61.414-22.329"/>
		<path id="XMLID_151_" fill="none" stroke="#CCCCCC" stroke-width="5" stroke-linecap="round" stroke-miterlimit="10" d="
			M632.564,929.037c-26.613,10.566-56.122,9.847-84.744,10.668s-58.74,3.87-82.137,20.376"/>
	</g>
	<path id="Dendrite_Membrane_1_" display="none" fill="none" stroke="#B3B3B3" stroke-width="10" stroke-miterlimit="10" d="
		M329.756,1064.226c39.491-29.382,76.297-66.601,104.588-106.887c24.506-34.896,45.329-74.381,80.807-98.037
		c33.701-22.472,76.422-27.384,116.779-23.914c40.357,3.471,79.62,14.577,119.513,21.594
		c70.644,12.426,143.323,11.944,214.236,1.155c43.248-6.58,87.466-16.953,130.169-7.459
		c62.154,13.819,107.701,66.683,141.271,120.787c20.304,32.723,30.155,57.709,51.635,92.761"/>
	<g id="Dendrite_Membrane">
		<path id="XMLID_192_" fill="#B3B3B3" d="M321.509,1064.227c41.612-31.016,82.242-72.022,108.744-109.76
			c5.131-7.307,10.206-14.978,15.114-22.396c18.77-28.369,38.179-57.704,67.011-76.929c30.463-20.313,71.952-28.868,119.981-24.735
			c26.569,2.285,52.958,7.902,78.479,13.335c13.581,2.891,27.625,5.88,41.472,8.315c67.734,11.916,139.27,12.296,212.618,1.137
			c6.725-1.023,13.611-2.161,20.27-3.262c36.754-6.073,74.763-12.355,111.736-4.135c53.156,11.818,100.401,52.063,144.436,123.031
			c10.292,16.587,18.312,31.738,26.801,47.777c7.979,15.076,16.226,30.655,26.58,47.623l-11.68-0.005
			c-9.058-15.206-16.507-29.278-23.738-42.939c-8.407-15.885-16.349-30.888-26.461-47.185
			c-42.54-68.562-87.716-107.337-138.107-118.541c-35.083-7.8-72.119-1.681-107.936,4.239c-6.689,1.105-13.607,2.249-20.396,3.282
			c-74.424,11.322-147.049,10.928-215.854-1.174c-14.022-2.467-28.155-5.476-41.822-8.385c-25.222-5.368-51.302-10.92-77.253-13.152
			c-45.745-3.935-85.021,4.051-113.577,23.093c-27.153,18.105-45.996,46.585-64.219,74.126c-4.945,7.476-10.06,15.205-15.27,22.624
			c-24.847,35.382-61.798,73.538-100.491,104.014"/>
		<line id="XMLID_191_" fill="#B3B3B3" x1="338" y1="1064.226" x2="322" y2="1064.226"/>
	</g>
	<path id="Axon_1_" fill="#FFF7F0" stroke="#B3B3B3" stroke-width="10" stroke-miterlimit="10" d="M652.051,0
		c0.311,21.025,0.487,44.332,0.487,71.631c2.253,82.817-16.031,141.646-73.376,201.689c-43.05,45.076-96.046,85.678-121.169,144.511
		c-29.741,69.645-5.682,148.134,42.307,203.305c53.567,61.585,134.389,89.723,212.899,102.066
		c58.486,9.195,116.083,10.856,174.163,5.354c5.459-0.517,9.037-6.062,7.164-11.216c-2.261-6.221-3.419-12.971-3.233-20.016
		c0.771-29.191,25.009-52.823,54.21-52.891c30.082-0.07,54.489,24.294,54.489,54.359c0,0.035,0,0.07,0,0.104
		c-0.01,4.908,4.684,8.447,9.359,6.953c40.884-13.066,77.915-33.823,106.353-70.56c47.906-61.885,43.684-165.496,12.322-234.174
		c-31.826-69.694-96.953-115.155-141.666-175.539C937.317,159.346,936.602,79.784,936.617,0"/>
	<g id="XMLID_39_">
		<polygon id="XMLID_40_" points="1636.116,852.88 1652.218,873.542 1653,874.545 1653,876.227 1653,937.271 1651.617,933.819 
			1671.617,954.774 1674.912,958.226 1671.617,961.679 1651.617,982.633 1653,979.182 1653,1040.226 1653,1041.913 
			1652.218,1042.911 1636.061,1063.538 1631.939,1060.915 1643.782,1037.542 1643,1040.226 1643,979.182 1643,977.178 
			1644.192,975.729 1664,954.774 1664,961.678 1644.192,940.724 1643,939.274 1643,937.271 1643,876.227 1643.782,878.911 
			1631.884,855.573 		"/>
	</g>
	<g id="XMLID_3_">
		<polygon id="XMLID_18_" points="1636.116,0.88 1652.218,21.542 1653,22.545 1653,24.227 1653,334.271 1651.617,330.819 
			1671.617,351.774 1674.912,355.226 1671.617,358.679 1651.617,379.633 1653,376.182 1653,688.226 1653,689.913 1652.218,690.911 
			1636.061,711.538 1631.939,708.915 1643.782,685.542 1643,688.226 1643,376.182 1643,374.178 1644.192,372.729 1664,351.774 
			1664,358.678 1644.192,337.724 1643,336.274 1643,334.271 1643,24.227 1643.782,26.911 1631.884,3.573 		"/>
	</g>
	
		<circle id="Vesicle" fill="#FFFFFF" stroke="#B3B3B3" stroke-width="10" stroke-miterlimit="10" cx="728.632" cy="599.792" r="54.359"/>
	
		<circle id="Vesicle_2_" fill="#FFFFFF" stroke="#B3B3B3" stroke-width="10" stroke-miterlimit="10" cx="1037.632" cy="507.792" r="54.359"/>
	
		<circle id="Vesicle_3_" fill="#FFFFFF" stroke="#B3B3B3" stroke-width="10" stroke-miterlimit="10" cx="863.632" cy="284.792" r="54.359"/>
	
		<circle id="Vesicle_4_" fill="#FFFFFF" stroke="#B3B3B3" stroke-width="10" stroke-miterlimit="10" cx="635.632" cy="378.792" r="54.359"/>
	<polygon id="Neurotransmitter_5_" fill="#45B19C" points="690.606,574.118 699.256,574.374 703.379,581.982 698.852,589.335 
		690.202,589.079 686.079,581.47 	"/>
	<polygon id="Neurotransmitter_4_" fill="#45B19C" points="724.412,582.226 720.095,574.726 724.412,567.226 733.046,567.226 
		737.363,574.726 733.046,582.226 	"/>
	<polygon id="Neurotransmitter_3_" fill="#45B19C" points="760.083,568.179 766.794,573.642 765.44,582.19 757.376,585.274 
		750.664,579.81 752.018,571.263 	"/>
	<polygon id="Neurotransmitter_2_" fill="#45B19C" points="745.766,605.34 752.694,600.154 760.657,603.541 761.693,612.113 
		754.765,617.298 746.801,613.912 	"/>
	<polygon id="Neurotransmitter_24_" fill="#45B19C" points="913.766,689.34 920.694,684.154 928.657,687.541 929.693,696.113 
		922.765,701.298 914.801,697.912 	"/>
	<polygon id="Neurotransmitter_27_" fill="#45B19C" points="985.373,715.145 980.669,722.409 972.026,721.99 968.085,714.307 
		972.789,707.044 981.433,707.462 	"/>
	<polygon id="Neurotransmitter_28_" fill="#45B19C" points="920.653,767.093 929.301,767.402 933.377,775.035 928.805,782.36 
		920.157,782.051 916.081,774.417 	"/>
	<polygon id="Neurotransmitter_29_" fill="#45B19C" points="978.05,777.174 984.782,782.612 983.461,791.164 975.408,794.279 
		968.676,788.841 969.997,780.288 	"/>
	<polygon id="Neurotransmitter_30_" fill="#45B19C" points="993.2,808.956 990.476,817.17 982.006,818.94 976.258,812.497 
		978.982,804.283 987.452,802.512 	"/>
	<polygon id="Neurotransmitter_31_" fill="#45B19C" points="902.64,819.219 901.7,827.822 893.789,831.329 886.818,826.234 
		887.758,817.631 895.67,814.124 	"/>
	<polygon id="Neurotransmitter_32_" fill="#45B19C" points="861.575,764.557 865.341,772.348 860.495,779.518 851.883,778.896 
		848.117,771.105 852.963,763.935 	"/>
	<polygon id="Neurotransmitter_33_" fill="#45B19C" points="895.52,775.947 900.343,783.132 896.552,790.911 887.938,791.506 
		883.115,784.321 886.906,776.541 	"/>
	<polygon id="Neurotransmitter_26_" fill="#45B19C" points="1147.766,715.34 1154.694,710.154 1162.657,713.541 1163.693,722.113 
		1156.765,727.298 1148.801,723.912 	"/>
	<polygon id="Neurotransmitter_25_" fill="#45B19C" points="838.766,813.34 845.694,808.154 853.657,811.541 854.693,820.113 
		847.765,825.298 839.801,821.912 	"/>
	<polygon id="Neurotransmitter_1_" fill="#45B19C" points="712.719,597.5 721.121,595.43 727.132,601.656 724.739,609.952 
		716.337,612.023 710.327,605.797 	"/>
	<polygon id="Neurotransmitter" fill="#45B19C" points="731.045,624.23 739.155,621.211 745.839,626.707 744.413,635.222 
		736.304,638.242 729.619,632.746 	"/>
	<polygon id="Neurotransmitter_11_" fill="#45B19C" points="603.606,360.118 612.256,360.374 616.379,367.983 611.852,375.335 
		603.202,375.079 599.079,367.47 	"/>
	<polygon id="Neurotransmitter_10_" fill="#45B19C" points="631.605,359.841 629.394,351.474 635.518,345.36 643.853,347.612 
		646.064,355.979 639.94,362.093 	"/>
	<polygon id="Neurotransmitter_9_" fill="#45B19C" points="667.083,354.179 673.794,359.642 672.44,368.19 664.376,371.274 
		657.664,365.81 659.018,357.263 	"/>
	<polygon id="Neurotransmitter_8_" fill="#45B19C" points="641.766,384.34 648.694,379.154 656.657,382.541 657.693,391.113 
		650.765,396.298 642.801,392.912 	"/>
	<polygon id="Neurotransmitter_7_" fill="#45B19C" points="610.719,385.5 619.121,383.43 625.132,389.656 622.739,397.952 
		614.337,400.023 608.327,393.797 	"/>
	<polygon id="Neurotransmitter_6_" fill="#45B19C" points="633.045,408.23 641.155,405.211 647.839,410.707 646.413,419.223 
		638.304,422.242 631.619,416.746 	"/>
	<polygon id="Neurotransmitter_17_" fill="#45B19C" points="836.606,271.118 845.256,271.374 849.379,278.983 844.852,286.335 
		836.202,286.079 832.079,278.47 	"/>
	<polygon id="Neurotransmitter_16_" fill="#45B19C" points="857.412,263.226 853.095,255.726 857.412,248.226 866.046,248.226 
		870.363,255.726 866.046,263.226 	"/>
	<polygon id="Neurotransmitter_15_" fill="#45B19C" points="885.083,257.179 891.794,262.642 890.44,271.19 882.376,274.274 
		875.664,268.81 877.018,260.263 	"/>
	<polygon id="Neurotransmitter_14_" fill="#45B19C" points="870.766,314.34 877.694,309.154 885.657,312.541 886.693,321.113 
		879.765,326.298 871.801,322.912 	"/>
	<polygon id="Neurotransmitter_13_" fill="#45B19C" points="869.719,282.5 878.121,280.43 884.132,286.656 881.739,294.952 
		873.337,297.023 867.327,290.797 	"/>
	<polygon id="Neurotransmitter_12_" fill="#45B19C" points="843.347,293.184 851.428,296.279 852.81,304.822 846.111,310.269 
		838.03,307.174 836.648,298.631 	"/>
	<polygon id="Neurotransmitter_23_" fill="#45B19C" points="1007.606,492.118 1016.256,492.374 1020.379,499.983 1015.852,507.335 
		1007.202,507.079 1003.079,499.47 	"/>
	<polygon id="Neurotransmitter_22_" fill="#45B19C" points="1054.412,489.226 1050.095,481.726 1054.412,474.226 1063.046,474.226 
		1067.363,481.726 1063.046,489.226 	"/>
	<polygon id="Neurotransmitter_21_" fill="#45B19C" points="1021.083,520.179 1027.794,525.642 1026.44,534.19 1018.376,537.274 
		1011.664,531.81 1013.018,523.263 	"/>
	<polygon id="Neurotransmitter_20_" fill="#45B19C" points="1019.766,479.34 1026.694,474.154 1034.657,477.541 1035.693,486.113 
		1028.765,491.298 1020.801,487.912 	"/>
	<polygon id="Neurotransmitter_19_" fill="#45B19C" points="1042.719,502.5 1051.121,500.43 1057.132,506.656 1054.74,514.952 
		1046.337,517.023 1040.327,510.797 	"/>
	<polygon id="Neurotransmitter_18_" fill="#45B19C" points="1054.045,523.23 1062.155,520.211 1068.839,525.707 1067.413,534.222 
		1059.304,537.242 1052.619,531.746 	"/>
	
		<ellipse id="Arrow_Ellipse" transform="matrix(0.7964 -0.6048 0.6048 0.7964 -113.6278 604.4427)" display="none" fill="none" stroke="#000000" stroke-width="5" stroke-miterlimit="10" cx="840.869" cy="470.975" rx="174.632" ry="226.735"/>
	<g id="Arrow_Ellipse_2_">
		<g id="XMLID_58_">
			<path id="XMLID_61_" fill="none" stroke="#000000" stroke-width="5" stroke-miterlimit="10" d="M690.308,302.061
				c4.185-4.139,8.664-8.032,13.435-11.655c26.798-20.351,59.299-29.516,93.478-28.589"/>
			<g id="XMLID_59_">
				<polygon id="XMLID_60_" points="701.017,303.364 673.303,322.485 687.741,292.068 				"/>
			</g>
		</g>
	</g>
	<g id="Arrow_Ellipse_6_">
		<g id="XMLID_53_">
			<path id="XMLID_56_" fill="none" stroke="#000000" stroke-width="5" stroke-miterlimit="10" d="M670.922,526.105
				c-12.631-26.429-20.54-53.626-23.735-80.085"/>
			<g id="XMLID_54_">
				<polygon id="XMLID_55_" points="675.958,516.708 683.494,549.524 660.557,524.874 				"/>
			</g>
		</g>
	</g>
	<g id="Arrow_Ellipse_8_">
		<g id="XMLID_48_">
			<path id="XMLID_51_" fill="none" stroke="#000000" stroke-width="5" stroke-miterlimit="10" d="M850.153,675.93
				c-23.906-5.14-47.974-14.859-70.905-28.805"/>
			<g id="XMLID_49_">
				<polygon id="XMLID_50_" points="845.649,666.144 876.457,679.73 842.984,683.371 				"/>
			</g>
		</g>
	</g>
	<g id="Arrow_Ellipse_3_">
		<g id="XMLID_42_">
			<path id="XMLID_46_" fill="none" stroke="#000000" stroke-width="5" stroke-miterlimit="10" d="M946.954,328.717
				c11.712,10.971,22.786,23.206,32.989,36.643c18.61,24.505,32.594,50.726,41.962,77.204"/>
			<g id="XMLID_44_">
				<polygon id="XMLID_45_" points="945.675,339.311 926.718,311.485 957.049,326.102 				"/>
			</g>
		</g>
	</g>
	<g id="Receptor">
		<rect id="XMLID_70_" x="843.515" y="852.914" fill="#F2F2F2" width="3.243" height="28.288"/>
		<g id="Right_6_">
			<path id="XMLID_102_" fill="#19889C" d="M866.505,840.81c-0.793,4.877-5.416,7.731-10.154,8.826
				c-0.309,0.071-0.594,0.239-0.795,0.484c-1.94,2.374-2.018,3.659-2.151,4.98c-1.48,14.32,0.39,12.182,1.6,26.522
				c0.15,1.77,0.31,3.59-0.18,5.3c-0.55,1.93-3.12,1.83-4.48,3.3c-0.94,1.02-1.58,3.31-2.45,3.68c-0.87,0.37-1.8,0.07-1.8-1.8V840.5
				c0-0.525,0.285-1.008,0.743-1.263l7.47-4.144c0.459-0.254,0.743-0.738,0.743-1.263v-5.511c0-0.29,0-0.569,0-0.85
				c0-1.245,0.434-2.28,1.644-2.14c0.01,0,0,0,0,0C863.685,826.13,867.395,835.33,866.505,840.81z"/>
		</g>
		<g id="Right_2_">
			<path id="XMLID_105_" fill="#19889C" d="M823.869,840.81c0.793,4.877,5.416,7.731,10.154,8.826
				c0.309,0.071,0.594,0.239,0.795,0.484c1.94,2.374,2.019,3.659,2.152,4.98c1.48,14.32-0.39,12.182-1.6,26.522
				c-0.15,1.77-0.31,3.59,0.18,5.3c0.55,1.93,3.12,1.83,4.48,3.3c0.94,1.02,1.58,3.31,2.45,3.68c0.87,0.37,1.8,0.07,1.8-1.8V840.5
				c0-0.525-0.285-1.008-0.743-1.263l-7.47-4.144c-0.459-0.254-0.743-0.738-0.743-1.263v-5.511c0-0.29,0-0.569,0-0.85
				c0-1.245-0.434-2.28-1.643-2.14c-0.01,0,0,0,0,0C826.689,826.13,822.979,835.33,823.869,840.81z"/>
		</g>
	</g>
	<g id="Receptor_3_">
		
			<rect id="XMLID_88_" x="719.414" y="836.317" transform="matrix(0.9868 0.1622 -0.1622 0.9868 147.4507 -105.6647)" fill="#F2F2F2" width="3.243" height="28.288"/>
		<g id="Right_8_">
			<path id="XMLID_200_" fill="#19889C" d="M746.377,828.025c-1.574,4.684-6.598,6.751-11.451,7.063
				c-0.316,0.02-0.625,0.139-0.863,0.349c-2.299,2.028-2.585,3.283-2.931,4.565c-3.783,13.89-1.591,12.084-2.722,26.43
				c-0.139,1.771-0.276,3.593-1.037,5.201c-0.856,1.815-3.375,1.3-4.956,2.53c-1.093,0.854-2.096,3.01-3.014,3.234
				c-0.919,0.224-1.788-0.223-1.484-2.068l8.368-50.919c0.085-0.518,0.444-0.949,0.938-1.125l8.043-2.878
				c0.494-0.177,0.853-0.608,0.938-1.125l0.894-5.438c0.047-0.286,0.092-0.562,0.138-0.839c0.202-1.229,0.798-2.18,1.969-1.845
				c0.01,0.002,0,0,0,0C745.975,813.082,748.144,822.762,746.377,828.025z"/>
		</g>
		<g id="Right_7_">
			<path id="XMLID_210_" fill="#19889C" d="M704.305,821.111c-0.008,4.941,4.091,8.507,8.588,10.356
				c0.293,0.12,0.548,0.332,0.706,0.606c1.529,2.657,1.398,3.938,1.315,5.263c-0.862,14.37-2.36,11.958-5.88,25.912
				c-0.435,1.722-0.888,3.492-0.682,5.259c0.23,1.994,2.782,2.312,3.886,3.983c0.762,1.159,1.022,3.522,1.821,4.029
				c0.798,0.506,1.765,0.361,2.068-1.484l8.368-50.919c0.085-0.518-0.117-1.041-0.529-1.366l-6.699-5.3
				c-0.411-0.326-0.614-0.849-0.529-1.366l0.894-5.438c0.047-0.286,0.092-0.562,0.138-0.839c0.202-1.228-0.058-2.32-1.275-2.378
				c-0.01-0.002,0,0,0,0C709.468,807.083,704.316,815.559,704.305,821.111z"/>
		</g>
	</g>
	<g id="Receptor_1_">
		
			<rect id="XMLID_73_" x="951.68" y="845.851" transform="matrix(0.9931 -0.1175 0.1175 0.9931 -94.4652 117.9976)" fill="#F2F2F2" width="3.243" height="28.288"/>
		<g id="Right_3_">
			<path id="XMLID_209_" fill="#19889C" d="M971.437,831.417c-0.215,4.936-4.47,8.314-9.046,9.958
				c-0.298,0.107-0.562,0.307-0.732,0.574c-1.647,2.585-1.575,3.871-1.551,5.198c0.213,14.395,1.819,12.052,4.706,26.15
				c0.357,1.74,0.73,3.529,0.444,5.284c-0.319,1.981-2.883,2.184-4.061,3.804c-0.814,1.123-1.18,3.473-2,3.942
				c-0.82,0.47-1.779,0.281-1.999-1.576l-6.065-51.244c-0.062-0.521,0.164-1.034,0.59-1.341l6.931-4.993
				c0.426-0.307,0.652-0.82,0.59-1.341l-0.648-5.473c-0.034-0.288-0.067-0.565-0.1-0.844c-0.146-1.236,0.163-2.315,1.381-2.318
				c0.01-0.001,0,0,0,0C966.912,817.171,971.677,825.871,971.437,831.417z"/>
		</g>
		<g id="Right_1_">
			<path id="XMLID_215_" fill="#19889C" d="M929.097,836.428c1.361,4.75,6.287,7.041,11.121,7.571
				c0.315,0.035,0.618,0.167,0.846,0.387c2.205,2.13,2.435,3.396,2.722,4.693c3.153,14.047,1.044,12.143,1.528,26.526
				c0.059,1.775,0.114,3.602,0.802,5.242c0.773,1.852,3.313,1.451,4.837,2.751c1.053,0.902,1.958,3.101,2.865,3.367
				s1.796-0.142,1.576-1.999l-6.065-51.244c-0.062-0.521-0.401-0.968-0.887-1.166l-7.905-3.237
				c-0.486-0.199-0.825-0.645-0.887-1.166l-0.648-5.473c-0.034-0.288-0.067-0.565-0.1-0.844c-0.146-1.236-0.698-2.213-1.884-1.932
				c-0.01,0.001,0,0,0,0C930.172,821.519,927.569,831.091,929.097,836.428z"/>
		</g>
		<polygon id="XMLID_67_" fill="#45B19C" points="957.191,825.955 949.774,831.349 941.302,827.836 940.248,818.928 
			947.666,813.534 956.137,817.048 		"/>
	</g>
	<g id="Receptor_2_">
		
			<rect id="XMLID_82_" x="1060.882" y="831.479" transform="matrix(0.9995 0.0304 -0.0304 0.9995 26.1708 -31.8772)" fill="#F2F2F2" width="3.243" height="28.288"/>
		<g id="Right_5_">
			<path id="XMLID_175_" fill="#19889C" d="M1084.659,820.035c-0.941,4.85-5.648,7.563-10.417,8.513
				c-0.311,0.062-0.601,0.221-0.809,0.46c-2.011,2.314-2.129,3.596-2.302,4.913c-1.914,14.268,0.02,12.188,0.794,26.558
				c0.096,1.774,0.201,3.598-0.341,5.292c-0.608,1.912-3.174,1.734-4.578,3.162c-0.97,0.991-1.68,3.26-2.561,3.604
				c-0.881,0.343-1.801,0.015-1.745-1.854l1.567-51.578c0.016-0.524,0.315-0.999,0.781-1.239l7.592-3.915
				c0.466-0.24,0.766-0.715,0.781-1.239l0.167-5.509c0.009-0.29,0.017-0.569,0.026-0.85c0.038-1.244,0.503-2.266,1.708-2.089
				c0.01,0,0,0,0,0C1082.286,805.276,1085.715,814.585,1084.659,820.035z"/>
		</g>
		<g id="Right_4_">
			<path id="XMLID_119_" fill="#19889C" d="M1042.043,818.74c0.645,4.899,5.179,7.892,9.881,9.13
				c0.306,0.081,0.587,0.257,0.78,0.508c1.867,2.432,1.906,3.719,1.999,5.043c1.044,14.358-0.76,12.165-2.405,26.461
				c-0.204,1.765-0.419,3.579,0.019,5.303c0.491,1.946,3.063,1.924,4.378,3.435c0.909,1.048,1.479,3.356,2.337,3.753
				c0.858,0.396,1.797,0.125,1.854-1.745l1.567-51.578c0.016-0.524-0.254-1.016-0.705-1.285l-7.34-4.369
				c-0.451-0.268-0.721-0.76-0.705-1.285l0.167-5.509c0.009-0.29,0.017-0.569,0.026-0.85c0.038-1.244-0.364-2.292-1.578-2.189
				c-0.01,0,0,0,0,0C1045.307,804.153,1041.32,813.236,1042.043,818.74z"/>
		</g>
	</g>
	<g id="Exchanger_2_">
		
			<rect id="XMLID_153_" x="611.567" y="820.237" transform="matrix(0.9999 -0.0164 0.0164 0.9999 -13.6158 10.2697)" fill="#F2F2F2" width="14.166" height="28.288"/>
		<g id="LRP_6_">
			<path id="XMLID_139_" fill="#F17322" stroke="#B75739" stroke-width="5" stroke-miterlimit="10" d="M604.125,791.045
				c9.209,0.225,6.963,21.836,6.442,43.146c-0.521,21.31,0.668,43.005-8.541,42.78c-9.209-0.225-16.145-22.06-15.625-43.37
				C586.922,812.29,594.916,790.82,604.125,791.045z"/>
		</g>
		<g id="LRP_5_">
			<path id="XMLID_138_" fill="#F17322" stroke="#B75739" stroke-width="5" stroke-miterlimit="10" d="M634.654,791.791
				c-9.209-0.225-8.021,21.47-8.541,42.78c-0.521,21.31-2.766,42.921,6.442,43.146c9.209,0.225,17.203-21.245,17.724-42.556
				C650.799,813.85,643.862,792.016,634.654,791.791z"/>
		</g>
		<g id="XMLID_131_">
			<g id="XMLID_32_">
				<path id="XMLID_37_" fill="none" stroke="#000000" stroke-width="5" stroke-miterlimit="10" d="M617.609,864.292
					c-0.364,14.911-8.405,26.95-18.924,36.061"/>
				<g id="XMLID_34_">
					<polygon id="XMLID_35_" points="595.34,891.732 588.59,907.824 605.901,905.626 					"/>
				</g>
			</g>
		</g>
		<path id="XMLID_130_" fill="none" stroke="#000000" stroke-width="5" stroke-miterlimit="10" d="M619.07,804.469
			c0.474-19.427-12.304-34.621-26.86-44.897"/>
		<path id="XMLID_117_" fill="none" stroke="#000000" stroke-width="5" stroke-miterlimit="10" d="M617.609,864.292
			c-0.474,19.427,12.304,34.621,26.86,44.897"/>
		<g id="XMLID_94_">
			<g id="XMLID_27_">
				<path id="XMLID_30_" fill="none" stroke="#000000" stroke-width="5" stroke-miterlimit="10" d="M619.07,804.469
					c0.364-14.911,8.405-26.95,18.924-36.061"/>
				<g id="XMLID_28_">
					<polygon id="XMLID_29_" points="641.34,777.029 648.09,760.938 630.779,763.135 					"/>
				</g>
			</g>
		</g>
		
			<line id="XMLID_89_" fill="none" stroke="#000000" stroke-width="5" stroke-miterlimit="10" x1="619.07" y1="804.469" x2="617.609" y2="864.292"/>
	</g>
	<g id="Exchanger_1_">
		
			<rect id="XMLID_152_" x="1067.515" y="659.796" transform="matrix(0.8362 -0.5485 0.5485 0.8362 -193.584 699.8256)" fill="#F2F2F2" width="14.166" height="28.288"/>
		<g id="LRP_4_">
			<path id="XMLID_121_" fill="#F17322" stroke="#B75739" stroke-width="5" stroke-miterlimit="10" d="M1036.794,647.245
				c7.581-5.233,18.471,13.568,30.581,31.111c12.109,17.544,25.827,34.393,18.246,39.626c-7.581,5.233-26.03-8.35-38.14-25.894
				C1035.371,674.545,1029.213,652.478,1036.794,647.245z"/>
		</g>
		<g id="LRP_1_">
			<path id="XMLID_120_" fill="#F17322" stroke="#B75739" stroke-width="5" stroke-miterlimit="10" d="M1061.926,629.898
				c-7.581,5.233,6.136,22.082,18.246,39.626s23,36.344,30.581,31.112c7.581-5.233,1.423-27.3-10.687-44.843
				S1069.507,624.665,1061.926,629.898z"/>
		</g>
		<g id="XMLID_114_">
			<g id="XMLID_22_">
				<path id="XMLID_25_" fill="none" stroke="#000000" stroke-width="5" stroke-miterlimit="10" d="M1090.77,698.564
					c8.473,12.275,9.048,26.741,5.896,40.296"/>
				<g id="XMLID_23_">
					<polygon id="XMLID_24_" points="1088.891,733.853 1092.893,750.839 1105.603,738.882 					"/>
				</g>
			</g>
		</g>
		<path id="XMLID_113_" fill="none" stroke="#000000" stroke-width="5" stroke-miterlimit="10" d="M1056.776,649.316
			c-11.039-15.993-30.31-20.769-48.125-20.522"/>
		<path id="XMLID_98_" fill="none" stroke="#000000" stroke-width="5" stroke-miterlimit="10" d="M1090.77,698.564
			c11.039,15.993,30.31,20.769,48.125,20.522"/>
		<g id="XMLID_79_">
			<g id="XMLID_36_">
				<path id="XMLID_101_" fill="none" stroke="#000000" stroke-width="5" stroke-miterlimit="10" d="M1056.776,649.316
					c-8.473-12.275-9.048-26.741-5.896-40.296"/>
				<g id="XMLID_99_">
					<polygon id="XMLID_100_" points="1058.655,614.026 1054.653,597.041 1041.943,608.998 					"/>
				</g>
			</g>
		</g>
		
			<line id="XMLID_77_" fill="none" stroke="#000000" stroke-width="5" stroke-miterlimit="10" x1="1056.776" y1="649.316" x2="1090.77" y2="698.564"/>
	</g>
	<g id="Ca2_x2B__channel_1_">
		
			<ellipse id="XMLID_64_" transform="matrix(0.9244 0.3815 -0.3815 0.9244 304.6571 -170.7721)" fill="#E8499C" stroke="#AA2688" stroke-width="5" stroke-miterlimit="10" cx="583.055" cy="683.029" rx="12.733" ry="32.844"/>
		
			<ellipse id="XMLID_33_" transform="matrix(0.9244 0.3815 -0.3815 0.9244 310.2584 -179.1905)" fill="#E8499C" stroke="#AA2688" stroke-width="5" stroke-miterlimit="10" cx="607.089" cy="692.947" rx="12.733" ry="32.844"/>
	</g>
	<g id="Ca2_x2B__channel_2_">
		
			<ellipse id="XMLID_66_" fill="#E8499C" stroke="#AA2688" stroke-width="5" stroke-miterlimit="10" cx="785.072" cy="729.988" rx="12.733" ry="32.844"/>
		
			<ellipse id="XMLID_65_" fill="#E8499C" stroke="#AA2688" stroke-width="5" stroke-miterlimit="10" cx="811.072" cy="729.988" rx="12.733" ry="32.844"/>
	</g>
</g>
<g id="Labels">
	
		<line id="XMLID_154_" fill="none" stroke="#666666" stroke-width="5" stroke-miterlimit="10" x1="581" y1="379.726" x2="382" y2="379.726"/>
	
		<line id="XMLID_155_" fill="none" stroke="#666666" stroke-width="5" stroke-miterlimit="10" x1="632.461" y1="348.412" x2="429.349" y2="144.346"/>
	<polyline id="XMLID_157_" fill="none" stroke="#666666" stroke-width="5" stroke-linejoin="round" stroke-miterlimit="10" points="
		1261.5,332.226 1261.5,528.226 1261.5,528.46 1111.419,678.521 	"/>
	
		<line id="XMLID_156_" fill="none" stroke="#666666" stroke-width="5" stroke-linejoin="round" stroke-miterlimit="10" x1="1084" y1="818.726" x2="1212" y2="818.726"/>
	
		<line id="XMLID_159_" fill="none" stroke="#666666" stroke-width="5" stroke-miterlimit="10" x1="524" y1="917.726" x2="382" y2="917.726"/>
	
		<line id="XMLID_160_" fill="none" stroke="#666666" stroke-width="5" stroke-miterlimit="10" x1="571" y1="679.726" x2="382" y2="679.726"/>
	<g id="XMLID_1_">
	</g>
	<g id="XMLID_2_">
	</g>
	<g id="XMLID_5_">
	</g>
	<g id="XMLID_6_">
	</g>
	<g id="XMLID_7_">
	</g>
	<g id="XMLID_16_">
	</g>
	<g id="XMLID_87_">
	</g>
	<g id="XMLID_90_">
	</g>
	<g id="XMLID_91_">
	</g>
	<g id="XMLID_92_">
	</g>
	<g id="XMLID_93_">
	</g>
	<g id="XMLID_103_">
	</g>
	<g id="XMLID_104_">
	</g>
	<g id="XMLID_106_">
	</g>
	<g id="XMLID_107_">
	</g>
	<g id="XMLID_108_">
	</g>
	<g id="XMLID_109_">
	</g>
</g>
</svg>
